<svg width="18" height="18" viewBox="0 0 18 18" fill="none" xmlns="http://www.w3.org/2000/svg">
<g clip-path="url(#clip0_1156_25533)">
<path d="M16.4236 1.15841C16.6069 1.15841 16.736 1.19248 16.8032 1.21835C16.884 1.43323 16.9923 2.20327 16.1963 2.99977L12.1359 7.0599L12.1652 7.56362C12.2267 8.61774 12.3409 10.5069 12.4394 12.1263C12.5263 13.5677 12.6087 14.929 12.614 15.0448C12.6168 15.1245 12.618 15.1433 12.5437 15.2327C12.3778 15.4344 12.0681 15.7761 11.8071 16.0593C11.4024 14.9689 10.5519 12.6658 10.0822 11.3765L9.47867 9.71771L8.2302 10.9662L5.93436 13.1737L5.61458 13.4929L5.60473 13.9443C5.59714 14.3046 5.59883 14.9512 5.59967 15.5213C5.6008 15.9184 5.60194 16.2793 5.59913 16.4781C5.59406 16.4874 5.67591 16.4984 5.66831 16.5116C5.61938 16.4331 5.56678 16.3485 5.51109 16.2604C5.04816 15.5221 4.40747 14.5009 4.212 14.1823L4.06913 13.9488L3.83456 13.8071C2.98153 13.2918 2.03653 12.697 1.45997 12.3255C1.47994 12.3139 1.49623 12.375 1.50945 12.3679H1.54686C1.72826 12.3679 2.02808 12.3719 2.36417 12.3766C2.80376 12.3825 3.30242 12.3898 3.68408 12.3898C3.83033 12.3898 3.96026 12.3887 4.06489 12.3865L4.51629 12.3761L4.83551 12.0568L7.04586 9.77676L8.29011 8.53307L6.63891 7.92557C5.39803 7.46912 3.02119 6.58147 1.90941 6.16382C2.19458 5.90113 2.53826 5.58922 2.7388 5.42327C2.79476 5.37714 2.83838 5.35354 2.86845 5.35354L2.90811 5.35466C3.03214 5.36057 4.57255 5.46126 6.06175 5.55857C7.64265 5.66179 9.4269 5.77822 10.4414 5.84263L10.9484 5.87441L15.0094 1.81316C15.5798 1.24363 16.14 1.15841 16.4236 1.15841ZM16.4236 0.0334648C15.759 0.0334648 14.9431 0.288805 14.2144 1.0178L10.5123 4.71962C8.42711 4.58771 3.08674 4.23446 2.95427 4.2308C2.9257 4.22936 2.89709 4.2286 2.86849 4.22854C2.68821 4.22854 2.37686 4.26313 2.02249 4.55591C1.60652 4.8999 0.739143 5.71554 0.739143 5.71554C0.529893 5.92534 0.423861 6.18521 0.449174 6.42962C0.464643 6.57727 0.544799 6.84643 0.90733 6.9882C1.12755 7.07454 4.63221 8.38573 6.25054 8.98113L4.04019 11.2612C3.9423 11.2635 3.82108 11.2646 3.68411 11.2646C3.01024 11.2646 1.96539 11.2427 1.54659 11.2427C1.49119 11.2427 1.44675 11.2427 1.41523 11.2438C1.28783 11.2477 1.02401 11.185 0.328201 11.7666L0.278701 11.8128C0.0700138 12.0214 0.0210763 12.2296 0.0165763 12.3671C0.0120763 12.5089 0.0500451 12.713 0.255076 12.8773C0.378264 12.9769 1.95748 13.9879 3.25262 14.7701C3.56314 15.2767 4.99189 17.5474 5.06642 17.6706C5.17528 17.8546 5.35329 17.9595 5.56622 17.9662H5.58394C5.79094 17.9662 6.00356 17.8636 6.21169 17.6614C6.80063 16.9726 6.71934 16.6874 6.72186 16.5676C6.73114 16.1918 6.71539 14.5999 6.72889 13.9688L9.02445 11.761C9.61114 13.3726 10.8936 16.8412 10.9794 17.062C11.1223 17.4245 11.3915 17.5041 11.5391 17.519C11.5633 17.5218 11.5881 17.523 11.6122 17.523C11.8342 17.523 12.0642 17.4186 12.2526 17.2302C12.2526 17.2302 13.0657 16.3673 13.4111 15.9474C13.757 15.5278 13.7436 15.1695 13.7368 15.0005C13.734 14.8835 13.4083 9.57206 13.2874 7.49784L16.9903 3.79488C18.3026 2.48199 18.0939 0.899979 17.6065 0.413416C17.3914 0.197135 16.9557 0.0334824 16.4236 0.0334648Z" fill="#4F4F4F"/>
</g>
<defs>
<clipPath id="clip0_1156_25533">
<rect width="18" height="18" fill="white"/>
</clipPath>
</defs>
</svg>
