<svg width="311" height="76" viewBox="0 0 311 76" fill="none" xmlns="http://www.w3.org/2000/svg">
<rect x="0.5" y="0.5" width="310" height="75" rx="7.5" fill="white"/>
<rect x="0.5" y="0.5" width="310" height="75" rx="7.5" stroke="#6A1AD3"/>
<mask id="mask0_2315_9816" style="mask-type:luminance" maskUnits="userSpaceOnUse" x="280" y="13" width="14" height="14">
<path d="M287 26.6663C287.875 26.6675 288.743 26.4956 289.552 26.1605C290.361 25.8253 291.095 25.3337 291.714 24.7137C292.334 24.0953 292.825 23.3605 293.16 22.5515C293.496 21.7426 293.667 20.8753 293.666 19.9997C293.667 19.124 293.496 18.2568 293.16 17.4478C292.825 16.6388 292.334 15.904 291.714 15.2857C291.095 14.6657 290.361 14.174 289.552 13.8389C288.743 13.5038 287.875 13.3319 287 13.333C286.124 13.3319 285.257 13.5038 284.448 13.8389C283.639 14.174 282.904 14.6657 282.286 15.2857C281.666 15.904 281.174 16.6388 280.839 17.4478C280.504 18.2568 280.332 19.124 280.333 19.9997C280.332 20.8753 280.504 21.7426 280.839 22.5515C281.174 23.3605 281.666 24.0953 282.286 24.7137C282.904 25.3337 283.639 25.8253 284.448 26.1604C285.257 26.4955 286.124 26.6675 287 26.6663Z" fill="white" stroke="white" stroke-width="0.666667" stroke-linejoin="round"/>
<path d="M284.333 20L286.333 22L290.333 18" stroke="black" stroke-width="1.33333" stroke-linecap="round" stroke-linejoin="round"/>
</mask>
<g mask="url(#mask0_2315_9816)">
<path d="M279 12H295V28H279V12Z" fill="#6A1AD3"/>
</g>
<path d="M21.6 44.126C20.592 44.126 19.7333 43.9207 19.024 43.51C18.3147 43.0993 17.7687 42.516 17.386 41.76C17.0127 40.9947 16.826 40.094 16.826 39.058C16.826 38.022 17.0127 37.126 17.386 36.37C17.7687 35.614 18.3147 35.0307 19.024 34.62C19.7333 34.2093 20.592 34.004 21.6 34.004C22.3 34.004 22.9253 34.1067 23.476 34.312C24.0267 34.5173 24.5073 34.816 24.918 35.208L24.414 36.37C23.966 35.9873 23.5273 35.712 23.098 35.544C22.678 35.376 22.188 35.292 21.628 35.292C20.564 35.292 19.752 35.6187 19.192 36.272C18.632 36.9253 18.352 37.854 18.352 39.058C18.352 40.262 18.632 41.1953 19.192 41.858C19.752 42.5113 20.564 42.838 21.628 42.838C22.188 42.838 22.678 42.754 23.098 42.586C23.5273 42.418 23.966 42.138 24.414 41.746L24.918 42.908C24.5073 43.3 24.0267 43.6033 23.476 43.818C22.9253 44.0233 22.3 44.126 21.6 44.126ZM29.1518 44.126C28.4518 44.126 27.8451 43.9813 27.3318 43.692C26.8185 43.3933 26.4218 42.9733 26.1418 42.432C25.8618 41.8813 25.7218 41.228 25.7218 40.472C25.7218 39.716 25.8618 39.0673 26.1418 38.526C26.4218 37.9753 26.8185 37.5553 27.3318 37.266C27.8451 36.9673 28.4518 36.818 29.1518 36.818C29.8518 36.818 30.4585 36.9673 30.9718 37.266C31.4945 37.5553 31.8958 37.9753 32.1758 38.526C32.4651 39.0673 32.6098 39.716 32.6098 40.472C32.6098 41.228 32.4651 41.8813 32.1758 42.432C31.8958 42.9733 31.4945 43.3933 30.9718 43.692C30.4585 43.9813 29.8518 44.126 29.1518 44.126ZM29.1518 43.02C29.7678 43.02 30.2578 42.8053 30.6218 42.376C30.9858 41.9467 31.1678 41.312 31.1678 40.472C31.1678 39.632 30.9858 39.002 30.6218 38.582C30.2578 38.1527 29.7678 37.938 29.1518 37.938C28.5451 37.938 28.0598 38.1527 27.6958 38.582C27.3318 39.002 27.1498 39.632 27.1498 40.472C27.1498 41.312 27.3271 41.9467 27.6818 42.376C28.0458 42.8053 28.5358 43.02 29.1518 43.02ZM36.7686 44.126C35.9192 44.126 35.2799 43.8973 34.8506 43.44C34.4306 42.9733 34.2206 42.2593 34.2206 41.298V36.944H35.6346V41.27C35.6346 41.858 35.7559 42.292 35.9986 42.572C36.2412 42.852 36.6099 42.992 37.1046 42.992C37.6646 42.992 38.1172 42.8053 38.4626 42.432C38.8079 42.0587 38.9806 41.564 38.9806 40.948V36.944H40.3946V44H39.0226V42.488H39.2046C39.0086 43.0107 38.6959 43.4167 38.2666 43.706C37.8372 43.986 37.3379 44.126 36.7686 44.126ZM42.4377 44V38.694C42.4377 38.4047 42.4284 38.1153 42.4097 37.826C42.4004 37.5273 42.3817 37.2333 42.3537 36.944H43.7257L43.8797 38.764H43.6557C43.749 38.3253 43.9077 37.9613 44.1317 37.672C44.3557 37.3827 44.6264 37.168 44.9437 37.028C45.2704 36.888 45.611 36.818 45.9657 36.818C46.115 36.818 46.241 36.8273 46.3437 36.846C46.4464 36.8553 46.549 36.874 46.6517 36.902L46.6377 38.162C46.479 38.0967 46.339 38.0593 46.2177 38.05C46.1057 38.0313 45.9657 38.022 45.7977 38.022C45.387 38.022 45.037 38.1153 44.7477 38.302C44.4584 38.4793 44.239 38.722 44.0897 39.03C43.9404 39.338 43.8657 39.6693 43.8657 40.024V44H42.4377ZM47.743 44V36.944H49.157V44H47.743ZM47.631 35.474V34.004H49.269V35.474H47.631ZM54.4914 44.126C53.3527 44.126 52.4567 43.804 51.8034 43.16C51.15 42.516 50.8234 41.6247 50.8234 40.486C50.8234 39.7487 50.9634 39.1047 51.2434 38.554C51.5327 38.0033 51.9294 37.5787 52.4334 37.28C52.9467 36.972 53.5394 36.818 54.2114 36.818C54.874 36.818 55.4294 36.958 55.8774 37.238C56.3254 37.518 56.666 37.9147 56.8994 38.428C57.1327 38.932 57.2494 39.5293 57.2494 40.22V40.668H51.9294V39.856H56.2834L56.0454 40.038C56.0454 39.338 55.8867 38.7967 55.5694 38.414C55.2614 38.022 54.8134 37.826 54.2254 37.826C53.572 37.826 53.068 38.0547 52.7134 38.512C52.3587 38.96 52.1814 39.5807 52.1814 40.374V40.514C52.1814 41.3447 52.382 41.97 52.7834 42.39C53.194 42.81 53.7727 43.02 54.5194 43.02C54.93 43.02 55.3127 42.964 55.6674 42.852C56.0314 42.7307 56.3767 42.5347 56.7034 42.264L57.1654 43.23C56.8387 43.5193 56.442 43.7433 55.9754 43.902C55.5087 44.0513 55.014 44.126 54.4914 44.126ZM58.8439 44V38.694C58.8439 38.4047 58.8346 38.1153 58.8159 37.826C58.8066 37.5273 58.7879 37.2333 58.7599 36.944H60.1319L60.2859 38.764H60.0619C60.1553 38.3253 60.3139 37.9613 60.5379 37.672C60.7619 37.3827 61.0326 37.168 61.3499 37.028C61.6766 36.888 62.0173 36.818 62.3719 36.818C62.5213 36.818 62.6473 36.8273 62.7499 36.846C62.8526 36.8553 62.9553 36.874 63.0579 36.902L63.0439 38.162C62.8853 38.0967 62.7453 38.0593 62.6239 38.05C62.5119 38.0313 62.3719 38.022 62.2039 38.022C61.7933 38.022 61.4433 38.1153 61.1539 38.302C60.8646 38.4793 60.6453 38.722 60.4959 39.03C60.3466 39.338 60.2719 39.6693 60.2719 40.024V44H58.8439ZM67.8817 47.024V38.638C67.8817 38.3673 67.8677 38.092 67.8397 37.812C67.821 37.5227 67.7977 37.2333 67.7697 36.944H69.1417L69.2817 38.54H69.1277C69.277 38.008 69.5757 37.588 70.0237 37.28C70.481 36.972 71.0224 36.818 71.6477 36.818C72.273 36.818 72.819 36.9673 73.2857 37.266C73.7524 37.5553 74.1117 37.9707 74.3637 38.512C74.625 39.0533 74.7557 39.7067 74.7557 40.472C74.7557 41.228 74.625 41.8813 74.3637 42.432C74.1117 42.9827 73.7524 43.4027 73.2857 43.692C72.819 43.9813 72.273 44.126 71.6477 44.126C71.0317 44.126 70.495 43.9767 70.0377 43.678C69.5897 43.37 69.291 42.9547 69.1417 42.432H69.2957V47.024H67.8817ZM71.2977 43.02C71.9137 43.02 72.4037 42.8053 72.7677 42.376C73.141 41.9467 73.3277 41.312 73.3277 40.472C73.3277 39.632 73.141 39.002 72.7677 38.582C72.4037 38.1527 71.9137 37.938 71.2977 37.938C70.6817 37.938 70.187 38.1527 69.8137 38.582C69.4497 39.002 69.2677 39.632 69.2677 40.472C69.2677 41.312 69.4497 41.9467 69.8137 42.376C70.187 42.8053 70.6817 43.02 71.2977 43.02ZM76.413 44V33.696H77.827V44H76.413ZM82.4053 44.126C81.5559 44.126 80.9166 43.8973 80.4873 43.44C80.0673 42.9733 79.8573 42.2593 79.8573 41.298V36.944H81.2713V41.27C81.2713 41.858 81.3926 42.292 81.6353 42.572C81.8779 42.852 82.2466 42.992 82.7413 42.992C83.3013 42.992 83.7539 42.8053 84.0993 42.432C84.4446 42.0587 84.6173 41.564 84.6173 40.948V36.944H86.0313V44H84.6593V42.488H84.8413C84.6453 43.0107 84.3326 43.4167 83.9033 43.706C83.4739 43.986 82.9746 44.126 82.4053 44.126ZM90.5244 44.126C89.9364 44.126 89.3951 44.0513 88.9004 43.902C88.4057 43.7527 87.9951 43.5427 87.6684 43.272L88.1024 42.306C88.4477 42.5673 88.8304 42.7633 89.2504 42.894C89.6704 43.0247 90.0997 43.09 90.5384 43.09C91.0517 43.09 91.4391 43.0013 91.7004 42.824C91.9617 42.6373 92.0924 42.3853 92.0924 42.068C92.0924 41.8253 92.0084 41.6293 91.8404 41.48C91.6817 41.3307 91.4157 41.2187 91.0424 41.144L89.6984 40.878C89.1011 40.7473 88.6484 40.5233 88.3404 40.206C88.0324 39.8887 87.8784 39.4827 87.8784 38.988C87.8784 38.568 87.9904 38.1947 88.2144 37.868C88.4477 37.5413 88.7744 37.2847 89.1944 37.098C89.6237 36.9113 90.1231 36.818 90.6924 36.818C91.2151 36.818 91.7004 36.8927 92.1484 37.042C92.5964 37.1913 92.9697 37.406 93.2684 37.686L92.8204 38.624C92.5311 38.3813 92.2044 38.1947 91.8404 38.064C91.4764 37.924 91.1077 37.854 90.7344 37.854C90.2117 37.854 89.8244 37.952 89.5724 38.148C89.3204 38.344 89.1944 38.6007 89.1944 38.918C89.1944 39.1607 89.2691 39.3613 89.4184 39.52C89.5771 39.6693 89.8244 39.786 90.1604 39.87L91.5044 40.136C92.1391 40.2667 92.6151 40.4813 92.9324 40.78C93.2497 41.0787 93.4084 41.48 93.4084 41.984C93.4084 42.4227 93.2871 42.8053 93.0444 43.132C92.8017 43.4587 92.4657 43.706 92.0364 43.874C91.6071 44.042 91.1031 44.126 90.5244 44.126Z" fill="#4F4F4F"/>
<path d="M160.926 51V46.59H159.324V45.456H160.926V43.818H159.324V42.684H160.926V38.31H162.438L166.722 48.39H166.326V38.31H167.874V42.684H169.494V43.818H167.874V45.456H169.494V46.59H167.874V51H166.38L162.096 40.92H162.492V51H160.926ZM171.593 51V49.434H174.545V39.894H175.481L171.881 42.09V40.29L175.067 38.31H176.417V49.434H179.189V51H171.593ZM185.446 51.162C184.894 51.162 184.348 51.102 183.808 50.982C183.268 50.862 182.764 50.694 182.296 50.478C181.828 50.25 181.42 49.98 181.072 49.668L181.72 48.246C182.296 48.69 182.884 49.026 183.484 49.254C184.096 49.47 184.738 49.578 185.41 49.578C186.262 49.578 186.928 49.356 187.408 48.912C187.9 48.468 188.146 47.874 188.146 47.13C188.146 46.362 187.912 45.744 187.444 45.276C186.988 44.796 186.352 44.556 185.536 44.556C184.972 44.556 184.456 44.67 183.988 44.898C183.532 45.126 183.13 45.474 182.782 45.942H181.486V38.31H189.172V39.876H183.268V44.448H182.8C183.124 43.992 183.556 43.638 184.096 43.386C184.648 43.134 185.266 43.008 185.95 43.008C186.766 43.008 187.474 43.176 188.074 43.512C188.674 43.848 189.136 44.316 189.46 44.916C189.796 45.516 189.964 46.224 189.964 47.04C189.964 47.856 189.778 48.576 189.406 49.2C189.046 49.812 188.524 50.292 187.84 50.64C187.168 50.988 186.37 51.162 185.446 51.162ZM192.279 53.214L191.487 52.602C191.835 52.23 192.069 51.888 192.189 51.576C192.321 51.264 192.387 50.94 192.387 50.604L192.783 51H191.361V48.858H193.503V50.316C193.503 50.856 193.413 51.354 193.233 51.81C193.053 52.278 192.735 52.746 192.279 53.214ZM195.704 51V49.614L200.06 45.06C200.624 44.472 201.044 43.92 201.32 43.404C201.596 42.888 201.734 42.354 201.734 41.802C201.734 41.118 201.518 40.602 201.086 40.254C200.666 39.906 200.054 39.732 199.25 39.732C198.614 39.732 198.014 39.846 197.45 40.074C196.898 40.302 196.364 40.65 195.848 41.118L195.2 39.696C195.704 39.228 196.328 38.856 197.072 38.58C197.828 38.292 198.626 38.148 199.466 38.148C200.786 38.148 201.8 38.448 202.508 39.048C203.228 39.648 203.588 40.506 203.588 41.622C203.588 42.414 203.396 43.176 203.012 43.908C202.628 44.628 202.052 45.372 201.284 46.14L197.522 49.938V49.434H204.11V51H195.704ZM210.043 51.162C208.579 51.162 207.451 50.604 206.659 49.488C205.879 48.36 205.489 46.746 205.489 44.646C205.489 42.51 205.879 40.896 206.659 39.804C207.451 38.7 208.579 38.148 210.043 38.148C211.519 38.148 212.647 38.7 213.427 39.804C214.207 40.896 214.597 42.504 214.597 44.628C214.597 46.74 214.201 48.36 213.409 49.488C212.629 50.604 211.507 51.162 210.043 51.162ZM210.043 49.596C210.967 49.596 211.651 49.194 212.095 48.39C212.551 47.586 212.779 46.332 212.779 44.628C212.779 42.912 212.551 41.664 212.095 40.884C211.651 40.092 210.967 39.696 210.043 39.696C209.131 39.696 208.447 40.092 207.991 40.884C207.535 41.664 207.307 42.906 207.307 44.61C207.307 46.326 207.535 47.586 207.991 48.39C208.459 49.194 209.143 49.596 210.043 49.596ZM220.476 51.162C219.012 51.162 217.884 50.604 217.092 49.488C216.312 48.36 215.922 46.746 215.922 44.646C215.922 42.51 216.312 40.896 217.092 39.804C217.884 38.7 219.012 38.148 220.476 38.148C221.952 38.148 223.08 38.7 223.86 39.804C224.64 40.896 225.03 42.504 225.03 44.628C225.03 46.74 224.634 48.36 223.842 49.488C223.062 50.604 221.94 51.162 220.476 51.162ZM220.476 49.596C221.4 49.596 222.084 49.194 222.528 48.39C222.984 47.586 223.212 46.332 223.212 44.628C223.212 42.912 222.984 41.664 222.528 40.884C222.084 40.092 221.4 39.696 220.476 39.696C219.564 39.696 218.88 40.092 218.424 40.884C217.968 41.664 217.74 42.906 217.74 44.61C217.74 46.326 217.968 47.586 218.424 48.39C218.892 49.194 219.576 49.596 220.476 49.596Z" fill="#414141"/>
<path d="M229.064 56.024V47.624C229.064 47.3533 229.055 47.078 229.036 46.798C229.017 46.518 228.989 46.238 228.952 45.958H230.184L230.338 47.582H230.184C230.324 47.0407 230.623 46.616 231.08 46.308C231.537 45.9907 232.083 45.832 232.718 45.832C233.343 45.832 233.889 45.9767 234.356 46.266C234.823 46.5553 235.182 46.9753 235.434 47.526C235.695 48.0673 235.826 48.716 235.826 49.472C235.826 50.228 235.695 50.8813 235.434 51.432C235.182 51.9827 234.823 52.4027 234.356 52.692C233.889 52.9813 233.343 53.126 232.718 53.126C232.093 53.126 231.551 52.972 231.094 52.664C230.646 52.3467 230.343 51.922 230.184 51.39H230.338V56.024H229.064ZM232.424 52.118C233.068 52.118 233.581 51.894 233.964 51.446C234.347 50.998 234.538 50.34 234.538 49.472C234.538 48.604 234.347 47.9507 233.964 47.512C233.581 47.0733 233.068 46.854 232.424 46.854C231.78 46.854 231.267 47.0733 230.884 47.512C230.511 47.9507 230.324 48.604 230.324 49.472C230.324 50.34 230.511 50.998 230.884 51.446C231.267 51.894 231.78 52.118 232.424 52.118ZM240.747 53.126C239.627 53.126 238.74 52.804 238.087 52.16C237.443 51.516 237.121 50.6293 237.121 49.5C237.121 48.7533 237.261 48.1093 237.541 47.568C237.83 47.0173 238.227 46.5927 238.731 46.294C239.235 45.986 239.823 45.832 240.495 45.832C241.139 45.832 241.685 45.972 242.133 46.252C242.581 46.5227 242.921 46.91 243.155 47.414C243.388 47.918 243.505 48.5153 243.505 49.206V49.626H238.115V48.87H242.637L242.399 49.052C242.399 48.324 242.235 47.7593 241.909 47.358C241.591 46.9567 241.12 46.756 240.495 46.756C239.813 46.756 239.286 46.994 238.913 47.47C238.539 47.9367 238.353 48.576 238.353 49.388V49.514C238.353 50.3727 238.563 51.0213 238.983 51.46C239.412 51.8987 240.005 52.118 240.761 52.118C241.181 52.118 241.573 52.0573 241.937 51.936C242.301 51.8147 242.651 51.614 242.987 51.334L243.407 52.216C243.089 52.5053 242.693 52.7293 242.217 52.888C241.75 53.0467 241.26 53.126 240.747 53.126ZM245.155 53V47.68C245.155 47.4 245.146 47.1153 245.127 46.826C245.118 46.5273 245.095 46.238 245.057 45.958H246.289L246.443 47.722L246.233 47.736C246.327 47.3067 246.485 46.952 246.709 46.672C246.943 46.3827 247.218 46.1727 247.535 46.042C247.862 45.902 248.198 45.832 248.543 45.832C248.693 45.832 248.819 45.8367 248.921 45.846C249.024 45.8553 249.127 45.8787 249.229 45.916L249.201 47.05C249.061 46.994 248.931 46.9613 248.809 46.952C248.697 46.9333 248.557 46.924 248.389 46.924C247.979 46.924 247.624 47.0173 247.325 47.204C247.036 47.3907 246.812 47.638 246.653 47.946C246.504 48.254 246.429 48.5853 246.429 48.94V53H245.155ZM254.043 53V47.624C254.043 47.3533 254.033 47.078 254.015 46.798C253.996 46.518 253.968 46.238 253.931 45.958H255.163L255.303 47.47H255.135C255.321 46.9473 255.62 46.546 256.031 46.266C256.441 45.9767 256.931 45.832 257.501 45.832C258.079 45.832 258.555 45.972 258.929 46.252C259.302 46.5227 259.554 46.952 259.685 47.54H259.475C259.652 47.0173 259.965 46.602 260.413 46.294C260.861 45.986 261.383 45.832 261.981 45.832C262.755 45.832 263.339 46.0607 263.731 46.518C264.123 46.966 264.319 47.666 264.319 48.618V53H263.045V48.688C263.045 48.044 262.933 47.582 262.709 47.302C262.485 47.0127 262.13 46.868 261.645 46.868C261.075 46.868 260.627 47.064 260.301 47.456C259.974 47.8387 259.811 48.3613 259.811 49.024V53H258.537V48.688C258.537 48.044 258.425 47.582 258.201 47.302C257.986 47.0127 257.631 46.868 257.137 46.868C256.567 46.868 256.119 47.064 255.793 47.456C255.475 47.8387 255.317 48.3613 255.317 49.024V53H254.043ZM269.37 53.126C268.679 53.126 268.082 52.9813 267.578 52.692C267.074 52.3933 266.682 51.9733 266.402 51.432C266.122 50.8813 265.982 50.228 265.982 49.472C265.982 48.7253 266.122 48.0813 266.402 47.54C266.682 46.9893 267.074 46.5693 267.578 46.28C268.082 45.9813 268.679 45.832 269.37 45.832C270.061 45.832 270.658 45.9813 271.162 46.28C271.675 46.5693 272.067 46.9893 272.338 47.54C272.618 48.0813 272.758 48.7253 272.758 49.472C272.758 50.228 272.618 50.8813 272.338 51.432C272.067 51.9733 271.675 52.3933 271.162 52.692C270.658 52.9813 270.061 53.126 269.37 53.126ZM269.37 52.118C270.005 52.118 270.513 51.894 270.896 51.446C271.279 50.998 271.47 50.34 271.47 49.472C271.47 48.604 271.279 47.9507 270.896 47.512C270.513 47.0733 270.005 46.854 269.37 46.854C268.726 46.854 268.213 47.0733 267.83 47.512C267.457 47.9507 267.27 48.604 267.27 49.472C267.27 50.34 267.457 50.998 267.83 51.446C268.213 51.894 268.726 52.118 269.37 52.118ZM274.468 53V47.624C274.468 47.3533 274.459 47.078 274.44 46.798C274.422 46.518 274.394 46.238 274.356 45.958H275.588L275.728 47.47H275.56C275.775 46.938 276.106 46.532 276.554 46.252C277.002 45.972 277.525 45.832 278.122 45.832C278.953 45.832 279.578 46.0607 279.998 46.518C280.418 46.966 280.628 47.666 280.628 48.618V53H279.354V48.688C279.354 48.044 279.228 47.582 278.976 47.302C278.724 47.0127 278.332 46.868 277.8 46.868C277.166 46.868 276.662 47.0593 276.288 47.442C275.924 47.8247 275.742 48.3427 275.742 48.996V53H274.468ZM285.344 53.126C284.607 53.126 284.047 52.9253 283.664 52.524C283.291 52.1133 283.104 51.4973 283.104 50.676V46.938H281.732V45.958H283.104V44.068L284.378 43.718V45.958H286.366V46.938H284.378V50.564C284.378 51.1053 284.472 51.4927 284.658 51.726C284.854 51.95 285.134 52.062 285.498 52.062C285.685 52.062 285.844 52.048 285.974 52.02C286.114 51.9827 286.24 51.9407 286.352 51.894V52.944C286.212 53 286.049 53.042 285.862 53.07C285.685 53.1073 285.512 53.126 285.344 53.126ZM287.703 53V42.696H288.977V47.484H288.795C289 46.9427 289.331 46.532 289.789 46.252C290.246 45.972 290.773 45.832 291.371 45.832C292.22 45.832 292.845 46.0607 293.247 46.518C293.657 46.9753 293.863 47.666 293.863 48.59V53H292.589V48.66C292.589 48.0347 292.467 47.582 292.225 47.302C291.982 47.0127 291.585 46.868 291.035 46.868C290.419 46.868 289.919 47.0593 289.537 47.442C289.163 47.8247 288.977 48.3333 288.977 48.968V53H287.703Z" fill="#6D6D6D"/>
</svg>
