<svg xmlns="http://www.w3.org/2000/svg" viewBox="0 0 4.233 4.233"><path d="M-69.722 3.847v1.421c0 .294-.236.53-.529.53h-2.248a.528.528 0 0 1-.53-.53V3.02c0-.293.236-.53.53-.53h1.425" transform="translate(73.426 -1.961)" fill="none" stroke="#8130f7" stroke-width=".264583" stroke-linecap="round" stroke-linejoin="round" paint-order="markers fill stroke" class="stroke-000000"></path><path d="m-72.411 4.683.363-.378c.166-.166.378-.149.5-.002.129.14.328.178.517-.004l.344-.38M-69.59 2.81a.452.452 0 0 1-.451.452.452.452 0 0 1-.452-.451.452.452 0 0 1 .452-.452.452.452 0 0 1 .451.452z" transform="translate(73.426 -1.961)" fill="none" stroke="#8130f7" stroke-width=".264583" stroke-linecap="round" stroke-linejoin="round" stroke-miterlimit="4" stroke-dasharray="none" stroke-opacity="1" paint-order="markers fill stroke" class="stroke-000000"></path></svg>