<svg width="113" height="110" viewBox="0 0 113 110" fill="none" xmlns="http://www.w3.org/2000/svg">
<path d="M113 84.4224H0V84.4789H113V84.4224Z" fill="#EBEBEB"/>
<path d="M53.5618 74.3427H9.92345C9.58159 74.3421 9.25394 74.2059 9.01242 73.964C8.7709 73.722 8.63525 73.3941 8.63525 73.0523V11.7091C8.63823 11.3692 8.77519 11.0442 9.01639 10.8047C9.25759 10.5652 9.58354 10.4305 9.92345 10.4299H53.5618C53.904 10.4299 54.2323 10.5659 54.4743 10.8079C54.7163 11.0499 54.8523 11.3781 54.8523 11.7204V73.0523C54.8523 73.3945 54.7163 73.7228 54.4743 73.9648C54.2323 74.2068 53.904 74.3427 53.5618 74.3427ZM9.92345 10.4751C9.59658 10.4757 9.2833 10.606 9.05237 10.8373C8.82145 11.0687 8.69175 11.3822 8.69175 11.7091V73.0523C8.69175 73.3791 8.82145 73.6927 9.05237 73.924C9.2833 74.1554 9.59658 74.2856 9.92345 74.2862H53.5618C53.8889 74.2856 54.2024 74.1554 54.4337 73.9242C54.665 73.6929 54.7952 73.3794 54.7958 73.0523V11.7091C54.7952 11.382 54.665 11.0685 54.4337 10.8372C54.2024 10.6059 53.8889 10.4757 53.5618 10.4751H9.92345Z" fill="#EBEBEB"/>
<path d="M102.448 74.3427H58.8075C58.4655 74.3421 58.1376 74.206 57.8957 73.9641C57.6538 73.7222 57.5177 73.3943 57.5171 73.0523V11.7091C57.5207 11.369 57.6581 11.044 57.8997 10.8045C58.1412 10.5651 58.4674 10.4305 58.8075 10.4299H102.448C102.788 10.4311 103.113 10.566 103.354 10.8055C103.594 11.0449 103.731 11.3696 103.734 11.7091V73.0523C103.734 73.3937 103.599 73.7213 103.358 73.9632C103.117 74.205 102.79 74.3415 102.448 74.3427ZM58.8075 10.4751C58.4805 10.4757 58.167 10.6059 57.9357 10.8372C57.7044 11.0685 57.5742 11.382 57.5736 11.7091V73.0523C57.5742 73.3794 57.7044 73.6929 57.9357 73.9242C58.167 74.1554 58.4805 74.2856 58.8075 74.2862H102.448C102.775 74.2856 103.089 74.1554 103.32 73.9242C103.551 73.6929 103.682 73.3794 103.682 73.0523V11.7091C103.682 11.382 103.551 11.0685 103.32 10.8372C103.089 10.6059 102.775 10.4757 102.448 10.4751H58.8075Z" fill="#EBEBEB"/>
<path d="M101.677 88.0586H95.8013V88.1151H101.677V88.0586Z" fill="#EBEBEB"/>
<path d="M80.4629 88.6733H70.2861V88.7298H80.4629V88.6733Z" fill="#EBEBEB"/>
<path d="M95.5755 85.9614H81.8369V86.0179H95.5755V85.9614Z" fill="#EBEBEB"/>
<path d="M16.2019 86.3411H11.856V86.3976H16.2019V86.3411Z" fill="#EBEBEB"/>
<path d="M30.7114 86.3411H18.2158V86.3976H30.7114V86.3411Z" fill="#EBEBEB"/>
<path d="M55.1754 87.2947H38.3452V87.3512H55.1754V87.2947Z" fill="#EBEBEB"/>
<path d="M15.2414 67.8384H10.4502V84.4223H15.2414V67.8384Z" fill="#FAFAFA"/>
<path d="M19.4362 71.4771H14.645V84.4223H19.4362V71.4771Z" fill="#FAFAFA"/>
<path d="M22.5007 60.8098H17.7095V84.4223H22.5007V60.8098Z" fill="#FAFAFA"/>
<path d="M25.6848 41.6631H20.8936V84.4223H25.6848V41.6631Z" fill="#FAFAFA"/>
<path d="M37.5363 44.9922H24.6792V84.4224H37.5363V44.9922Z" fill="#FAFAFA"/>
<path d="M87.5253 84.4224H92.999V73.0726H87.5253V84.4224Z" fill="#FAFAFA"/>
<path d="M82.7294 84.4224H88.2031V75.5632H82.7294V84.4224Z" fill="#FAFAFA"/>
<path d="M79.2309 84.4224H84.7046V68.2611H79.2309V84.4224Z" fill="#FAFAFA"/>
<path d="M75.5927 84.4224H81.0664V55.1576H75.5927V84.4224Z" fill="#FAFAFA"/>
<path d="M78.5349 48.6714H61.7363V84.4223H78.5349V48.6714Z" fill="#F0F0F0"/>
<path d="M76.9348 50.1697H76.1348V54.5202H76.9348V50.1697Z" fill="#F5F5F5"/>
<path d="M76.9348 56.9746H76.1348V61.3251H76.9348V56.9746Z" fill="#F5F5F5"/>
<path d="M76.9348 63.7773H76.1348V68.1278H76.9348V63.7773Z" fill="#F5F5F5"/>
<path d="M76.9348 70.5798H76.1348V74.9303H76.9348V70.5798Z" fill="#F5F5F5"/>
<path d="M76.9348 77.3848H76.1348V81.7353H76.9348V77.3848Z" fill="#F5F5F5"/>
<path d="M74.1008 50.1697H73.3008V54.5202H74.1008V50.1697Z" fill="#F5F5F5"/>
<path d="M74.1008 56.9746H73.3008V61.3251H74.1008V56.9746Z" fill="#F5F5F5"/>
<path d="M74.1008 63.7773H73.3008V68.1278H74.1008V63.7773Z" fill="#F5F5F5"/>
<path d="M74.1008 70.5798H73.3008V74.9303H74.1008V70.5798Z" fill="#F5F5F5"/>
<path d="M74.1008 77.3848H73.3008V81.7353H74.1008V77.3848Z" fill="#F5F5F5"/>
<path d="M71.2668 50.1697H70.4668V54.5202H71.2668V50.1697Z" fill="#F5F5F5"/>
<path d="M71.2668 56.9746H70.4668V61.3251H71.2668V56.9746Z" fill="#F5F5F5"/>
<path d="M71.2668 63.7773H70.4668V68.1278H71.2668V63.7773Z" fill="#F5F5F5"/>
<path d="M71.2668 70.5798H70.4668V74.9303H71.2668V70.5798Z" fill="#F5F5F5"/>
<path d="M71.2668 77.3848H70.4668V81.7353H71.2668V77.3848Z" fill="#F5F5F5"/>
<path d="M68.4328 50.1697H67.6328V54.5202H68.4328V50.1697Z" fill="#F5F5F5"/>
<path d="M68.4328 56.9746H67.6328V61.3251H68.4328V56.9746Z" fill="#F5F5F5"/>
<path d="M68.4328 63.7773H67.6328V68.1278H68.4328V63.7773Z" fill="#F5F5F5"/>
<path d="M68.4328 70.5798H67.6328V74.9303H68.4328V70.5798Z" fill="#F5F5F5"/>
<path d="M68.4328 77.3848H67.6328V81.7353H68.4328V77.3848Z" fill="#F5F5F5"/>
<path d="M65.5964 50.1697H64.7964V54.5202H65.5964V50.1697Z" fill="#F5F5F5"/>
<path d="M65.5964 56.9746H64.7964V61.3251H65.5964V56.9746Z" fill="#F5F5F5"/>
<path d="M65.5964 63.7773H64.7964V68.1278H65.5964V63.7773Z" fill="#F5F5F5"/>
<path d="M65.5964 70.5798H64.7964V74.9303H65.5964V70.5798Z" fill="#F5F5F5"/>
<path d="M65.5964 77.3848H64.7964V81.7353H65.5964V77.3848Z" fill="#F5F5F5"/>
<path opacity="0.5" d="M61.7363 48.6714H65.1964L66.7015 84.4223H61.7363V48.6714Z" fill="#E0E0E0"/>
<path d="M53.4785 34.8582L63.4406 36.743V84.4222H53.4785V34.8582Z" fill="#F0F0F0"/>
<path d="M53.4783 34.8582H45.5073V84.4222H53.4783V34.8582Z" fill="#E6E6E6"/>
<path d="M45.5073 39.22H63.4404V38.9668H45.5073V39.22Z" fill="#E0E0E0"/>
<path d="M45.5073 41.9185H63.4404V41.6653H45.5073V41.9185Z" fill="#E0E0E0"/>
<path d="M45.5073 44.6169H63.4404V44.3638H45.5073V44.6169Z" fill="#E0E0E0"/>
<path d="M45.5073 47.3132H63.4404V47.0601H45.5073V47.3132Z" fill="#E0E0E0"/>
<path d="M45.5073 50.0139H63.4404V49.7608H45.5073V50.0139Z" fill="#E0E0E0"/>
<path d="M45.5073 52.7122H63.4404V52.459H45.5073V52.7122Z" fill="#E0E0E0"/>
<path d="M45.5073 55.4106H63.4404V55.1575H45.5073V55.4106Z" fill="#E0E0E0"/>
<path d="M45.5073 58.1091H63.4404V57.856H45.5073V58.1091Z" fill="#E0E0E0"/>
<path d="M45.5073 60.8098H63.4404V60.5567H45.5073V60.8098Z" fill="#E0E0E0"/>
<path d="M45.5073 63.5083H63.4404V63.2552H45.5073V63.5083Z" fill="#E0E0E0"/>
<path d="M45.5073 66.2068H63.4404V65.9537H45.5073V66.2068Z" fill="#E0E0E0"/>
<path d="M45.5073 68.9028H63.4404V68.6497H45.5073V68.9028Z" fill="#E0E0E0"/>
<path d="M45.5073 71.6035H63.4404V71.3504H45.5073V71.6035Z" fill="#E0E0E0"/>
<path d="M45.5073 74.302H63.4404V74.0489H45.5073V74.302Z" fill="#E0E0E0"/>
<path d="M45.5073 77.0005H63.4404V76.7474H45.5073V77.0005Z" fill="#E0E0E0"/>
<path d="M45.5073 79.699H63.4404V79.4459H45.5073V79.699Z" fill="#E0E0E0"/>
<path d="M45.5073 82.3997H63.4404V82.1465H45.5073V82.3997Z" fill="#E0E0E0"/>
<path d="M41.1481 24.3245H32.8154V84.4224H41.1481V24.3245Z" fill="#F0F0F0"/>
<path d="M41.1481 24.3243H32.8154L35.8823 19.0178H47.8151L41.1481 24.3243Z" fill="#FAFAFA"/>
<path d="M41.1479 24.3243L47.8149 19.0178V84.4222H41.1479V24.3243Z" fill="#EBEBEB"/>
<path d="M47.8151 27.1245H32.8154V27.4454H47.8151V27.1245Z" fill="#E0E0E0"/>
<path d="M47.8151 30.5259H32.8154V30.8468H47.8151V30.5259Z" fill="#E0E0E0"/>
<path d="M47.8151 33.9272H32.8154V34.2482H47.8151V33.9272Z" fill="#E0E0E0"/>
<path d="M47.8151 37.3308H32.8154V37.6517H47.8151V37.3308Z" fill="#E0E0E0"/>
<path d="M47.8151 40.7319H32.8154V41.0529H47.8151V40.7319Z" fill="#E0E0E0"/>
<path d="M47.8151 44.1333H32.8154V44.4542H47.8151V44.1333Z" fill="#E0E0E0"/>
<path d="M47.8151 47.5347H32.8154V47.8556H47.8151V47.5347Z" fill="#E0E0E0"/>
<path d="M47.8151 50.9358H32.8154V51.2567H47.8151V50.9358Z" fill="#E0E0E0"/>
<path d="M47.8151 54.3372H32.8154V54.6581H47.8151V54.3372Z" fill="#E0E0E0"/>
<path d="M47.8151 57.7407H32.8154V58.0616H47.8151V57.7407Z" fill="#E0E0E0"/>
<path d="M47.8151 61.1421H32.8154V61.463H47.8151V61.1421Z" fill="#E0E0E0"/>
<path d="M47.8151 64.5435H32.8154V64.8644H47.8151V64.5435Z" fill="#E0E0E0"/>
<path d="M47.8151 67.9446H32.8154V68.2655H47.8151V67.9446Z" fill="#E0E0E0"/>
<path d="M47.8151 71.3459H32.8154V71.6669H47.8151V71.3459Z" fill="#E0E0E0"/>
<path d="M47.8151 74.7473H32.8154V75.0682H47.8151V74.7473Z" fill="#E0E0E0"/>
<path d="M47.8151 78.1509H32.8154V78.4718H47.8151V78.1509Z" fill="#E0E0E0"/>
<path d="M47.8151 81.5522H32.8154V81.8732H47.8151V81.5522Z" fill="#E0E0E0"/>
<path d="M31.369 53.406H22.2725V84.4222H31.369V53.406Z" fill="#F0F0F0"/>
<path d="M25.522 55.0085H24.062V59.9873H25.522V55.0085Z" fill="#E6E6E6"/>
<path d="M29.1045 55.0085H27.6445V59.9873H29.1045V55.0085Z" fill="#E6E6E6"/>
<path d="M25.522 61.4563H24.062V66.4351H25.522V61.4563Z" fill="#E6E6E6"/>
<path d="M29.1045 61.4563H27.6445V66.4351H29.1045V61.4563Z" fill="#E6E6E6"/>
<path d="M25.522 67.9016H24.062V72.8804H25.522V67.9016Z" fill="#E6E6E6"/>
<path d="M29.1045 67.9016H27.6445V72.8804H29.1045V67.9016Z" fill="#E6E6E6"/>
<path d="M25.522 74.3496H24.062V79.3284H25.522V74.3496Z" fill="#E6E6E6"/>
<path d="M29.1045 74.3496H27.6445V79.3284H29.1045V74.3496Z" fill="#E6E6E6"/>
<path d="M31.3667 53.4061H22.2725L24.4059 51.2568H33.5024L31.3667 53.4061Z" fill="white"/>
<path d="M31.3667 53.4061L33.5024 51.2568L35.6358 53.4061V84.4223H31.3667V53.4061Z" fill="#E6E6E6"/>
<path d="M56.4998 94.6286C80.7004 94.6286 100.319 93.4832 100.319 92.0703C100.319 90.6574 80.7004 89.512 56.4998 89.512C32.2992 89.512 12.6807 90.6574 12.6807 92.0703C12.6807 93.4832 32.2992 94.6286 56.4998 94.6286Z" fill="#F5F5F5"/>
<path d="M94.2304 23.895H65.4086C64.2491 23.895 63.3091 24.835 63.3091 25.9946V89.9684C63.3091 91.1279 64.2491 92.0679 65.4086 92.0679H94.2304C95.3899 92.0679 96.3299 91.1279 96.3299 89.9684V25.9946C96.3299 24.835 95.3899 23.895 94.2304 23.895Z" fill="#A985FF"/>
<path d="M92.9242 23.895H64.1025C62.9429 23.895 62.0029 24.835 62.0029 25.9946V89.9684C62.0029 91.1279 62.9429 92.0679 64.1025 92.0679H92.9242C94.0838 92.0679 95.0238 91.1279 95.0238 89.9684V25.9946C95.0238 24.835 94.0838 23.895 92.9242 23.895Z" fill="#A985FF"/>
<path opacity="0.7" d="M92.9242 23.895H64.1025C62.9429 23.895 62.0029 24.835 62.0029 25.9946V89.9684C62.0029 91.1279 62.9429 92.0679 64.1025 92.0679H92.9242C94.0838 92.0679 95.0238 91.1279 95.0238 89.9684V25.9946C95.0238 24.835 94.0838 23.895 92.9242 23.895Z" fill="white"/>
<g opacity="0.9">
<path d="M68.6314 23.895H66.8438V92.0679H68.6314V23.895Z" fill="white"/>
<path d="M87.5453 23.895H86.4492V92.0679H87.5453V23.895Z" fill="white"/>
<path d="M62.0029 38.7025V40.4902L95.0238 38.4449V36.6572L62.0029 38.7025Z" fill="white"/>
<path d="M62.0054 80.9352V82.7229H95.0262V80.9352H62.0054Z" fill="white"/>
<path d="M62.0029 47.6273V48.6013H95.0238V47.6273H62.0029Z" fill="white"/>
<path d="M62.0029 70.6725V72.72L95.0238 61.5466V59.499L62.0029 70.6725Z" fill="white"/>
<path d="M73.5762 23.895H71.7886L76.5933 92.0702H78.381L73.5762 23.895Z" fill="white"/>
</g>
<path d="M89.2697 85.0755H49.957V72.8218H84.6096L87.8437 75.4502C88.2907 75.8129 88.6508 76.2712 88.8976 76.7913C89.1444 77.3115 89.2715 77.8803 89.2697 78.456V85.0755Z" fill="#A985FF"/>
<path opacity="0.5" d="M89.2697 85.0755H49.957V72.8218H84.6096L87.8437 75.4502C88.2907 75.8129 88.6508 76.2712 88.8976 76.7913C89.1444 77.3115 89.2715 77.8803 89.2697 78.456V85.0755Z" fill="black"/>
<path d="M49.7313 83.9704C49.7313 79.4978 51.7653 75.8728 54.2513 75.8728H49.4555C46.9537 75.8728 44.9355 79.4888 44.9355 83.9704C44.9355 88.452 46.9695 92.0702 49.4555 92.0702H54.2603C51.754 92.0702 49.7313 88.4429 49.7313 83.9704Z" fill="#263238"/>
<path d="M54.26 92.068C56.7613 92.068 58.789 88.4425 58.789 83.9704C58.789 79.4982 56.7613 75.8728 54.26 75.8728C51.7587 75.8728 49.731 79.4982 49.731 83.9704C49.731 88.4425 51.7587 92.068 54.26 92.068Z" fill="#263238"/>
<path d="M54.6241 90.2846C56.3977 90.2846 57.8355 87.4576 57.8355 83.9702C57.8355 80.4828 56.3977 77.6558 54.6241 77.6558C52.8504 77.6558 51.4126 80.4828 51.4126 83.9702C51.4126 87.4576 52.8504 90.2846 54.6241 90.2846Z" fill="white"/>
<path d="M23.6258 83.9704C23.6258 79.4978 25.6598 75.8728 28.1458 75.8728H23.3501C20.8483 75.8728 18.8301 79.4888 18.8301 83.9704C18.8301 88.452 20.8641 92.0702 23.3501 92.0702H28.1548C25.653 92.0702 23.6258 88.4429 23.6258 83.9704Z" fill="#263238"/>
<path d="M28.155 92.068C30.6563 92.068 32.6841 88.4425 32.6841 83.9704C32.6841 79.4982 30.6563 75.8728 28.155 75.8728C25.6537 75.8728 23.626 79.4982 23.626 83.9704C23.626 88.4425 25.6537 92.068 28.155 92.068Z" fill="#263238"/>
<path d="M80.7679 83.9704C80.7679 79.4978 82.8019 75.8728 85.2879 75.8728H80.4922C77.9926 75.8728 75.9722 79.4888 75.9722 83.9704C75.9722 88.452 78.0062 92.0702 80.4922 92.0702H85.2969C82.7974 92.0702 80.7679 88.4429 80.7679 83.9704Z" fill="#263238"/>
<path d="M85.2966 92.068C87.7979 92.068 89.8257 88.4425 89.8257 83.9704C89.8257 79.4982 87.7979 75.8728 85.2966 75.8728C82.7953 75.8728 80.7676 79.4982 80.7676 83.9704C80.7676 88.4425 82.7953 92.068 85.2966 92.068Z" fill="#263238"/>
<path d="M85.6626 90.2846C87.4363 90.2846 88.8741 87.4576 88.8741 83.9702C88.8741 80.4828 87.4363 77.6558 85.6626 77.6558C83.889 77.6558 82.4512 80.4828 82.4512 83.9702C82.4512 87.4576 83.889 90.2846 85.6626 90.2846Z" fill="white"/>
<path d="M44.3794 86.2303H38.569L38.2435 85.9139C37.9093 85.5789 37.4557 85.3904 36.9825 85.3896H22.4597C21.9865 85.3904 21.5329 85.5789 21.1986 85.9139L20.9997 86.1106H20.4709C20.06 86.1106 19.6531 86.0294 19.2737 85.8717C18.8943 85.7139 18.5498 85.4828 18.26 85.1915C17.9701 84.9002 17.7407 84.5545 17.5849 84.1743C17.4291 83.7941 17.35 83.3868 17.3521 82.9759V78.196H50.3074L47.6858 83.8958C47.444 84.5792 46.9961 85.1708 46.4039 85.5889C45.8117 86.0071 45.1044 86.2312 44.3794 86.2303Z" fill="#A985FF"/>
<path opacity="0.2" d="M44.3794 86.2303H38.569L38.2435 85.9139C37.9093 85.5789 37.4557 85.3904 36.9825 85.3896H22.4597C21.9865 85.3904 21.5329 85.5789 21.1986 85.9139L20.9997 86.1106H20.4709C20.06 86.1106 19.6531 86.0294 19.2737 85.8717C18.8943 85.7139 18.5498 85.4828 18.26 85.1915C17.9701 84.9002 17.7407 84.5545 17.5849 84.1743C17.4291 83.7941 17.35 83.3868 17.3521 82.9759V78.196H50.3074L47.6858 83.8958C47.444 84.5792 46.9961 85.1708 46.4039 85.5889C45.8117 86.0071 45.1044 86.2312 44.3794 86.2303Z" fill="black"/>
<path d="M78.6838 57.8176C78.6639 57.818 78.6442 57.8125 78.6273 57.8018C78.6144 57.7945 78.6031 57.7847 78.594 57.773C78.5849 57.7613 78.5783 57.7479 78.5745 57.7335C78.5707 57.7192 78.5698 57.7043 78.5719 57.6896C78.574 57.6749 78.579 57.6608 78.5867 57.6481L80.1687 54.9361C80.1752 54.9217 80.1846 54.9088 80.1964 54.8983C80.2082 54.8878 80.2221 54.8798 80.2372 54.875C80.2522 54.8702 80.2681 54.8686 80.2839 54.8703C80.2996 54.872 80.3148 54.877 80.3284 54.8849C80.3421 54.8929 80.354 54.9036 80.3632 54.9164C80.3725 54.9292 80.379 54.9439 80.3822 54.9593C80.3855 54.9748 80.3854 54.9908 80.3821 55.0062C80.3788 55.0217 80.3723 55.0363 80.363 55.0491L78.781 57.7611C78.7712 57.7782 78.757 57.7924 78.74 57.8023C78.7229 57.8122 78.7036 57.8175 78.6838 57.8176Z" fill="#263238"/>
<path d="M87.0278 71.3097V68.2271C87.0278 66.6066 84.6729 58.9611 81.4343 57.5282C78.1957 56.0954 70.3603 55.4581 65.4244 55.7202C60.4886 55.9824 53.8984 66.3061 53.8984 66.3061L54.6149 75.1833C55.6183 75.1833 58.8139 74.8805 59.2818 83.6629C59.3131 84.282 59.5815 84.8654 60.0313 85.292C60.481 85.7187 61.0778 85.9559 61.6977 85.9545H78.9777C79.5581 85.9541 80.1189 85.7439 80.5566 85.3626C80.9944 84.9814 81.2796 84.4548 81.3597 83.8798C81.8117 80.7497 82.9914 75.1766 85.8368 75.1766C87.8323 75.1766 89.2629 76.8851 89.2629 78.8446C89.2635 76.6919 88.7407 74.5714 87.7397 72.6657L87.0278 71.3097Z" fill="#A985FF"/>
<path d="M47.3444 55.7202C38.3564 55.7202 28.1729 66.3061 28.1729 66.3061H53.9075C53.9075 66.3061 60.4909 55.9846 65.4335 55.7202H47.3444Z" fill="#A985FF"/>
<path opacity="0.4" d="M47.8962 55.7202C40.3252 55.7202 32.3836 63.2325 30.0671 65.5987C30.0095 65.6572 29.9706 65.7315 29.9552 65.8121C29.9397 65.8928 29.9485 65.9762 29.9804 66.0518C30.0123 66.1275 30.0659 66.192 30.1344 66.2372C30.2029 66.2825 30.2833 66.3064 30.3654 66.3061H51.1258C51.9613 66.3084 52.7857 66.1136 53.5318 65.7374C54.278 65.3612 54.9248 64.8142 55.4198 64.141C57.6526 61.099 61.9534 55.9078 65.4338 55.7202H47.8962Z" fill="white"/>
<path d="M53.9076 66.3062L44.402 73.8071L18.8211 73.7257C18.8211 73.7257 17.3521 75.8614 17.3521 78.196H50.3074C50.8475 76.7654 52.7414 75.1834 54.624 75.1834C54.624 72.5212 53.9076 66.3062 53.9076 66.3062Z" fill="#A985FF"/>
<path opacity="0.2" d="M47.6859 71.5967C47.6589 71.5964 47.6329 71.5865 47.6126 71.5687C47.5922 71.5508 47.579 71.5263 47.5752 71.4995C47.5713 71.4702 47.5791 71.4405 47.5968 71.4169C47.6146 71.3932 47.6409 71.3775 47.6701 71.373C49.9519 71.0031 52.0871 70.0098 53.8399 68.5028C54.1865 68.2113 54.412 67.8012 54.4726 67.3525C54.5332 66.9037 54.4245 66.4485 54.1676 66.0755C54.1582 66.0634 54.1514 66.0495 54.1476 66.0347C54.1437 66.0198 54.1429 66.0044 54.1452 65.9892C54.1476 65.974 54.1529 65.9595 54.1611 65.9465C54.1692 65.9335 54.1798 65.9223 54.1924 65.9135C54.205 65.9048 54.2193 65.8987 54.2343 65.8956C54.2493 65.8925 54.2648 65.8925 54.2798 65.8957C54.2948 65.8988 54.3091 65.9049 54.3216 65.9137C54.3342 65.9224 54.3449 65.9337 54.3529 65.9467C54.641 66.366 54.7628 66.8775 54.6947 67.3817C54.6266 67.8858 54.3735 68.3466 53.9846 68.6745C52.2011 70.2095 50.0271 71.2202 47.704 71.5945L47.6859 71.5967Z" fill="black"/>
<path d="M18.8213 73.7257C18.8213 73.7257 23.3142 68.4893 28.1732 66.3062H53.9078L44.4022 73.8071L18.8213 73.7257Z" fill="#A985FF"/>
<path d="M38.7206 73.7258H21.8452V74.2162H38.7206V73.7258Z" fill="#263238"/>
<path d="M38.3702 72.7448L39.2742 71.8408C39.4775 71.6378 39.7347 71.4973 40.0155 71.4362L46.8429 69.9492C47.0829 69.8967 47.3321 69.9044 47.5684 69.9718L47.9345 70.0735C48.1783 70.1421 48.4007 70.2713 48.581 70.4491C48.7614 70.6269 48.8938 70.8474 48.966 71.0901C49.0382 71.3328 49.0478 71.5899 48.9939 71.8373C48.94 72.0847 48.8243 72.3145 48.6577 72.5052L47.1887 74.1844C46.9354 74.4733 46.5813 74.6544 46.1988 74.6906L39.5702 75.2918C39.3513 75.3127 39.1304 75.285 38.9234 75.2108C38.7164 75.1366 38.5283 75.0176 38.3724 74.8624C38.0921 74.5815 37.9345 74.2009 37.9341 73.8041C37.9337 73.4072 38.0905 73.0263 38.3702 72.7448Z" fill="white"/>
<path d="M22.322 73.224L21.5739 71.825C21.4686 71.6291 21.3124 71.4652 21.1219 71.3504C20.9409 71.2419 20.735 71.1817 20.524 71.1758C20.3131 71.1698 20.1041 71.2183 19.9173 71.3165L19.3501 71.6149C19.0715 71.7622 18.8597 72.0104 18.7579 72.3087L18.4122 73.3324C18.3547 73.501 18.3344 73.68 18.3528 73.8572C18.3711 74.0343 18.4277 74.2054 18.5186 74.3586C18.6095 74.5117 18.7325 74.6434 18.8791 74.7444C19.0258 74.8455 19.1926 74.9135 19.3681 74.9438L20.9298 75.2128C21.1845 75.2569 21.4466 75.2197 21.6791 75.1065C21.9115 74.9934 22.1024 74.8099 22.2248 74.5822L22.3287 74.3901C22.4244 74.2104 22.4739 74.0098 22.4727 73.8062C22.4715 73.6026 22.4197 73.4025 22.322 73.224Z" fill="white"/>
<path opacity="0.4" d="M59.1645 66.6066H82.9578C83.1595 66.6067 83.3584 66.5596 83.5387 66.4691C83.719 66.3785 83.8755 66.2471 83.9959 66.0852C84.1162 65.9234 84.197 65.7356 84.2318 65.5369C84.2666 65.3382 84.2545 65.1341 84.1963 64.941C83.6539 63.133 82.6143 60.3057 81.0526 58.8638C80.879 58.705 80.6659 58.5957 80.4356 58.5474C77.631 57.9531 73.1223 57.5576 69.7775 57.327C68.2614 57.2233 66.7408 57.4492 65.3203 57.9891C63.8999 58.5291 62.6132 59.3703 61.5488 60.4549C60.2762 61.7405 59.1268 63.1425 58.1159 64.6427C57.9892 64.8327 57.9164 65.0536 57.9053 65.2818C57.8942 65.5099 57.9451 65.7368 58.0527 65.9383C58.1603 66.1398 58.3205 66.3084 58.5163 66.426C58.7121 66.5437 58.9361 66.6061 59.1645 66.6066Z" fill="white"/>
<path d="M43.7806 80.8446C43.7806 81.5859 43.0213 82.1893 42.0856 82.1893C41.15 82.1893 40.3906 81.5859 40.3906 80.8446C40.3906 80.1034 41.1477 79.5022 42.0856 79.5022C43.0235 79.5022 43.7806 80.1034 43.7806 80.8446Z" fill="#263238"/>
<path d="M30.1232 72.6997C30.6791 72.6997 30.9503 73.2692 30.7289 73.9698C30.5074 74.6704 29.8791 75.2422 29.3209 75.2422C28.7627 75.2422 28.4937 74.6727 28.7152 73.9698C28.9367 73.267 29.5672 72.6997 30.1232 72.6997Z" fill="#263238"/>
<path d="M18.7192 80.8446C18.7192 81.5859 18.4932 82.1893 18.2423 82.1893C17.9914 82.1893 17.7632 81.5859 17.7632 80.8446C17.7632 80.1034 17.9892 79.5022 18.2423 79.5022C18.4954 79.5022 18.7192 80.1034 18.7192 80.8446Z" fill="#263238"/>
<path d="M58.4321 66.392V65.6304C58.4319 65.4118 58.4804 65.1959 58.5742 64.9985C58.6679 64.8011 58.8045 64.6271 58.9741 64.4891C59.1436 64.3512 59.3418 64.2528 59.5542 64.2012C59.7666 64.1496 59.9878 64.146 60.2017 64.1907L63.099 64.7942C63.4298 64.8632 63.7267 65.044 63.9399 65.3062C64.1531 65.5683 64.2696 65.8959 64.2697 66.2338V66.392C64.2697 66.7818 64.115 67.1557 63.8396 67.4315C63.5642 67.7074 63.1905 67.8627 62.8007 67.8632H59.9034C59.5132 67.8632 59.139 67.7082 58.8631 67.4323C58.5871 67.1564 58.4321 66.7822 58.4321 66.392Z" fill="#263238"/>
<path d="M73.6757 57.6436C73.6757 57.6436 73.2892 57.6051 72.6157 57.5464C75.5944 63.6484 74.835 66.6067 74.835 66.6067H77.1086C77.1312 62.8913 73.6757 57.6436 73.6757 57.6436Z" fill="#263238"/>
<path opacity="0.2" d="M48.5536 63.8744C48.5075 64.3539 48.2846 64.7992 47.9282 65.1234C47.5719 65.4476 47.1076 65.6275 46.6258 65.6281H34.9122C34.0579 65.6281 33.7483 64.6744 34.3676 63.9648C35.4849 62.6924 36.6983 61.5077 37.9971 60.4211C40.2029 58.5634 42.942 57.5983 45.5026 57.7769L46.4699 57.8469C46.8873 57.8795 47.2831 58.046 47.5983 58.3217C47.9135 58.5974 48.1313 58.9675 48.2191 59.377C48.5609 60.85 48.6737 62.367 48.5536 63.8744Z" fill="#A985FF"/>
<path opacity="0.2" d="M75.1062 84.3478C75.0762 84.3478 75.0475 84.3359 75.0263 84.3147C75.0051 84.2935 74.9932 84.2648 74.9932 84.2348C74.9932 81.9477 76.1593 72.5167 76.4644 71.1042C76.7605 69.7324 76.7605 68.2001 76.4644 67.2034C76.456 67.1747 76.4594 67.1438 76.4738 67.1175C76.4882 67.0912 76.5125 67.0717 76.5413 67.0633C76.57 67.0555 76.6007 67.0592 76.6268 67.0735C76.6529 67.0879 76.6725 67.1117 76.6814 67.1402C76.9865 68.1707 76.9865 69.746 76.6814 71.1517C76.3763 72.5574 75.2146 81.9567 75.2146 84.2348C75.2147 84.264 75.2034 84.2921 75.1832 84.3132C75.1629 84.3342 75.1353 84.3466 75.1062 84.3478Z" fill="black"/>
<path opacity="0.2" d="M74.806 71.2239H72.0511C71.9988 71.2256 71.9468 71.2152 71.8992 71.1937C71.8516 71.1721 71.8095 71.1398 71.7763 71.0994C71.7431 71.059 71.7196 71.0115 71.7077 70.9606C71.6958 70.9097 71.6957 70.8567 71.7075 70.8058L71.764 70.4871C71.7868 70.3724 71.8476 70.2688 71.9366 70.1929C72.0256 70.117 72.1376 70.0734 72.2545 70.069H75.0094C75.0617 70.0673 75.1136 70.0777 75.1613 70.0992C75.2089 70.1208 75.2509 70.1531 75.2841 70.1935C75.3173 70.2339 75.3408 70.2814 75.3527 70.3323C75.3646 70.3832 75.3647 70.4362 75.3529 70.4871L75.2964 70.8058C75.2736 70.9205 75.2128 71.0241 75.1238 71.1C75.0348 71.1759 74.9229 71.2195 74.806 71.2239Z" fill="black"/>
<path d="M83.141 36.9805H82.915C82.9151 36.4051 82.8321 35.8327 82.6687 35.281L82.8947 35.2177C83.0614 35.7904 83.1444 36.3841 83.141 36.9805ZM82.1669 34.09C81.6493 33.161 80.8933 32.3869 79.9768 31.8475C79.0603 31.308 78.0166 31.0227 76.9531 31.0209V30.7949C78.057 30.796 79.1406 31.092 80.0918 31.6522C81.043 32.2125 81.8273 33.0166 82.3636 33.9815L82.1669 34.09Z" fill="#A985FF"/>
<path d="M76.9529 31.5859C75.5226 31.5865 74.151 32.1552 73.1398 33.1668C72.1286 34.1784 71.5605 35.5502 71.5605 36.9806C71.5605 42.1786 76.9529 45.7403 76.9529 45.7403C76.9529 45.7403 82.3498 42.1763 82.3498 36.9806C82.3492 35.5496 81.7803 34.1775 80.7683 33.1658C79.7562 32.1542 78.3839 31.5859 76.9529 31.5859ZM76.9529 39.5208C76.4551 39.5204 75.9685 39.3723 75.5548 39.0954C75.1411 38.8185 74.8187 38.4251 74.6285 37.9651C74.4383 37.505 74.3888 36.9988 74.4862 36.5106C74.5836 36.0224 74.8235 35.574 75.1757 35.2221C75.5279 34.8702 75.9765 34.6307 76.4648 34.5337C76.9531 34.4368 77.4592 34.4868 77.9191 34.6774C78.379 34.868 78.7721 35.1907 79.0487 35.6047C79.3252 36.0186 79.4728 36.5053 79.4728 37.0032C79.4728 37.334 79.4076 37.6615 79.2809 37.9671C79.1543 38.2727 78.9686 38.5504 78.7346 38.7842C78.5006 39.018 78.2228 39.2034 77.9171 39.3298C77.6113 39.4562 77.2837 39.5211 76.9529 39.5208Z" fill="#A985FF"/>
<path d="M67.3413 91.7266L68.7064 91.704L69.0996 88.54L67.7368 88.5626L67.3413 91.7266Z" fill="#B55B52"/>
<path d="M73.8568 91.625L75.1812 91.2205L74.3585 88.2214L73.0342 88.6282L73.8568 91.625Z" fill="#B55B52"/>
<path d="M75.1404 90.8226L73.6623 91.5842C73.6383 91.5971 73.6194 91.6178 73.6087 91.6428C73.598 91.6679 73.5962 91.6959 73.6036 91.7221L73.92 92.9222C73.9276 92.9513 73.9418 92.9783 73.9614 93.0012C73.9811 93.024 74.0056 93.0421 74.0333 93.0541C74.0609 93.066 74.0909 93.0716 74.121 93.0703C74.1511 93.0689 74.1805 93.0608 74.207 93.0465C74.6793 92.7933 75.0115 92.5945 75.6104 92.2758C75.9788 92.086 77.1088 91.5526 77.6173 91.2882C78.1258 91.0238 77.9337 90.4881 77.7032 90.5514C76.6636 90.8294 75.8138 90.9108 75.3754 90.7955C75.2964 90.7747 75.2125 90.7844 75.1404 90.8226Z" fill="#263238"/>
<path d="M68.7335 91.5459L67.2441 91.5708C67.2173 91.5713 67.1914 91.581 67.1709 91.5983C67.1503 91.6155 67.1363 91.6393 67.1311 91.6657L66.8803 92.8816C66.8737 92.9109 66.8739 92.9414 66.8809 92.9706C66.888 92.9998 66.9016 93.0271 66.9208 93.0502C66.94 93.0733 66.9643 93.0918 66.9917 93.1041C67.0192 93.1164 67.0491 93.1222 67.0791 93.1211C67.617 93.103 68.3922 93.0601 69.0679 93.0488C69.8567 93.0375 70.0872 93.0691 71.0138 93.0488C71.572 93.0488 71.7189 92.4702 71.4839 92.4228C70.4126 92.1968 69.9945 92.1968 69.0657 91.6408C68.965 91.581 68.8505 91.5483 68.7335 91.5459Z" fill="#263238"/>
<path d="M70.8059 50.2173C71.1155 50.8388 71.4658 51.4964 71.8161 52.1225C72.1664 52.7485 72.5371 53.3722 72.9326 53.9576C73.0343 54.1022 73.1292 54.2536 73.2332 54.3915L73.4885 54.7395C73.5405 54.8073 73.5699 54.839 73.5789 54.8548C73.588 54.8706 73.5925 54.8932 73.658 54.8977C73.898 54.8544 74.1211 54.7448 74.3021 54.5813C74.4264 54.4864 74.553 54.3779 74.6773 54.2627C74.8016 54.1474 74.9259 54.0141 75.0344 53.9079L75.9361 54.4096C75.8609 54.6092 75.7718 54.8033 75.6694 54.9904C75.5685 55.1819 75.4521 55.3648 75.3214 55.5373C75.1823 55.7258 75.0232 55.8986 74.8468 56.0526C74.6372 56.2391 74.3941 56.384 74.1304 56.4797C73.8 56.6003 73.4413 56.62 73.0998 56.5362C72.7797 56.4578 72.4834 56.3026 72.2365 56.0842C72.1819 56.0382 72.1298 55.9891 72.0805 55.9373L72.0082 55.8628L71.9563 55.804L71.7574 55.578C71.624 55.4266 71.502 55.2706 71.3754 55.126C70.8927 54.5053 70.4474 53.8562 70.042 53.1824C69.8432 52.8479 69.6465 52.5044 69.4657 52.1677C69.2849 51.8309 69.1086 51.4897 68.9414 51.1077L70.8059 50.2173Z" fill="#B55B52"/>
<path d="M68.3606 50.2262C67.9922 51.4783 70.5799 54.8886 70.5799 54.8886L73.1902 53.2094C72.699 52.1247 72.0929 51.0958 71.3822 50.1404C70.3133 48.7776 68.7629 48.8499 68.3606 50.2262Z" fill="#A985FF"/>
<g opacity="0.2">
<path d="M68.3606 50.2262C67.9922 51.4783 70.5799 54.8886 70.5799 54.8886L73.1902 53.2094C72.699 52.1247 72.0929 51.0958 71.3822 50.1404C70.3133 48.7776 68.7629 48.8499 68.3606 50.2262Z" fill="black"/>
</g>
<path opacity="0.2" d="M69.9516 51.6953C70.4872 51.9213 71.2782 53.2185 71.6895 54.1813L70.5821 54.8932C69.9624 54.0659 69.4056 53.1934 68.9165 52.2829C69.2668 51.8941 69.6668 51.5755 69.9516 51.6953Z" fill="black"/>
<path d="M74.8784 54.1518L75.8231 52.624L76.648 53.9416C76.4495 54.2931 76.1272 54.5582 75.744 54.6851L74.8784 54.1518Z" fill="#B55B52"/>
<path d="M77.1407 52.6399V53.1122C77.1408 53.2598 77.0896 53.4027 76.9961 53.5168L76.6525 53.9417L75.8276 52.6241L76.6797 52.3145C76.7318 52.296 76.7875 52.2904 76.8423 52.2979C76.897 52.3055 76.9492 52.3261 76.9943 52.358C77.0395 52.3898 77.0763 52.4321 77.1018 52.4811C77.1273 52.5302 77.1406 52.5846 77.1407 52.6399Z" fill="#B55B52"/>
<path d="M76.2185 54.5925L74.7314 54.5699L75.5541 51.4895L77.0412 51.5121L76.2185 54.5925Z" fill="#A985FF"/>
<path d="M76.3699 54.5925L74.8828 54.5699L75.7055 51.4895L77.1925 51.5121L76.3699 54.5925Z" fill="#263238"/>
<path opacity="0.2" d="M69.0997 88.5422L68.8963 90.1717L67.5312 90.1943L67.7346 88.5626L69.0997 88.5422Z" fill="black"/>
<path opacity="0.2" d="M73.0342 88.6282L74.3608 88.2214L74.7834 89.7673L73.4568 90.1741L73.0342 88.6282Z" fill="black"/>
<path d="M62.6018 50.884C63.716 55.6797 63.4742 60.437 63.5962 61.4631L70.8712 60.9207C71.5695 53.1259 69.9152 49.1687 69.9152 49.1687C69.9152 49.1687 69.4474 49.0783 68.8123 49.0127C68.6134 48.9924 68.3965 48.9743 68.1727 48.963C68.0484 48.963 67.9241 48.9517 67.7953 48.9495C66.7613 48.9655 65.729 49.041 64.7036 49.1755C64.5093 49.2003 64.3126 49.2274 64.1205 49.2591L63.6053 49.354H63.5849C63.4184 49.3871 63.2603 49.4534 63.12 49.549C62.9797 49.6445 62.8601 49.7674 62.7684 49.9102C62.6766 50.053 62.6146 50.2128 62.5859 50.3801C62.5573 50.5475 62.5627 50.7188 62.6018 50.884Z" fill="#A985FF"/>
<g opacity="0.2">
<path d="M62.6018 50.884C63.716 55.6797 63.4742 60.437 63.5962 61.4631L70.8712 60.9207C71.5695 53.1259 69.9152 49.1687 69.9152 49.1687C69.9152 49.1687 69.4474 49.0783 68.8123 49.0127C68.6134 48.9924 68.3965 48.9743 68.1727 48.963C68.0484 48.963 67.9241 48.9517 67.7953 48.9495C66.7613 48.9655 65.729 49.041 64.7036 49.1755C64.5093 49.2003 64.3126 49.2274 64.1205 49.2591L63.6053 49.354H63.5849C63.4184 49.3871 63.2603 49.4534 63.12 49.549C62.9797 49.6445 62.8601 49.7674 62.7684 49.9102C62.6766 50.053 62.6146 50.2128 62.5859 50.3801C62.5573 50.5475 62.5627 50.7188 62.6018 50.884Z" fill="black"/>
</g>
<path opacity="0.2" d="M63.8338 51.8965L62.9976 52.97C62.9987 52.9835 62.9987 52.9971 62.9976 53.0107C63.1151 53.7384 63.2055 54.4503 63.2733 55.1373C64.0756 54.1497 63.9581 52.3666 63.8338 51.8965Z" fill="black"/>
<path d="M65.054 47.0555C65.228 47.7878 65.2167 48.6014 64.6924 49.1845C65.2732 49.6817 66.0258 50.2489 67.21 50.2037C68.3943 50.1585 68.1298 49.3585 67.7841 48.9539C66.7738 48.7912 66.7716 48.1336 66.7625 47.4104C66.7621 47.3372 66.7384 47.266 66.695 47.2071C66.6515 47.1482 66.5905 47.1047 66.5207 47.0827L65.4088 46.7256C65.3618 46.7106 65.3117 46.7083 65.2636 46.7191C65.2154 46.7299 65.171 46.7532 65.1349 46.7868C65.0988 46.8204 65.0723 46.863 65.058 46.9102C65.0438 46.9574 65.0424 47.0076 65.054 47.0555Z" fill="#B55B52"/>
<path d="M68.2518 54.8774C67.6416 54.8774 67.0789 54.1452 66.9681 53.2095C66.9248 52.9618 66.9324 52.7078 66.9902 52.463C67.0481 52.2183 67.1552 51.9878 67.3049 51.7857C67.3755 51.7005 67.4638 51.6317 67.5637 51.584C67.6637 51.5364 67.7728 51.5112 67.8834 51.51C68.4914 51.51 69.0564 52.2422 69.1649 53.1779C69.2083 53.4255 69.2011 53.6794 69.1436 53.9241C69.0861 54.1688 68.9796 54.3993 68.8304 54.6017C68.7593 54.6864 68.6708 54.7548 68.571 54.8023C68.4712 54.8499 68.3624 54.8755 68.2518 54.8774ZM67.8857 51.736C67.8069 51.7374 67.7294 51.7561 67.6587 51.7909C67.588 51.8257 67.5258 51.8756 67.4766 51.9371C67.3493 52.1156 67.259 52.3177 67.2108 52.5315C67.1627 52.7453 67.1578 52.9666 67.1964 53.1824C67.2891 53.9802 67.7727 54.6514 68.2541 54.6514C68.3332 54.6504 68.4112 54.6318 68.4823 54.597C68.5534 54.5622 68.616 54.5121 68.6654 54.4503C68.7922 54.2716 68.8823 54.0695 68.9304 53.8558C68.9786 53.642 68.9837 53.4208 68.9456 53.205C68.8575 52.4072 68.3739 51.736 67.8947 51.736H67.8857Z" fill="#A985FF"/>
<path opacity="0.2" d="M66.7652 47.4509L65.6465 47.5956C65.6713 47.6453 65.703 47.6927 65.7324 47.7402C65.9448 48.0792 66.4104 48.3029 66.894 48.3843C66.7893 48.0849 66.7455 47.7675 66.7652 47.4509Z" fill="black"/>
<path d="M68.2158 44.556C68.8373 44.6599 69.999 43.9548 69.7278 43.0146C69.3797 43.4508 68.2158 43.3039 68.2158 43.3039V44.556Z" fill="#263238"/>
<path d="M65.7886 45.5504C65.8564 46.1787 65.0813 47.2974 64.1592 46.9697C64.6112 46.6488 64.5389 45.4758 64.5389 45.4758L65.7886 45.5504Z" fill="#263238"/>
<path d="M64.8779 44.33C64.7107 45.6724 64.5435 46.4521 65.0881 47.268C65.904 48.4816 67.6577 48.1719 68.2227 46.9131C68.7312 45.7831 68.9188 43.7695 67.7165 42.9966C67.4531 42.8257 67.1506 42.7249 66.8374 42.7035C66.5242 42.6821 66.2108 42.741 65.9267 42.8744C65.6426 43.0079 65.3972 43.2116 65.2136 43.4663C65.0301 43.7209 64.9146 44.0182 64.8779 44.33Z" fill="#B55B52"/>
<path d="M64.6926 45.6859C65.0203 46.0317 65.922 44.6192 65.757 44.1039C66.096 44.2531 66.7469 43.9683 66.7062 43.4078C67.721 43.9502 69.1922 44.3796 69.2148 43.4078C69.2374 42.436 68.3108 41.7015 67.4068 41.6247C67.5153 41.9162 67.2283 42.0405 66.6384 41.9162C66.0485 41.7919 63.775 40.7455 64.0258 42.836C63.1761 42.8858 63.0654 43.9615 64.6926 45.6859Z" fill="#263238"/>
<path d="M64.0282 45.164C64.0752 45.5011 64.254 45.8059 64.5254 46.0115C64.887 46.2804 65.113 45.9956 65.1469 45.5708C65.1785 45.1866 65.1469 44.5854 64.7152 44.4837C64.6213 44.4632 64.5238 44.4665 64.4316 44.4934C64.3393 44.5202 64.2552 44.5696 64.1869 44.6372C64.1187 44.7048 64.0684 44.7884 64.0406 44.8804C64.0129 44.9724 64.0086 45.0699 64.0282 45.164Z" fill="#B55B52"/>
<path d="M66.0781 61.2799L70.8602 60.925C70.8602 60.925 71.4795 70.7402 71.432 74.9009C71.3845 79.231 69.398 89.8463 69.398 89.8463L67.0883 89.8824C67.0883 89.8824 67.2713 79.5859 67.2713 75.3348C67.2713 69.6102 66.0713 61.2799 66.0713 61.2799" fill="#263238"/>
<path opacity="0.2" d="M67.9268 71.4839C67.99 71.7664 69.7687 79.7238 70.3427 84.3659C70.6478 82.4358 70.9619 80.2685 71.1744 78.3543L67.9268 71.4839Z" fill="black"/>
<path d="M68.279 61.1194C68.279 61.1194 71.9199 70.0373 72.7403 73.9494C73.6443 78.2321 75.0794 89.0643 75.0794 89.0643L72.6092 89.4485C72.6092 89.4485 70.7402 81.3509 69.6938 77.2151C68.505 72.5007 63.7907 65.036 63.5918 61.4674L68.279 61.1194Z" fill="#263238"/>
<path d="M75.3891 89.2746L72.3201 89.9933L71.9336 88.8113L75.2852 88.2373L75.3891 89.2746Z" fill="#A985FF"/>
<path d="M69.6964 89.8984L66.9437 89.9414L66.9302 89.0532L70.0038 88.9583L69.6964 89.8984Z" fill="#A985FF"/>
<path d="M66.7494 45.0259C66.729 45.1344 66.7697 45.2316 66.8398 45.2519C66.9098 45.2722 66.9844 45.1886 67.0048 45.0801C67.0251 44.9717 66.9844 44.8745 66.9121 44.8541C66.8398 44.8338 66.7697 44.9174 66.7494 45.0259Z" fill="#263238"/>
<path d="M68.0873 45.3108C68.0669 45.417 68.1076 45.5164 68.1777 45.5368C68.2477 45.5571 68.3223 45.4735 68.3427 45.365C68.363 45.2565 68.3223 45.1571 68.2523 45.139C68.1822 45.1209 68.1076 45.2023 68.0873 45.3108Z" fill="#263238"/>
<path d="M67.6462 45.2837C67.7133 45.6383 67.8289 45.9821 67.9897 46.3052C67.9058 46.3441 67.8144 46.3642 67.7219 46.3642C67.6294 46.3642 67.538 46.3441 67.4541 46.3052L67.6462 45.2837Z" fill="#A02724"/>
<path d="M67.2262 46.6373C67.1052 46.6122 66.9906 46.5625 66.8895 46.4914C66.7884 46.4202 66.703 46.3291 66.6386 46.2237C66.6345 46.2159 66.6337 46.2068 66.6362 46.1983C66.6387 46.1899 66.6444 46.1828 66.6521 46.1785C66.6597 46.1751 66.6683 46.1746 66.6762 46.1771C66.6841 46.1796 66.6908 46.1849 66.6951 46.1921C66.7687 46.3075 66.8684 46.404 66.9862 46.4739C67.1039 46.5438 67.2365 46.585 67.3731 46.5943C67.3803 46.5962 67.3867 46.6005 67.3913 46.6064C67.3958 46.6124 67.3983 46.6196 67.3983 46.6271C67.3983 46.6346 67.3958 46.6419 67.3913 46.6478C67.3867 46.6537 67.3803 46.658 67.3731 46.6599C67.3235 46.6566 67.2744 46.649 67.2262 46.6373Z" fill="#263238"/>
<path d="M66.6157 44.5423C66.6052 44.5376 66.5953 44.5315 66.5864 44.5242C66.5751 44.5114 66.5688 44.4949 66.5688 44.4778C66.5688 44.4608 66.5751 44.4443 66.5864 44.4315C66.6611 44.3611 66.7515 44.3094 66.8501 44.2807C66.9487 44.252 67.0528 44.2472 67.1536 44.2665C67.1699 44.2713 67.1838 44.2822 67.1922 44.2969C67.2006 44.3117 67.203 44.3292 67.1988 44.3456C67.1946 44.3618 67.1841 44.3756 67.1697 44.3841C67.1553 44.3925 67.1382 44.395 67.122 44.3908C67.0411 44.3763 66.9579 44.3812 66.8793 44.4052C66.8007 44.4291 66.729 44.4715 66.67 44.5287C66.6625 44.5348 66.6537 44.5392 66.6444 44.5415C66.635 44.5439 66.6252 44.5441 66.6157 44.5423Z" fill="#263238"/>
<path d="M68.808 44.9741C68.7977 44.9707 68.7883 44.9648 68.7808 44.9569C68.7733 44.949 68.7679 44.9394 68.7651 44.9289C68.7468 44.85 68.7097 44.7768 68.6569 44.7154C68.6042 44.654 68.5374 44.6063 68.4622 44.5763C68.4458 44.5711 68.4321 44.5596 68.4241 44.5444C68.416 44.5292 68.4143 44.5114 68.4193 44.4949C68.4245 44.4785 68.4359 44.4648 68.4512 44.4568C68.4664 44.4488 68.4842 44.447 68.5006 44.452C68.5973 44.4901 68.6832 44.5512 68.7509 44.6299C68.8186 44.7087 68.8661 44.8028 68.8894 44.904C68.8921 44.9122 68.8931 44.9208 68.8922 44.9294C68.8914 44.9379 68.8888 44.9462 68.8845 44.9537C68.8802 44.9612 68.8744 44.9676 68.8675 44.9727C68.8605 44.9778 68.8526 44.9813 68.8442 44.9831C68.8314 44.9849 68.8184 44.9817 68.808 44.9741Z" fill="#263238"/>
<path d="M75.651 90.8272C75.543 90.8798 75.4292 90.92 75.312 90.9469C75.3072 90.9508 75.3013 90.9529 75.2951 90.9529C75.2889 90.9529 75.2829 90.9508 75.2781 90.9469C75.2744 90.9416 75.2725 90.9353 75.2725 90.9289C75.2725 90.9224 75.2744 90.9161 75.2781 90.9108C75.3075 90.861 75.5742 90.4181 75.7437 90.4181C75.7628 90.4181 75.7816 90.4233 75.798 90.4333C75.8143 90.4433 75.8276 90.4576 75.8364 90.4746C75.8541 90.5013 75.865 90.532 75.8681 90.5639C75.8713 90.5958 75.8666 90.628 75.8544 90.6577C75.8067 90.7346 75.7353 90.794 75.651 90.8272ZM75.3731 90.8633C75.5387 90.8388 75.6889 90.7524 75.7934 90.6215C75.8014 90.6011 75.8041 90.579 75.8013 90.5573C75.7986 90.5356 75.7904 90.5149 75.7776 90.4972C75.764 90.4746 75.7527 90.4723 75.7414 90.4723C75.6533 90.4723 75.4838 90.6916 75.3731 90.8633Z" fill="#A985FF"/>
<path d="M75.3193 90.9447H75.3012C75.2954 90.9438 75.2899 90.9414 75.2851 90.9379C75.2804 90.9344 75.2766 90.9297 75.2741 90.9244C75.192 90.7473 75.1652 90.5496 75.1973 90.3571C75.2067 90.3339 75.2208 90.313 75.2387 90.2955C75.2566 90.278 75.2779 90.2643 75.3012 90.2554C75.3228 90.2446 75.3474 90.2416 75.3709 90.247C75.3944 90.2523 75.4153 90.2657 75.43 90.2848C75.5272 90.4068 75.43 90.7978 75.3306 90.9311C75.3297 90.934 75.3283 90.9367 75.3263 90.9391C75.3244 90.9414 75.322 90.9433 75.3193 90.9447ZM75.3193 90.3277C75.2948 90.3402 75.2755 90.361 75.2651 90.3865C75.238 90.5392 75.2569 90.6965 75.3193 90.8385C75.3939 90.678 75.4459 90.3978 75.3894 90.3277C75.3894 90.3277 75.3713 90.3051 75.3329 90.3277H75.3193Z" fill="#A985FF"/>
<path d="M68.8715 91.7335C68.8656 91.7311 68.8606 91.7271 68.857 91.7218C68.8535 91.7166 68.8516 91.7104 68.8516 91.7041C68.8516 91.6978 68.8535 91.6916 68.857 91.6864C68.8606 91.6811 68.8656 91.6771 68.8715 91.6747C68.9325 91.6408 69.4771 91.3538 69.6444 91.4487C69.6597 91.4575 69.6727 91.4699 69.6822 91.4849C69.6916 91.4999 69.6973 91.5169 69.6986 91.5346C69.702 91.5637 69.6985 91.5933 69.6883 91.6208C69.6781 91.6483 69.6615 91.673 69.6399 91.6928C69.493 91.8261 69.102 91.7787 68.8805 91.738L68.8715 91.7335ZM69.6082 91.4962C69.391 91.5087 69.18 91.5738 68.9935 91.686C69.1958 91.7437 69.4121 91.7277 69.6037 91.6408C69.6181 91.6275 69.629 91.6109 69.6353 91.5923C69.6416 91.5738 69.6432 91.5539 69.6399 91.5346C69.6401 91.5276 69.6383 91.5206 69.6347 91.5146C69.6311 91.5086 69.6258 91.5038 69.6195 91.5007L69.6082 91.4962Z" fill="#A985FF"/>
<path d="M68.8715 91.7334C68.8671 91.7299 68.8636 91.7254 68.8612 91.7203C68.8589 91.7152 68.8578 91.7097 68.8579 91.7041C68.8699 91.5111 68.9409 91.3265 69.0613 91.1752C69.1109 91.133 69.175 91.1119 69.2399 91.1164C69.3303 91.1164 69.3551 91.1707 69.3619 91.2069C69.389 91.3605 69.0681 91.6589 68.9099 91.7357C68.9041 91.7396 68.8973 91.7415 68.8903 91.7411C68.8834 91.7407 68.8768 91.738 68.8715 91.7334ZM69.258 91.1843C69.2476 91.1814 69.2367 91.1814 69.2263 91.1843C69.2027 91.1815 69.1787 91.184 69.1561 91.1914C69.1334 91.1988 69.1127 91.211 69.0952 91.2272C68.9949 91.3467 68.9341 91.4943 68.9212 91.6498C69.0884 91.5481 69.3054 91.3108 69.2896 91.2204C69.2896 91.2069 69.2851 91.1933 69.258 91.1843Z" fill="#A985FF"/>
<path d="M64.7739 51.3089C64.3219 52.1112 63.8699 52.9677 63.4631 53.8107C63.0533 54.6347 62.7022 55.4866 62.4122 56.36C62.3783 56.4662 62.3534 56.5702 62.3218 56.6741C62.3105 56.7216 62.2902 56.7894 62.2834 56.821C62.276 56.8471 62.27 56.8735 62.2653 56.9001C62.2458 57.0422 62.2497 57.1865 62.2766 57.3273C62.3676 57.7142 62.5161 58.0852 62.7173 58.4279C63.1864 59.2178 63.733 59.959 64.349 60.6404L63.6936 61.4269C62.8195 60.849 62.043 60.1357 61.3929 59.3138C61.0308 58.856 60.7502 58.3392 60.5635 57.7861C60.4559 57.4559 60.4077 57.1093 60.4211 56.7623C60.4211 56.6696 60.4392 56.5724 60.4505 56.4798C60.4618 56.3871 60.4754 56.3397 60.4889 56.2673C60.5161 56.1363 60.5409 55.9984 60.5703 55.8696C60.8235 54.8658 61.1669 53.887 61.5963 52.9451C62.0084 52.0196 62.4763 51.12 62.9975 50.2512L64.7739 51.3089Z" fill="#B55B52"/>
<path d="M63.3547 49.4579C62.0958 49.8037 60.8687 53.3406 60.8687 53.3406L63.8993 54.1813C64.4303 53.4367 64.854 52.6211 65.1581 51.7586C65.7955 50.0387 64.8779 49.0421 63.3547 49.4579Z" fill="#A985FF"/>
<g opacity="0.2">
<path d="M63.3547 49.4579C62.0958 49.8037 60.8687 53.3406 60.8687 53.3406L63.8993 54.1813C64.4303 53.4367 64.854 52.6211 65.1581 51.7586C65.7955 50.0387 64.8779 49.0421 63.3547 49.4579Z" fill="black"/>
</g>
<path d="M63.7682 60.4075L65.1513 60.7713L64.6021 62.0708C64.6021 62.0708 63.3614 61.8087 63.3682 61.1329L63.7682 60.4075Z" fill="#B55B52"/>
<path d="M65.6823 61.6529L65.2733 62.6812L64.6021 62.071L65.1512 60.7715L65.6823 61.6529Z" fill="#B55B52"/>
</svg>
