<svg width="311" height="76" viewBox="0 0 311 76" fill="none" xmlns="http://www.w3.org/2000/svg">
<rect x="0.5" y="0.5" width="310" height="75" rx="7.5" fill="white"/>
<rect x="0.5" y="0.5" width="310" height="75" rx="7.5" stroke="#6A1AD3"/>
<mask id="mask0_2315_9392" style="mask-type:luminance" maskUnits="userSpaceOnUse" x="280" y="13" width="14" height="14">
<path d="M287 26.6663C287.875 26.6675 288.743 26.4956 289.552 26.1605C290.361 25.8253 291.095 25.3337 291.714 24.7137C292.334 24.0953 292.825 23.3605 293.16 22.5515C293.496 21.7426 293.667 20.8753 293.666 19.9997C293.667 19.124 293.496 18.2568 293.16 17.4478C292.825 16.6388 292.334 15.904 291.714 15.2857C291.095 14.6657 290.361 14.174 289.552 13.8389C288.743 13.5038 287.875 13.3319 287 13.333C286.124 13.3319 285.257 13.5038 284.448 13.8389C283.639 14.174 282.904 14.6657 282.286 15.2857C281.666 15.904 281.174 16.6388 280.839 17.4478C280.504 18.2568 280.332 19.124 280.333 19.9997C280.332 20.8753 280.504 21.7426 280.839 22.5515C281.174 23.3605 281.666 24.0953 282.286 24.7137C282.904 25.3337 283.639 25.8253 284.448 26.1604C285.257 26.4955 286.124 26.6675 287 26.6663Z" fill="white" stroke="white" stroke-width="0.666667" stroke-linejoin="round"/>
<path d="M284.333 20L286.333 22L290.333 18" stroke="black" stroke-width="1.33333" stroke-linecap="round" stroke-linejoin="round"/>
</mask>
<g mask="url(#mask0_2315_9392)">
<path d="M279 12H295V28H279V12Z" fill="#6A1AD3"/>
</g>
<path d="M17.162 44V34.13H21.334C22.3887 34.13 23.2053 34.382 23.784 34.886C24.3627 35.3807 24.652 36.076 24.652 36.972C24.652 37.56 24.5213 38.064 24.26 38.484C23.9987 38.904 23.63 39.226 23.154 39.45C22.678 39.6647 22.118 39.772 21.474 39.772L21.698 39.548H22.076C22.4587 39.548 22.7993 39.646 23.098 39.842C23.406 40.038 23.658 40.3507 23.854 40.78L25.268 44H23.672L22.272 40.766C22.132 40.3833 21.9127 40.136 21.614 40.024C21.3247 39.912 20.9653 39.856 20.536 39.856H18.618V44H17.162ZM18.618 38.75H21.096C21.796 38.75 22.3233 38.6007 22.678 38.302C23.042 38.0033 23.224 37.574 23.224 37.014C23.224 36.4447 23.042 36.0153 22.678 35.726C22.3233 35.4367 21.796 35.292 21.096 35.292H18.618V38.75ZM29.6577 44.126C28.9577 44.126 28.351 43.9813 27.8377 43.692C27.3243 43.3933 26.9277 42.9733 26.6477 42.432C26.3677 41.8813 26.2277 41.228 26.2277 40.472C26.2277 39.716 26.3677 39.0673 26.6477 38.526C26.9277 37.9753 27.3243 37.5553 27.8377 37.266C28.351 36.9673 28.9577 36.818 29.6577 36.818C30.3577 36.818 30.9643 36.9673 31.4777 37.266C32.0003 37.5553 32.4017 37.9753 32.6817 38.526C32.971 39.0673 33.1157 39.716 33.1157 40.472C33.1157 41.228 32.971 41.8813 32.6817 42.432C32.4017 42.9733 32.0003 43.3933 31.4777 43.692C30.9643 43.9813 30.3577 44.126 29.6577 44.126ZM29.6577 43.02C30.2737 43.02 30.7637 42.8053 31.1277 42.376C31.4917 41.9467 31.6737 41.312 31.6737 40.472C31.6737 39.632 31.4917 39.002 31.1277 38.582C30.7637 38.1527 30.2737 37.938 29.6577 37.938C29.051 37.938 28.5657 38.1527 28.2017 38.582C27.8377 39.002 27.6557 39.632 27.6557 40.472C27.6557 41.312 27.833 41.9467 28.1877 42.376C28.5517 42.8053 29.0417 43.02 29.6577 43.02ZM36.7174 44L33.6934 36.944H35.2054L37.5854 42.838H37.1794L39.6014 36.944H41.0434L38.0054 44H36.7174ZM45.3039 44.126C44.1652 44.126 43.2692 43.804 42.6159 43.16C41.9625 42.516 41.6359 41.6247 41.6359 40.486C41.6359 39.7487 41.7759 39.1047 42.0559 38.554C42.3452 38.0033 42.7419 37.5787 43.2459 37.28C43.7592 36.972 44.3519 36.818 45.0239 36.818C45.6865 36.818 46.2419 36.958 46.6899 37.238C47.1379 37.518 47.4785 37.9147 47.7119 38.428C47.9452 38.932 48.0619 39.5293 48.0619 40.22V40.668H42.7419V39.856H47.0959L46.8579 40.038C46.8579 39.338 46.6992 38.7967 46.3819 38.414C46.0739 38.022 45.6259 37.826 45.0379 37.826C44.3845 37.826 43.8805 38.0547 43.5259 38.512C43.1712 38.96 42.9939 39.5807 42.9939 40.374V40.514C42.9939 41.3447 43.1945 41.97 43.5959 42.39C44.0065 42.81 44.5852 43.02 45.3319 43.02C45.7425 43.02 46.1252 42.964 46.4799 42.852C46.8439 42.7307 47.1892 42.5347 47.5159 42.264L47.9779 43.23C47.6512 43.5193 47.2545 43.7433 46.7879 43.902C46.3212 44.0513 45.8265 44.126 45.3039 44.126ZM49.6564 44V38.694C49.6564 38.4047 49.6471 38.1153 49.6284 37.826C49.6191 37.5273 49.6004 37.2333 49.5724 36.944H50.9444L51.0984 38.764H50.8744C50.9678 38.3253 51.1264 37.9613 51.3504 37.672C51.5744 37.3827 51.8451 37.168 52.1624 37.028C52.4891 36.888 52.8298 36.818 53.1844 36.818C53.3338 36.818 53.4598 36.8273 53.5624 36.846C53.6651 36.8553 53.7678 36.874 53.8704 36.902L53.8564 38.162C53.6978 38.0967 53.5578 38.0593 53.4364 38.05C53.3244 38.0313 53.1844 38.022 53.0164 38.022C52.6058 38.022 52.2558 38.1153 51.9664 38.302C51.6771 38.4793 51.4578 38.722 51.3084 39.03C51.1591 39.338 51.0844 39.6693 51.0844 40.024V44H49.6564Z" fill="#4F4F4F"/>
<rect x="62" y="28" width="76" height="22" rx="11" fill="#EDE8FF"/>
<path d="M78.996 44V35.54H82.584C83.488 35.54 84.18 35.76 84.66 36.2C85.148 36.632 85.392 37.232 85.392 38C85.392 38.768 85.148 39.372 84.66 39.812C84.18 40.252 83.488 40.472 82.584 40.472H80.244V44H78.996ZM80.244 39.476H82.452C83.02 39.476 83.448 39.348 83.736 39.092C84.024 38.836 84.168 38.472 84.168 38C84.168 37.536 84.024 37.176 83.736 36.92C83.448 36.664 83.02 36.536 82.452 36.536H80.244V39.476ZM89.0972 44.108C88.4972 44.108 87.9772 43.984 87.5372 43.736C87.0972 43.48 86.7572 43.12 86.5172 42.656C86.2772 42.184 86.1572 41.624 86.1572 40.976C86.1572 40.328 86.2772 39.772 86.5172 39.308C86.7572 38.836 87.0972 38.476 87.5372 38.228C87.9772 37.972 88.4972 37.844 89.0972 37.844C89.6972 37.844 90.2172 37.972 90.6572 38.228C91.1052 38.476 91.4492 38.836 91.6892 39.308C91.9372 39.772 92.0612 40.328 92.0612 40.976C92.0612 41.624 91.9372 42.184 91.6892 42.656C91.4492 43.12 91.1052 43.48 90.6572 43.736C90.2172 43.984 89.6972 44.108 89.0972 44.108ZM89.0972 43.16C89.6252 43.16 90.0452 42.976 90.3572 42.608C90.6692 42.24 90.8252 41.696 90.8252 40.976C90.8252 40.256 90.6692 39.716 90.3572 39.356C90.0452 38.988 89.6252 38.804 89.0972 38.804C88.5772 38.804 88.1612 38.988 87.8492 39.356C87.5372 39.716 87.3812 40.256 87.3812 40.976C87.3812 41.696 87.5332 42.24 87.8372 42.608C88.1492 42.976 88.5692 43.16 89.0972 43.16ZM93.4778 46.592V39.404C93.4778 39.172 93.4658 38.936 93.4418 38.696C93.4258 38.448 93.4058 38.2 93.3818 37.952H94.5578L94.6778 39.32H94.5458C94.6738 38.864 94.9298 38.504 95.3138 38.24C95.7058 37.976 96.1698 37.844 96.7058 37.844C97.2418 37.844 97.7098 37.972 98.1098 38.228C98.5098 38.476 98.8178 38.832 99.0338 39.296C99.2578 39.76 99.3698 40.32 99.3698 40.976C99.3698 41.624 99.2578 42.184 99.0338 42.656C98.8178 43.128 98.5098 43.488 98.1098 43.736C97.7098 43.984 97.2418 44.108 96.7058 44.108C96.1778 44.108 95.7178 43.98 95.3258 43.724C94.9418 43.46 94.6858 43.104 94.5578 42.656H94.6898V46.592H93.4778ZM96.4058 43.16C96.9338 43.16 97.3538 42.976 97.6658 42.608C97.9858 42.24 98.1458 41.696 98.1458 40.976C98.1458 40.256 97.9858 39.716 97.6658 39.356C97.3538 38.988 96.9338 38.804 96.4058 38.804C95.8778 38.804 95.4538 38.988 95.1338 39.356C94.8218 39.716 94.6658 40.256 94.6658 40.976C94.6658 41.696 94.8218 42.24 95.1338 42.608C95.4538 42.976 95.8778 43.16 96.4058 43.16ZM102.938 44.108C102.21 44.108 101.662 43.912 101.294 43.52C100.934 43.12 100.754 42.508 100.754 41.684V37.952H101.966V41.66C101.966 42.164 102.07 42.536 102.278 42.776C102.486 43.016 102.802 43.136 103.226 43.136C103.706 43.136 104.094 42.976 104.39 42.656C104.686 42.336 104.834 41.912 104.834 41.384V37.952H106.046V44H104.87V42.704H105.026C104.858 43.152 104.59 43.5 104.222 43.748C103.854 43.988 103.426 44.108 102.938 44.108ZM107.822 44V35.168H109.034V44H107.822ZM113.126 44.108C112.59 44.108 112.122 43.984 111.722 43.736C111.322 43.488 111.01 43.128 110.786 42.656C110.57 42.184 110.462 41.624 110.462 40.976C110.462 40.32 110.57 39.76 110.786 39.296C111.01 38.832 111.322 38.476 111.722 38.228C112.122 37.972 112.59 37.844 113.126 37.844C113.654 37.844 114.114 37.976 114.506 38.24C114.898 38.504 115.158 38.864 115.286 39.32H115.154L115.274 37.952H116.45C116.426 38.2 116.402 38.448 116.378 38.696C116.362 38.936 116.354 39.172 116.354 39.404V44H115.142V42.656H115.274C115.146 43.104 114.882 43.46 114.482 43.724C114.09 43.98 113.638 44.108 113.126 44.108ZM113.426 43.16C113.946 43.16 114.362 42.976 114.674 42.608C114.994 42.24 115.154 41.696 115.154 40.976C115.154 40.256 114.994 39.716 114.674 39.356C114.362 38.988 113.946 38.804 113.426 38.804C112.898 38.804 112.474 38.988 112.154 39.356C111.842 39.716 111.686 40.256 111.686 40.976C111.686 41.696 111.842 42.24 112.154 42.608C112.466 42.976 112.89 43.16 113.426 43.16ZM118.098 44V39.452C118.098 39.204 118.09 38.956 118.074 38.708C118.066 38.452 118.05 38.2 118.026 37.952H119.202L119.334 39.512H119.142C119.222 39.136 119.358 38.824 119.55 38.576C119.742 38.328 119.974 38.144 120.246 38.024C120.526 37.904 120.818 37.844 121.122 37.844C121.25 37.844 121.358 37.852 121.446 37.868C121.534 37.876 121.622 37.892 121.71 37.916L121.698 38.996C121.562 38.94 121.442 38.908 121.338 38.9C121.242 38.884 121.122 38.876 120.978 38.876C120.626 38.876 120.326 38.956 120.078 39.116C119.83 39.268 119.642 39.476 119.514 39.74C119.386 40.004 119.322 40.288 119.322 40.592V44H118.098Z" fill="#6018BF"/>
<path d="M170.926 51V46.59H169.324V45.456H170.926V43.818H169.324V42.684H170.926V38.31H172.438L176.722 48.39H176.326V38.31H177.874V42.684H179.494V43.818H177.874V45.456H179.494V46.59H177.874V51H176.38L172.096 40.92H172.492V51H170.926ZM186.129 51V48.372H180.261V47.04L186.435 38.31H187.947V46.914H189.837V48.372H187.947V51H186.129ZM186.129 46.914V40.524H186.543L181.719 47.364V46.914H186.129ZM191.846 53.214L191.054 52.602C191.402 52.23 191.636 51.888 191.756 51.576C191.888 51.264 191.954 50.94 191.954 50.604L192.35 51H190.928V48.858H193.07V50.316C193.07 50.856 192.98 51.354 192.8 51.81C192.62 52.278 192.302 52.746 191.846 53.214ZM199.357 51.162C198.805 51.162 198.259 51.102 197.719 50.982C197.179 50.862 196.675 50.694 196.207 50.478C195.739 50.25 195.331 49.98 194.983 49.668L195.631 48.246C196.207 48.69 196.795 49.026 197.395 49.254C198.007 49.47 198.649 49.578 199.321 49.578C200.173 49.578 200.839 49.356 201.319 48.912C201.811 48.468 202.057 47.874 202.057 47.13C202.057 46.362 201.823 45.744 201.355 45.276C200.899 44.796 200.263 44.556 199.447 44.556C198.883 44.556 198.367 44.67 197.899 44.898C197.443 45.126 197.041 45.474 196.693 45.942H195.397V38.31H203.083V39.876H197.179V44.448H196.711C197.035 43.992 197.467 43.638 198.007 43.386C198.559 43.134 199.177 43.008 199.861 43.008C200.677 43.008 201.385 43.176 201.985 43.512C202.585 43.848 203.047 44.316 203.371 44.916C203.707 45.516 203.875 46.224 203.875 47.04C203.875 47.856 203.689 48.576 203.317 49.2C202.957 49.812 202.435 50.292 201.751 50.64C201.079 50.988 200.281 51.162 199.357 51.162ZM209.61 51.162C208.146 51.162 207.018 50.604 206.226 49.488C205.446 48.36 205.056 46.746 205.056 44.646C205.056 42.51 205.446 40.896 206.226 39.804C207.018 38.7 208.146 38.148 209.61 38.148C211.086 38.148 212.214 38.7 212.994 39.804C213.774 40.896 214.164 42.504 214.164 44.628C214.164 46.74 213.768 48.36 212.976 49.488C212.196 50.604 211.074 51.162 209.61 51.162ZM209.61 49.596C210.534 49.596 211.218 49.194 211.662 48.39C212.118 47.586 212.346 46.332 212.346 44.628C212.346 42.912 212.118 41.664 211.662 40.884C211.218 40.092 210.534 39.696 209.61 39.696C208.698 39.696 208.014 40.092 207.558 40.884C207.102 41.664 206.874 42.906 206.874 44.61C206.874 46.326 207.102 47.586 207.558 48.39C208.026 49.194 208.71 49.596 209.61 49.596ZM220.043 51.162C218.579 51.162 217.451 50.604 216.659 49.488C215.879 48.36 215.489 46.746 215.489 44.646C215.489 42.51 215.879 40.896 216.659 39.804C217.451 38.7 218.579 38.148 220.043 38.148C221.519 38.148 222.647 38.7 223.427 39.804C224.207 40.896 224.597 42.504 224.597 44.628C224.597 46.74 224.201 48.36 223.409 49.488C222.629 50.604 221.507 51.162 220.043 51.162ZM220.043 49.596C220.967 49.596 221.651 49.194 222.095 48.39C222.551 47.586 222.779 46.332 222.779 44.628C222.779 42.912 222.551 41.664 222.095 40.884C221.651 40.092 220.967 39.696 220.043 39.696C219.131 39.696 218.447 40.092 217.991 40.884C217.535 41.664 217.307 42.906 217.307 44.61C217.307 46.326 217.535 47.586 217.991 48.39C218.459 49.194 219.143 49.596 220.043 49.596Z" fill="#414141"/>
<path d="M229.064 56.024V47.624C229.064 47.3533 229.055 47.078 229.036 46.798C229.017 46.518 228.989 46.238 228.952 45.958H230.184L230.338 47.582H230.184C230.324 47.0407 230.623 46.616 231.08 46.308C231.537 45.9907 232.083 45.832 232.718 45.832C233.343 45.832 233.889 45.9767 234.356 46.266C234.823 46.5553 235.182 46.9753 235.434 47.526C235.695 48.0673 235.826 48.716 235.826 49.472C235.826 50.228 235.695 50.8813 235.434 51.432C235.182 51.9827 234.823 52.4027 234.356 52.692C233.889 52.9813 233.343 53.126 232.718 53.126C232.093 53.126 231.551 52.972 231.094 52.664C230.646 52.3467 230.343 51.922 230.184 51.39H230.338V56.024H229.064ZM232.424 52.118C233.068 52.118 233.581 51.894 233.964 51.446C234.347 50.998 234.538 50.34 234.538 49.472C234.538 48.604 234.347 47.9507 233.964 47.512C233.581 47.0733 233.068 46.854 232.424 46.854C231.78 46.854 231.267 47.0733 230.884 47.512C230.511 47.9507 230.324 48.604 230.324 49.472C230.324 50.34 230.511 50.998 230.884 51.446C231.267 51.894 231.78 52.118 232.424 52.118ZM240.747 53.126C239.627 53.126 238.74 52.804 238.087 52.16C237.443 51.516 237.121 50.6293 237.121 49.5C237.121 48.7533 237.261 48.1093 237.541 47.568C237.83 47.0173 238.227 46.5927 238.731 46.294C239.235 45.986 239.823 45.832 240.495 45.832C241.139 45.832 241.685 45.972 242.133 46.252C242.581 46.5227 242.921 46.91 243.155 47.414C243.388 47.918 243.505 48.5153 243.505 49.206V49.626H238.115V48.87H242.637L242.399 49.052C242.399 48.324 242.235 47.7593 241.909 47.358C241.591 46.9567 241.12 46.756 240.495 46.756C239.813 46.756 239.286 46.994 238.913 47.47C238.539 47.9367 238.353 48.576 238.353 49.388V49.514C238.353 50.3727 238.563 51.0213 238.983 51.46C239.412 51.8987 240.005 52.118 240.761 52.118C241.181 52.118 241.573 52.0573 241.937 51.936C242.301 51.8147 242.651 51.614 242.987 51.334L243.407 52.216C243.089 52.5053 242.693 52.7293 242.217 52.888C241.75 53.0467 241.26 53.126 240.747 53.126ZM245.155 53V47.68C245.155 47.4 245.146 47.1153 245.127 46.826C245.118 46.5273 245.095 46.238 245.057 45.958H246.289L246.443 47.722L246.233 47.736C246.327 47.3067 246.485 46.952 246.709 46.672C246.943 46.3827 247.218 46.1727 247.535 46.042C247.862 45.902 248.198 45.832 248.543 45.832C248.693 45.832 248.819 45.8367 248.921 45.846C249.024 45.8553 249.127 45.8787 249.229 45.916L249.201 47.05C249.061 46.994 248.931 46.9613 248.809 46.952C248.697 46.9333 248.557 46.924 248.389 46.924C247.979 46.924 247.624 47.0173 247.325 47.204C247.036 47.3907 246.812 47.638 246.653 47.946C246.504 48.254 246.429 48.5853 246.429 48.94V53H245.155ZM254.043 53V47.624C254.043 47.3533 254.033 47.078 254.015 46.798C253.996 46.518 253.968 46.238 253.931 45.958H255.163L255.303 47.47H255.135C255.321 46.9473 255.62 46.546 256.031 46.266C256.441 45.9767 256.931 45.832 257.501 45.832C258.079 45.832 258.555 45.972 258.929 46.252C259.302 46.5227 259.554 46.952 259.685 47.54H259.475C259.652 47.0173 259.965 46.602 260.413 46.294C260.861 45.986 261.383 45.832 261.981 45.832C262.755 45.832 263.339 46.0607 263.731 46.518C264.123 46.966 264.319 47.666 264.319 48.618V53H263.045V48.688C263.045 48.044 262.933 47.582 262.709 47.302C262.485 47.0127 262.13 46.868 261.645 46.868C261.075 46.868 260.627 47.064 260.301 47.456C259.974 47.8387 259.811 48.3613 259.811 49.024V53H258.537V48.688C258.537 48.044 258.425 47.582 258.201 47.302C257.986 47.0127 257.631 46.868 257.137 46.868C256.567 46.868 256.119 47.064 255.793 47.456C255.475 47.8387 255.317 48.3613 255.317 49.024V53H254.043ZM269.37 53.126C268.679 53.126 268.082 52.9813 267.578 52.692C267.074 52.3933 266.682 51.9733 266.402 51.432C266.122 50.8813 265.982 50.228 265.982 49.472C265.982 48.7253 266.122 48.0813 266.402 47.54C266.682 46.9893 267.074 46.5693 267.578 46.28C268.082 45.9813 268.679 45.832 269.37 45.832C270.061 45.832 270.658 45.9813 271.162 46.28C271.675 46.5693 272.067 46.9893 272.338 47.54C272.618 48.0813 272.758 48.7253 272.758 49.472C272.758 50.228 272.618 50.8813 272.338 51.432C272.067 51.9733 271.675 52.3933 271.162 52.692C270.658 52.9813 270.061 53.126 269.37 53.126ZM269.37 52.118C270.005 52.118 270.513 51.894 270.896 51.446C271.279 50.998 271.47 50.34 271.47 49.472C271.47 48.604 271.279 47.9507 270.896 47.512C270.513 47.0733 270.005 46.854 269.37 46.854C268.726 46.854 268.213 47.0733 267.83 47.512C267.457 47.9507 267.27 48.604 267.27 49.472C267.27 50.34 267.457 50.998 267.83 51.446C268.213 51.894 268.726 52.118 269.37 52.118ZM274.468 53V47.624C274.468 47.3533 274.459 47.078 274.44 46.798C274.422 46.518 274.394 46.238 274.356 45.958H275.588L275.728 47.47H275.56C275.775 46.938 276.106 46.532 276.554 46.252C277.002 45.972 277.525 45.832 278.122 45.832C278.953 45.832 279.578 46.0607 279.998 46.518C280.418 46.966 280.628 47.666 280.628 48.618V53H279.354V48.688C279.354 48.044 279.228 47.582 278.976 47.302C278.724 47.0127 278.332 46.868 277.8 46.868C277.166 46.868 276.662 47.0593 276.288 47.442C275.924 47.8247 275.742 48.3427 275.742 48.996V53H274.468ZM285.344 53.126C284.607 53.126 284.047 52.9253 283.664 52.524C283.291 52.1133 283.104 51.4973 283.104 50.676V46.938H281.732V45.958H283.104V44.068L284.378 43.718V45.958H286.366V46.938H284.378V50.564C284.378 51.1053 284.472 51.4927 284.658 51.726C284.854 51.95 285.134 52.062 285.498 52.062C285.685 52.062 285.844 52.048 285.974 52.02C286.114 51.9827 286.24 51.9407 286.352 51.894V52.944C286.212 53 286.049 53.042 285.862 53.07C285.685 53.1073 285.512 53.126 285.344 53.126ZM287.703 53V42.696H288.977V47.484H288.795C289 46.9427 289.331 46.532 289.789 46.252C290.246 45.972 290.773 45.832 291.371 45.832C292.22 45.832 292.845 46.0607 293.247 46.518C293.657 46.9753 293.863 47.666 293.863 48.59V53H292.589V48.66C292.589 48.0347 292.467 47.582 292.225 47.302C291.982 47.0127 291.585 46.868 291.035 46.868C290.419 46.868 289.919 47.0593 289.537 47.442C289.163 47.8247 288.977 48.3333 288.977 48.968V53H287.703Z" fill="#6D6D6D"/>
</svg>
