<svg width="20" height="20" viewBox="0 0 20 20" fill="none" xmlns="http://www.w3.org/2000/svg">
<path d="M2.06988 4.50684C2.70877 1.74365 6.86954 1.74365 7.50044 4.50684C7.87579 6.12803 6.84558 7.50164 5.95113 8.35615C5.29627 8.97907 4.26606 8.97108 3.6112 8.35615C2.72474 7.50164 1.69454 6.12803 2.06988 4.50684Z" stroke="#6A1AD3" stroke-width="1.4375"/>
<path d="M12.4518 14.0902C13.0907 11.327 17.2754 11.327 17.9143 14.0902C18.2896 15.7114 17.2594 17.085 16.357 17.9395C15.7021 18.5624 14.6639 18.5545 14.0091 17.9395C13.1067 17.085 12.0764 15.7114 12.4518 14.0902Z" stroke="#6A1AD3" stroke-width="1.4375"/>
<path d="M10.0001 4.82629H12.1404C13.6178 4.82629 14.3046 6.65511 13.1945 7.62942L6.81364 13.2117C5.70357 14.178 6.39038 16.0069 7.85982 16.0069H10.0001" stroke="#6A1AD3" stroke-width="1.4375" stroke-linecap="round" stroke-linejoin="round"/>
<path d="M4.79811 5.2256H4.80734" stroke="#6A1AD3" stroke-width="1.91667" stroke-linecap="round" stroke-linejoin="round"/>
<path d="M15.1801 14.809H15.1893" stroke="#6A1AD3" stroke-width="1.91667" stroke-linecap="round" stroke-linejoin="round"/>
</svg>
