<svg width="10" height="10" viewBox="0 0 10 10" fill="none" xmlns="http://www.w3.org/2000/svg">
<g clip-path="url(#clip0_1212_32761)">
<path d="M3.78748 3.74967C3.88544 3.4712 4.07879 3.23639 4.33329 3.08681C4.5878 2.93724 4.88702 2.88257 5.17797 2.93247C5.46892 2.98238 5.73282 3.13364 5.92293 3.35948C6.11304 3.58531 6.21709 3.87114 6.21665 4.16634C6.21665 4.99967 4.96665 5.41634 4.96665 5.41634M4.99998 7.08301H5.00415M9.16665 4.99967C9.16665 7.30086 7.30117 9.16634 4.99998 9.16634C2.69879 9.16634 0.833313 7.30086 0.833313 4.99967C0.833313 2.69849 2.69879 0.833008 4.99998 0.833008C7.30117 0.833008 9.16665 2.69849 9.16665 4.99967Z" stroke="#6D6D6D" stroke-width="0.833333" stroke-linecap="round" stroke-linejoin="round"/>
</g>
<defs>
<clipPath id="clip0_1212_32761">
<rect width="10" height="10" fill="white"/>
</clipPath>
</defs>
</svg>
