<svg width="16" height="16" viewBox="0 0 16 16" fill="none" xmlns="http://www.w3.org/2000/svg">
<path fill-rule="evenodd" clip-rule="evenodd" d="M9.33301 3.33325C9.3966 3.33329 9.45885 3.3515 9.51241 3.38576C9.56598 3.42002 9.60864 3.46888 9.63534 3.52659L11.902 8.41659C12.4264 8.26571 12.9885 8.31829 13.4758 8.5638C13.9632 8.80932 14.3399 9.22969 14.5308 9.74092C14.7217 10.2521 14.7127 10.8166 14.5055 11.3214C14.2983 11.8263 13.9082 12.2343 13.4133 12.4641C12.9183 12.6938 12.3548 12.7283 11.8355 12.5607C11.3162 12.3931 10.8792 12.0357 10.612 11.5599C10.3447 11.0841 10.2669 10.525 10.3939 9.99433C10.521 9.46363 10.8436 9.00042 11.2973 8.69725L9.11968 3.99992H7.66634V3.33325H9.33301ZM11.727 9.62559C11.517 9.81117 11.3809 10.0661 11.3434 10.3439C11.306 10.6216 11.3697 10.9035 11.5231 11.1381C11.6764 11.3727 11.9091 11.5442 12.1785 11.6214C12.4479 11.6985 12.7361 11.6761 12.9903 11.5582C13.2446 11.4403 13.4479 11.2349 13.5631 10.9794C13.6783 10.724 13.6977 10.4356 13.6178 10.167C13.5379 9.89836 13.3639 9.66751 13.1277 9.51663C12.8916 9.36575 12.609 9.30491 12.3317 9.34525L12.802 10.3596C12.8368 10.4394 12.839 10.5297 12.8081 10.6111C12.7772 10.6925 12.7157 10.7586 12.6367 10.7952C12.5577 10.8318 12.4675 10.8361 12.3854 10.8071C12.3033 10.778 12.2358 10.7181 12.1973 10.6399L11.727 9.62559ZM5.64101 10.8333C5.55581 11.3715 5.27099 11.8578 4.8433 12.1955C4.41561 12.5331 3.87642 12.6973 3.33314 12.6552C2.78985 12.6132 2.28234 12.3681 1.91167 11.9686C1.54101 11.5692 1.33441 11.0448 1.33301 10.4999C1.33226 9.9537 1.53784 9.42735 1.9086 9.02624C2.27936 8.62513 2.78794 8.37886 3.33253 8.33672C3.87712 8.29458 4.41753 8.45969 4.84558 8.79899C5.27363 9.1383 5.55773 9.62675 5.64101 10.1666H6.66634V9.66659C6.66634 9.48977 6.73658 9.32021 6.86161 9.19518C6.98663 9.07016 7.1562 8.99992 7.33301 8.99992H9.33301V10.3333C9.33301 10.5101 9.26277 10.6796 9.13775 10.8047C9.01272 10.9297 8.84315 10.9999 8.66634 10.9999H7.33301C7.16168 10.9999 7.00534 10.9353 6.88701 10.8289C6.86916 10.8318 6.8511 10.8333 6.83301 10.8333H5.64101ZM3.49968 11.6666C3.28332 11.6665 3.07124 11.6063 2.88714 11.4927C2.70304 11.379 2.55416 11.2164 2.45716 11.023C2.36015 10.8296 2.31883 10.6131 2.33781 10.3976C2.35679 10.182 2.43533 9.97604 2.56465 9.80258C2.69397 9.62913 2.86898 9.49505 3.07011 9.41533C3.27124 9.33562 3.49058 9.3134 3.70362 9.35116C3.91665 9.38893 4.11499 9.48519 4.27647 9.62919C4.43794 9.77318 4.55619 9.95925 4.61801 10.1666H3.49968C3.41127 10.1666 3.32649 10.2017 3.26397 10.2642C3.20146 10.3267 3.16634 10.4115 3.16634 10.4999C3.16634 10.5883 3.20146 10.6731 3.26397 10.7356C3.32649 10.7981 3.41127 10.8333 3.49968 10.8333H4.61801C4.54612 11.074 4.39846 11.2852 4.19697 11.4353C3.99549 11.5854 3.75094 11.6665 3.49968 11.6666Z" fill="#414141"/>
<path d="M9.35067 7.96467L9.68401 7.298C9.73025 7.20547 9.75432 7.10344 9.75432 7C9.75432 6.89656 9.73025 6.79453 9.68401 6.702L9.35067 6.03533C9.2953 5.92451 9.21013 5.83131 9.10474 5.76619C8.99935 5.70107 8.8779 5.66661 8.75401 5.66667H7.66067C7.37014 5.6667 7.08155 5.71422 6.80634 5.80733L5.75801 6.16167C5.70872 6.17832 5.66402 6.20628 5.62748 6.24331C5.59093 6.28034 5.56356 6.32541 5.54756 6.37491C5.53156 6.42442 5.52736 6.47698 5.53531 6.52839C5.54326 6.5798 5.56313 6.62864 5.59334 6.671L6.67767 8.19333C6.70851 8.23664 6.74926 8.27195 6.79652 8.2963C6.84378 8.32066 6.89618 8.33335 6.94934 8.33333H8.75434C8.87817 8.33333 8.99956 8.29884 9.10488 8.23372C9.21021 8.1686 9.29532 8.07544 9.35067 7.96467ZM4.62767 6.461C4.59645 6.42118 4.55658 6.38899 4.51107 6.36687C4.46556 6.34475 4.41561 6.33328 4.36501 6.33333H1.66634C1.57794 6.33333 1.49315 6.36845 1.43064 6.43096C1.36813 6.49348 1.33301 6.57826 1.33301 6.66667V7.20167C1.333 7.28373 1.36327 7.36291 1.41801 7.42404C1.47274 7.48518 1.54811 7.52397 1.62967 7.533L5.43867 7.95633C5.47137 7.96009 5.50444 7.95409 5.53372 7.93908C5.56301 7.92408 5.5872 7.90074 5.60324 7.872C5.61928 7.84327 5.62646 7.81044 5.62387 7.77763C5.62127 7.74483 5.60903 7.71352 5.58867 7.68767L4.62767 6.461ZM12.5497 5.071C12.5343 5.04905 12.5138 5.03113 12.49 5.01877C12.4662 5.00641 12.4398 4.99997 12.413 5H11.1027C11.0743 5 11.0463 5.00727 11.0215 5.02112C10.9967 5.03496 10.9758 5.05493 10.9609 5.07911C10.9459 5.10329 10.9374 5.13089 10.9362 5.15929C10.9349 5.18768 10.9409 5.21592 10.9537 5.24133L11.6203 6.57467C11.6342 6.60232 11.6555 6.62556 11.6818 6.64181C11.7081 6.65806 11.7384 6.66667 11.7693 6.66667H13.346C13.3765 6.6667 13.4065 6.65836 13.4326 6.64255C13.4587 6.62674 13.4799 6.60407 13.494 6.577C13.5081 6.54994 13.5145 6.51953 13.5125 6.48908C13.5105 6.45863 13.5002 6.42932 13.4827 6.40433L12.5493 5.071H12.5497Z" fill="#414141"/>
</svg>
