<svg width="18" height="18" viewBox="0 0 18 18" fill="none" xmlns="http://www.w3.org/2000/svg">
<path d="M17.3967 8.22656L16.4123 5.76562C16.3288 5.55741 16.1847 5.37907 15.9987 5.2537C15.8126 5.12834 15.5932 5.06173 15.3689 5.0625H12.9375V4.5C12.9375 4.35082 12.8782 4.20774 12.7727 4.10225C12.6673 3.99676 12.5242 3.9375 12.375 3.9375H1.6875C1.38913 3.9375 1.10298 4.05603 0.892005 4.267C0.681026 4.47798 0.5625 4.76413 0.5625 5.0625V12.9375C0.5625 13.2359 0.681026 13.522 0.892005 13.733C1.10298 13.944 1.38913 14.0625 1.6875 14.0625H2.88281C3.00673 14.5465 3.28821 14.9755 3.68286 15.2818C4.07752 15.5881 4.5629 15.7544 5.0625 15.7544C5.5621 15.7544 6.04748 15.5881 6.44214 15.2818C6.83679 14.9755 7.11827 14.5465 7.24219 14.0625H10.7578C10.8817 14.5465 11.1632 14.9755 11.5579 15.2818C11.9525 15.5881 12.4379 15.7544 12.9375 15.7544C13.4371 15.7544 13.9225 15.5881 14.3171 15.2818C14.7118 14.9755 14.9933 14.5465 15.1172 14.0625H16.3125C16.6109 14.0625 16.897 13.944 17.108 13.733C17.319 13.522 17.4375 13.2359 17.4375 12.9375V8.4375C17.4377 8.36521 17.4238 8.29357 17.3967 8.22656ZM12.9375 6.1875H15.3689L16.0439 7.875H12.9375V6.1875ZM1.6875 5.0625H11.8125V9.5625H1.6875V5.0625ZM5.0625 14.625C4.84 14.625 4.62249 14.559 4.43748 14.4354C4.25248 14.3118 4.10828 14.1361 4.02314 13.9305C3.93799 13.725 3.91571 13.4988 3.95912 13.2805C4.00253 13.0623 4.10967 12.8618 4.26701 12.7045C4.42434 12.5472 4.6248 12.44 4.84302 12.3966C5.06125 12.3532 5.28745 12.3755 5.49302 12.4606C5.69859 12.5458 5.87429 12.69 5.9979 12.875C6.12152 13.06 6.1875 13.2775 6.1875 13.5C6.1875 13.7984 6.06897 14.0845 5.858 14.2955C5.64702 14.5065 5.36087 14.625 5.0625 14.625ZM10.7578 12.9375H7.24219C7.11827 12.4535 6.83679 12.0245 6.44214 11.7182C6.04748 11.4119 5.5621 11.2456 5.0625 11.2456C4.5629 11.2456 4.07752 11.4119 3.68286 11.7182C3.28821 12.0245 3.00673 12.4535 2.88281 12.9375H1.6875V10.6875H11.8125V11.553C11.5538 11.7026 11.3274 11.9019 11.1464 12.1396C10.9653 12.3772 10.8333 12.6484 10.7578 12.9375ZM12.9375 14.625C12.715 14.625 12.4975 14.559 12.3125 14.4354C12.1275 14.3118 11.9833 14.1361 11.8981 13.9305C11.813 13.725 11.7907 13.4988 11.8341 13.2805C11.8775 13.0623 11.9847 12.8618 12.142 12.7045C12.2993 12.5472 12.4998 12.44 12.718 12.3966C12.9363 12.3532 13.1625 12.3755 13.368 12.4606C13.5736 12.5458 13.7493 12.69 13.8729 12.875C13.9965 13.06 14.0625 13.2775 14.0625 13.5C14.0625 13.7984 13.944 14.0845 13.733 14.2955C13.522 14.5065 13.2359 14.625 12.9375 14.625ZM16.3125 12.9375H15.1172C14.9918 12.4547 14.7098 12.0271 14.3153 11.7218C13.9209 11.4164 13.4363 11.2505 12.9375 11.25V9H16.3125V12.9375Z" fill="#4F4F4F"/>
</svg>
