<svg width="18" height="18" viewBox="0 0 18 18" fill="none" xmlns="http://www.w3.org/2000/svg">
<path d="M10.59 7.4999H14.25V6.1499H11.535L10.035 3.6524C9.81 3.2774 9.405 3.0224 8.94 3.0224C8.805 3.0224 8.685 3.0449 8.565 3.0824L4.5 4.3499V8.2499H5.85V5.4974L7.4325 5.0024L4.5 16.4999H5.85L8.0025 10.4174L9.75 12.7499V16.4999H11.1V11.6924L9.2325 8.2874L9.78 6.1349M10.5 2.8499C11.25 2.8499 11.85 2.2499 11.85 1.4999C11.85 0.749902 11.25 0.149902 10.5 0.149902C9.75 0.149902 9.15 0.749902 9.15 1.4999C9.15 2.2499 9.75 2.8499 10.5 2.8499Z" fill="#4F4F4F"/>
</svg>
