<svg width="18" height="18" viewBox="0 0 18 18" fill="none" xmlns="http://www.w3.org/2000/svg">
<path d="M9.75 8.36328H5.25" stroke="#3D3D3D" stroke-width="1.125" stroke-linecap="round" stroke-linejoin="round"/>
<path d="M1.5 8.36238V4.89738C1.5 3.36738 2.7375 2.12988 4.2675 2.12988H8.4825C10.0125 2.12988 11.25 3.08238 11.25 4.61238" stroke="#3D3D3D" stroke-width="1.125" stroke-linecap="round" stroke-linejoin="round"/>
<path d="M13.11 9.15077C12.735 9.51077 12.555 10.0658 12.705 10.6358C12.8925 11.3333 13.5825 11.7758 14.3025 11.7758H15V12.8633C15 14.5208 13.6575 15.8633 12 15.8633H4.5C2.8425 15.8633 1.5 14.5208 1.5 12.8633V7.61328C1.5 5.95578 2.8425 4.61328 4.5 4.61328H12C13.65 4.61328 15 5.96328 15 7.61328V8.70074H14.19C13.77 8.70074 13.3875 8.86577 13.11 9.15077Z" stroke="#3D3D3D" stroke-width="1.125" stroke-linecap="round" stroke-linejoin="round"/>
<path d="M16.5 9.46423V11.0092C16.5 11.4292 16.155 11.7742 15.7275 11.7742H14.28C13.47 11.7742 12.7275 11.1817 12.66 10.3717C12.615 9.89925 12.795 9.45675 13.11 9.14925C13.3875 8.86425 13.77 8.69922 14.19 8.69922H15.7275C16.155 8.69922 16.5 9.04423 16.5 9.46423Z" stroke="#3D3D3D" stroke-width="1.125" stroke-linecap="round" stroke-linejoin="round"/>
</svg>
