<svg width="18" height="18" viewBox="0 0 18 18" fill="none" xmlns="http://www.w3.org/2000/svg">
<path d="M14.0625 3.9375H3.9375C3.31618 3.9375 2.8125 4.44118 2.8125 5.0625V9.5625C2.8125 10.1838 3.31618 10.6875 3.9375 10.6875H14.0625C14.6838 10.6875 15.1875 10.1838 15.1875 9.5625V5.0625C15.1875 4.44118 14.6838 3.9375 14.0625 3.9375Z" stroke="#4F4F4F" stroke-width="1.2" stroke-linecap="round" stroke-linejoin="round"/>
<path d="M14.0625 10.6875H3.9375C3.31618 10.6875 2.8125 11.1912 2.8125 11.8125V14.0625C2.8125 14.6838 3.31618 15.1875 3.9375 15.1875H14.0625C14.6838 15.1875 15.1875 14.6838 15.1875 14.0625V11.8125C15.1875 11.1912 14.6838 10.6875 14.0625 10.6875Z" stroke="#4F4F4F" stroke-width="1.2" stroke-linecap="round" stroke-linejoin="round"/>
<path d="M14.0625 3.9375H3.9375C3.63939 3.93667 3.35372 3.81787 3.14293 3.60707C2.93213 3.39628 2.81333 3.11061 2.8125 2.8125C2.81333 2.51439 2.93213 2.22872 3.14293 2.01793C3.35372 1.80713 3.63939 1.68833 3.9375 1.6875H14.0625C14.3606 1.68833 14.6463 1.80713 14.8571 2.01793C15.0679 2.22872 15.1867 2.51439 15.1875 2.8125C15.1867 3.11061 15.0679 3.39628 14.8571 3.60707C14.6463 3.81787 14.3606 3.93667 14.0625 3.9375ZM5.0625 15.1875V15.9609C5.0625 16.0542 5.02546 16.1436 4.95953 16.2095C4.8936 16.2755 4.80418 16.3125 4.71094 16.3125H3.72656C3.63332 16.3125 3.5439 16.2755 3.47797 16.2095C3.41204 16.1436 3.375 16.0542 3.375 15.9609V15.1875H5.0625ZM14.625 15.1875V15.9609C14.625 16.0542 14.588 16.1436 14.522 16.2095C14.4561 16.2755 14.3667 16.3125 14.2734 16.3125H13.2891C13.1958 16.3125 13.1064 16.2755 13.0405 16.2095C12.9745 16.1436 12.9375 16.0542 12.9375 15.9609V15.1875H14.625Z" stroke="#4F4F4F" stroke-width="1.2" stroke-linecap="round" stroke-linejoin="round"/>
<path d="M12.9375 13.5C13.2482 13.5 13.5 13.2482 13.5 12.9375C13.5 12.6268 13.2482 12.375 12.9375 12.375C12.6268 12.375 12.375 12.6268 12.375 12.9375C12.375 13.2482 12.6268 13.5 12.9375 13.5Z" stroke="#4F4F4F" stroke-width="1.2" stroke-linejoin="round"/>
<path d="M5.0625 13.5C5.37316 13.5 5.625 13.2482 5.625 12.9375C5.625 12.6268 5.37316 12.375 5.0625 12.375C4.75184 12.375 4.5 12.6268 4.5 12.9375C4.5 13.2482 4.75184 13.5 5.0625 13.5Z" stroke="#4F4F4F" stroke-width="1.2" stroke-linejoin="round"/>
<path d="M9 3.9375V10.6875M2.8125 2.8125V12.9375M15.1875 2.8125V12.9375" stroke="#4F4F4F" stroke-width="1.2" stroke-linecap="round" stroke-linejoin="round"/>
</svg>
