<svg width="113" height="110" viewBox="0 0 113 110" fill="none" xmlns="http://www.w3.org/2000/svg">
<g clip-path="url(#clip0_831_56699)">
<path d="M113.5 83.9224H0.5V83.9789H113.5V83.9224Z" fill="#EBEBEB"/>
<path d="M31.6111 85.4614H24.126V85.5179H31.6111V85.4614Z" fill="#EBEBEB"/>
<path d="M48.3872 87.5315H39.1777V87.588H48.3872V87.5315Z" fill="#EBEBEB"/>
<path d="M23.9 86.8242H12.356V86.8807H23.9V86.8242Z" fill="#EBEBEB"/>
<path d="M102.178 85.8411H81.1279V85.8976H102.178V85.8411Z" fill="#EBEBEB"/>
<path d="M79.1161 85.8411H77.6855V85.8976H79.1161V85.8411Z" fill="#EBEBEB"/>
<path d="M72.6934 86.7947H63.1494V86.8512H72.6934V86.7947Z" fill="#EBEBEB"/>
<path d="M54.0618 73.8427H10.4235C10.0816 73.8421 9.75394 73.7059 9.51242 73.464C9.2709 73.222 9.13525 72.8941 9.13525 72.5523V11.2091C9.13823 10.8692 9.27519 10.5442 9.51639 10.3047C9.75759 10.0652 10.0835 9.93051 10.4235 9.92993H54.0618C54.404 9.92993 54.7323 10.0659 54.9743 10.3079C55.2163 10.5499 55.3523 10.8781 55.3523 11.2204V72.5523C55.3523 72.8945 55.2163 73.2228 54.9743 73.4648C54.7323 73.7068 54.404 73.8427 54.0618 73.8427ZM10.4235 9.97513C10.0966 9.97573 9.7833 10.106 9.55237 10.3373C9.32145 10.5687 9.19175 10.8822 9.19175 11.2091V72.5523C9.19175 72.8791 9.32145 73.1927 9.55237 73.424C9.7833 73.6554 10.0966 73.7856 10.4235 73.7862H54.0618C54.3887 73.785 54.7019 73.6547 54.933 73.4235C55.1642 73.1923 55.2946 72.8792 55.2958 72.5523V11.2091C55.2946 10.8822 55.1642 10.569 54.933 10.3379C54.7019 10.1067 54.3887 9.97632 54.0618 9.97513H10.4235Z" fill="#EBEBEB"/>
<path d="M102.948 73.8427H59.3075C58.9657 73.8415 58.6381 73.7052 58.3964 73.4634C58.1546 73.2217 58.0183 72.8942 58.0171 72.5523V11.2091C58.0207 10.869 58.1581 10.544 58.3997 10.3045C58.6412 10.0651 58.9674 9.93051 59.3075 9.92993H102.948C103.288 9.93111 103.613 10.066 103.854 10.3055C104.094 10.5449 104.231 10.8696 104.234 11.2091V72.5523C104.234 72.7214 104.201 72.889 104.137 73.0454C104.072 73.2018 103.978 73.344 103.858 73.4638C103.739 73.5837 103.597 73.6788 103.441 73.7438C103.285 73.8088 103.117 73.8424 102.948 73.8427ZM59.3075 9.97513C58.9806 9.97632 58.6675 10.1067 58.4363 10.3379C58.2052 10.569 58.0748 10.8822 58.0736 11.2091V72.5523C58.0748 72.8792 58.2052 73.1923 58.4363 73.4235C58.6675 73.6547 58.9806 73.785 59.3075 73.7862H102.948C103.275 73.785 103.588 73.6547 103.819 73.4235C104.051 73.1923 104.181 72.8792 104.182 72.5523V11.2091C104.181 10.8822 104.051 10.569 103.819 10.3379C103.588 10.1067 103.275 9.97632 102.948 9.97513H59.3075Z" fill="#EBEBEB"/>
<path d="M16.4712 36.1686H36.079C36.079 36.1686 35.0235 33.7142 31.4979 34.4781C31.4979 34.4781 30.7567 31.687 28.0673 32.0734C28.0673 32.0734 25.8412 29.6598 22.5935 30.5954C19.3459 31.531 19.6262 34.4781 19.6262 34.4781C19.6262 34.4781 17.2238 33.8498 16.4712 36.1686Z" fill="#FAFAFA"/>
<path d="M68.9532 21.2163H49.3477C49.3477 21.2163 50.4008 18.7597 53.9264 19.5236C53.9264 19.5236 54.6677 16.7325 57.3594 17.119C57.3594 17.119 59.5855 14.7075 62.8308 15.6432C66.0762 16.5788 65.8005 19.5236 65.8005 19.5236C65.8005 19.5236 68.2119 18.8976 68.9532 21.2163Z" fill="#FAFAFA"/>
<path d="M83.4126 20.5768H98.4122C98.4122 20.5768 97.8382 18.518 95.6686 19.196C95.6686 19.196 96.1206 16.4252 94.5205 16.1043C92.9204 15.7834 92.4119 17.8919 92.4119 17.8919C92.0458 17.477 91.571 17.1725 91.0412 17.0128C90.5113 16.8531 89.9474 16.8445 89.4129 16.9879C88.8873 17.1248 88.4084 17.4009 88.0266 17.7871C87.6447 18.1733 87.3742 18.6553 87.2433 19.1824C87.2433 19.1824 84.572 17.6524 83.4126 20.5768Z" fill="#FAFAFA"/>
<path d="M29.134 47.7104H10.8867V83.8637H29.134V47.7104Z" fill="#E6E6E6"/>
<path d="M25.8163 47.7104H10.8867V83.8637H25.8163V47.7104Z" fill="#F0F0F0"/>
<path d="M29.3488 47.7104H10.4937V48.3003H29.3488V47.7104Z" fill="#E0E0E0"/>
<path d="M29.3488 46.5305H10.4937V47.1204H29.3488V46.5305Z" fill="#E0E0E0"/>
<path d="M28.9532 47.1206H10.8867V47.7105H28.9532V47.1206Z" fill="#F0F0F0"/>
<path d="M15.1089 49.8369H12.3042V52.6845H15.1089V49.8369Z" fill="#E6E6E6"/>
<path d="M15.1064 49.8369H12.5503V52.6845H15.1064V49.8369Z" fill="#F5F5F5"/>
<path d="M19.355 49.8369H16.5503V52.6845H19.355V49.8369Z" fill="#E6E6E6"/>
<path d="M19.3529 49.8369H16.7969V52.6845H19.3529V49.8369Z" fill="#F5F5F5"/>
<path d="M23.6015 49.8369H20.7969V52.6845H23.6015V49.8369Z" fill="#E6E6E6"/>
<path d="M23.5995 49.8369H21.0435V52.6845H23.5995V49.8369Z" fill="#F5F5F5"/>
<path d="M15.1089 54.0293H12.3042V56.8769H15.1089V54.0293Z" fill="#E6E6E6"/>
<path d="M15.1064 54.0293H12.5503V56.8769H15.1064V54.0293Z" fill="#F5F5F5"/>
<path d="M19.355 54.0293H16.5503V56.8769H19.355V54.0293Z" fill="#E6E6E6"/>
<path d="M19.3529 54.0293H16.7969V56.8769H19.3529V54.0293Z" fill="#F5F5F5"/>
<path d="M23.6015 54.0293H20.7969V56.8769H23.6015V54.0293Z" fill="#E6E6E6"/>
<path d="M23.5995 54.0293H21.0435V56.8769H23.5995V54.0293Z" fill="#F5F5F5"/>
<path d="M15.1089 61.7065H12.3042V64.5541H15.1089V61.7065Z" fill="#E6E6E6"/>
<path d="M15.1064 61.7065H12.5503V64.5541H15.1064V61.7065Z" fill="#F5F5F5"/>
<path d="M19.355 61.7065H16.5503V64.5541H19.355V61.7065Z" fill="#E6E6E6"/>
<path d="M19.3529 61.7065H16.7969V64.5541H19.3529V61.7065Z" fill="#F5F5F5"/>
<path d="M23.6015 61.7065H20.7969V64.5541H23.6015V61.7065Z" fill="#E6E6E6"/>
<path d="M23.5995 61.7065H21.0435V64.5541H23.5995V61.7065Z" fill="#F5F5F5"/>
<path d="M15.1089 65.8989H12.3042V68.7465H15.1089V65.8989Z" fill="#E6E6E6"/>
<path d="M15.1064 65.8989H12.5503V68.7465H15.1064V65.8989Z" fill="#F5F5F5"/>
<path d="M19.355 65.8989H16.5503V68.7465H19.355V65.8989Z" fill="#E6E6E6"/>
<path d="M19.3529 65.8989H16.7969V68.7465H19.3529V65.8989Z" fill="#F5F5F5"/>
<path d="M23.6015 65.8989H20.7969V68.7465H23.6015V65.8989Z" fill="#E6E6E6"/>
<path d="M23.5995 65.8989H21.0435V68.7465H23.5995V65.8989Z" fill="#F5F5F5"/>
<path d="M15.1089 74.4304H12.3042V77.278H15.1089V74.4304Z" fill="#E6E6E6"/>
<path d="M15.1064 74.4304H12.5503V77.278H15.1064V74.4304Z" fill="#F5F5F5"/>
<path d="M19.355 74.4304H16.5503V77.278H19.355V74.4304Z" fill="#E6E6E6"/>
<path d="M19.3529 74.4304H16.7969V77.278H19.3529V74.4304Z" fill="#F5F5F5"/>
<path d="M23.6015 74.4304H20.7969V77.278H23.6015V74.4304Z" fill="#E6E6E6"/>
<path d="M23.5995 74.4304H21.0435V77.278H23.5995V74.4304Z" fill="#F5F5F5"/>
<path d="M15.1089 78.6226H12.3042V81.4702H15.1089V78.6226Z" fill="#E6E6E6"/>
<path d="M15.1064 78.6226H12.5503V81.4702H15.1064V78.6226Z" fill="#F5F5F5"/>
<path d="M19.355 78.6226H16.5503V81.4702H19.355V78.6226Z" fill="#E6E6E6"/>
<path d="M19.3529 78.6226H16.7969V81.4702H19.3529V78.6226Z" fill="#F5F5F5"/>
<path d="M23.6015 78.6226H20.7969V81.4702H23.6015V78.6226Z" fill="#E6E6E6"/>
<path d="M23.5995 78.6226H21.0435V81.4702H23.5995V78.6226Z" fill="#F5F5F5"/>
<path d="M29.134 58.8792H10.8867V59.1436H29.134V58.8792Z" fill="#E0E0E0"/>
<path d="M29.134 72.0007H10.8867V72.2652H29.134V72.0007Z" fill="#E0E0E0"/>
<path d="M100.889 40.25H82.8613V84.1189H100.889V40.25Z" fill="#E0E0E0"/>
<path d="M95.7546 40.25H82.8613V84.1189H95.7546V40.25Z" fill="#F0F0F0"/>
<path d="M88.9879 43.8547H84.1899V46.1848H88.9879V43.8547Z" fill="#E6E6E6"/>
<path d="M88.9881 43.8547H84.5088V46.1848H88.9881V43.8547Z" fill="#F5F5F5"/>
<path d="M94.5387 43.8547H89.7407V46.1848H94.5387V43.8547Z" fill="#E6E6E6"/>
<path d="M94.5384 43.8547H90.0591V46.1848H94.5384V43.8547Z" fill="#F5F5F5"/>
<path d="M88.9879 48.2393H84.1899V50.5693H88.9879V48.2393Z" fill="#E6E6E6"/>
<path d="M88.9881 48.2393H84.5088V50.5693H88.9881V48.2393Z" fill="#F5F5F5"/>
<path d="M94.5387 48.2393H89.7407V50.5693H94.5387V48.2393Z" fill="#E6E6E6"/>
<path d="M94.5384 48.2393H90.0591V50.5693H94.5384V48.2393Z" fill="#F5F5F5"/>
<path d="M88.9879 53.8418H84.1899V56.1719H88.9879V53.8418Z" fill="#E6E6E6"/>
<path d="M88.9881 53.8418H84.5088V56.1719H88.9881V53.8418Z" fill="#F5F5F5"/>
<path d="M94.5387 53.8418H89.7407V56.1719H94.5387V53.8418Z" fill="#E6E6E6"/>
<path d="M94.5384 53.8418H90.0591V56.1719H94.5384V53.8418Z" fill="#F5F5F5"/>
<path d="M88.9879 57.0623H84.1899V59.3923H88.9879V57.0623Z" fill="#E6E6E6"/>
<path d="M88.9881 57.0623H84.5088V59.3923H88.9881V57.0623Z" fill="#F5F5F5"/>
<path d="M94.5387 57.0623H89.7407V59.3923H94.5387V57.0623Z" fill="#E6E6E6"/>
<path d="M94.5384 57.0623H90.0591V59.3923H94.5384V57.0623Z" fill="#F5F5F5"/>
<path d="M88.9879 62.3528H84.1899V64.6828H88.9879V62.3528Z" fill="#E6E6E6"/>
<path d="M88.9881 62.3528H84.5088V64.6828H88.9881V62.3528Z" fill="#F5F5F5"/>
<path d="M94.5387 62.3528H89.7407V64.6828H94.5387V62.3528Z" fill="#E6E6E6"/>
<path d="M94.5384 62.3528H90.0591V64.6828H94.5384V62.3528Z" fill="#F5F5F5"/>
<path d="M88.9879 65.571H84.1899V67.9011H88.9879V65.571Z" fill="#E6E6E6"/>
<path d="M88.9881 65.571H84.5088V67.9011H88.9881V65.571Z" fill="#F5F5F5"/>
<path d="M94.5387 65.571H89.7407V67.9011H94.5387V65.571Z" fill="#E6E6E6"/>
<path d="M94.5384 65.571H90.0591V67.9011H94.5384V65.571Z" fill="#F5F5F5"/>
<path d="M88.9879 71.3296H84.1899V73.6596H88.9879V71.3296Z" fill="#E6E6E6"/>
<path d="M88.9881 71.3296H84.5088V73.6596H88.9881V71.3296Z" fill="#F5F5F5"/>
<path d="M94.5387 71.3296H89.7407V73.6596H94.5387V71.3296Z" fill="#E6E6E6"/>
<path d="M94.5384 71.3296H90.0591V73.6596H94.5384V71.3296Z" fill="#F5F5F5"/>
<path d="M88.9879 75.5806H84.1899V77.9106H88.9879V75.5806Z" fill="#E6E6E6"/>
<path d="M88.9881 75.5806H84.5088V77.9106H88.9881V75.5806Z" fill="#F5F5F5"/>
<path d="M94.5387 75.5806H89.7407V77.9106H94.5387V75.5806Z" fill="#E6E6E6"/>
<path d="M94.5384 75.5806H90.0591V77.9106H94.5384V75.5806Z" fill="#F5F5F5"/>
<path opacity="0.05" d="M100.889 52.0044H82.8613V52.4044H100.889V52.0044Z" fill="black"/>
<path opacity="0.05" d="M100.889 60.6714H82.8613V61.0714H100.889V60.6714Z" fill="black"/>
<path opacity="0.05" d="M100.889 69.4153H82.8613V69.8153H100.889V69.4153Z" fill="black"/>
<path d="M100.889 38.9529H82.0112V40.3541H100.889V38.9529Z" fill="#E0E0E0"/>
<path opacity="0.05" d="M100.889 38.9529H96.5747V40.3541H100.889V38.9529Z" fill="black"/>
<path d="M57.1854 30.4011H36.8047V83.371H57.1854V30.4011Z" fill="#E6E6E6"/>
<path d="M49.6437 30.4011H29.2607V83.371H49.6437V30.4011Z" fill="#F0F0F0"/>
<path d="M47.8652 33.9966H31.0396V36.695H47.8652V33.9966Z" fill="#E6E6E6"/>
<path d="M47.8649 33.9966H31.6924V36.695H47.8649V33.9966Z" fill="#F5F5F5"/>
<path d="M47.8652 38.5393H31.0396V41.2377H47.8652V38.5393Z" fill="#E6E6E6"/>
<path d="M47.8649 38.5393H31.6924V41.2377H47.8649V38.5393Z" fill="#F5F5F5"/>
<path d="M47.8652 43.2581H31.0396V45.9565H47.8652V43.2581Z" fill="#E6E6E6"/>
<path d="M47.8649 43.2581H31.6924V45.9565H47.8649V43.2581Z" fill="#F5F5F5"/>
<path d="M47.8652 47.9792H31.0396V50.6777H47.8652V47.9792Z" fill="#E6E6E6"/>
<path d="M47.8649 47.9792H31.6924V50.6777H47.8649V47.9792Z" fill="#F5F5F5"/>
<path d="M47.8652 52.6982H31.0396V55.3967H47.8652V52.6982Z" fill="#E6E6E6"/>
<path d="M47.8649 52.6982H31.6924V55.3967H47.8649V52.6982Z" fill="#F5F5F5"/>
<path d="M47.8652 57.4194H31.0396V60.1179H47.8652V57.4194Z" fill="#E6E6E6"/>
<path d="M47.8649 57.4194H31.6924V60.1179H47.8649V57.4194Z" fill="#F5F5F5"/>
<path d="M47.8652 62.6218H31.0396V65.3203H47.8652V62.6218Z" fill="#E6E6E6"/>
<path d="M47.8649 62.6218H31.6924V65.3203H47.8649V62.6218Z" fill="#F5F5F5"/>
<path d="M47.8652 67.822H31.0396V70.5205H47.8652V67.822Z" fill="#E6E6E6"/>
<path d="M47.8649 67.822H31.6924V70.5205H47.8649V67.822Z" fill="#F5F5F5"/>
<path d="M47.8652 73.0247H31.0396V75.7231H47.8652V73.0247Z" fill="#E6E6E6"/>
<path d="M47.8649 73.0247H31.6924V75.7231H47.8649V73.0247Z" fill="#F5F5F5"/>
<path d="M47.8652 78.2271H31.0396V80.9255H47.8652V78.2271Z" fill="#E6E6E6"/>
<path d="M47.8649 78.2271H31.6924V80.9255H47.8649V78.2271Z" fill="#F5F5F5"/>
<path d="M57.7165 29.8677H28.6846V31.1604H57.7165V29.8677Z" fill="#F5F5F5"/>
<path d="M57.7165 27.5354H28.6846V28.8281H57.7165V27.5354Z" fill="#F5F5F5"/>
<path d="M56.7514 28.575H29.2607V29.8677H56.7514V28.575Z" fill="#F0F0F0"/>
<path d="M57.1877 33.9966H51.5083V36.695H57.1877V33.9966Z" fill="#E0E0E0"/>
<path d="M57.1877 38.4375H51.5083V41.1359H57.1877V38.4375Z" fill="#E0E0E0"/>
<path d="M57.1877 42.8784H51.5083V45.5769H57.1877V42.8784Z" fill="#E0E0E0"/>
<path d="M57.1877 47.9771H51.5083V50.6755H57.1877V47.9771Z" fill="#E0E0E0"/>
<path d="M57.1877 52.6982H51.5083V55.3967H57.1877V52.6982Z" fill="#E0E0E0"/>
<path d="M57.1877 57.4194H51.5083V60.1179H57.1877V57.4194Z" fill="#E0E0E0"/>
<path d="M57.1877 62.6196H51.5083V65.3181H57.1877V62.6196Z" fill="#E0E0E0"/>
<path d="M57.1877 67.822H51.5083V70.5205H57.1877V67.822Z" fill="#E0E0E0"/>
<path d="M57.1877 73.0247H51.5083V75.7231H57.1877V73.0247Z" fill="#E0E0E0"/>
<path d="M57.1877 78.2271H51.5083V80.9255H57.1877V78.2271Z" fill="#E0E0E0"/>
<path d="M83.3855 48.9126H81.1436V52.4201H83.3855V48.9126Z" fill="#E0E0E0"/>
<path d="M83.3855 54.6531H81.1436V58.1606H83.3855V54.6531Z" fill="#E0E0E0"/>
<path d="M83.3855 60.2329H81.1436V63.7404H83.3855V60.2329Z" fill="#E0E0E0"/>
<path d="M83.3855 66.1316H81.1436V69.6391H83.3855V66.1316Z" fill="#E0E0E0"/>
<path d="M83.3855 71.8721H81.1436V75.3796H83.3855V71.8721Z" fill="#E0E0E0"/>
<path d="M83.3856 45.387H59.7935V81.2667H83.3856V45.387Z" fill="#E6E6E6"/>
<path d="M79.4009 45.387H59.7954V81.2667H79.4009V45.387Z" fill="#F0F0F0"/>
<path d="M77.5006 48.915H61.5586V52.4226H77.5006V48.915Z" fill="#EBEBEB"/>
<path d="M77.5006 54.6531H61.5586V58.1606H77.5006V54.6531Z" fill="#EBEBEB"/>
<path d="M77.5006 60.3936H61.5586V63.9011H77.5006V60.3936Z" fill="#EBEBEB"/>
<path d="M77.5006 66.1316H61.5586V69.6391H77.5006V66.1316Z" fill="#EBEBEB"/>
<path d="M77.5006 71.8721H61.5586V75.3796H77.5006V71.8721Z" fill="#EBEBEB"/>
<path d="M77.5004 48.915H62.146V52.4226H77.5004V48.915Z" fill="#F5F5F5"/>
<path d="M77.5004 54.6531H62.146V58.1606H77.5004V54.6531Z" fill="#F5F5F5"/>
<path d="M77.5004 60.3936H62.146V63.9011H77.5004V60.3936Z" fill="#F5F5F5"/>
<path d="M77.5004 66.1316H62.146V69.6391H77.5004V66.1316Z" fill="#F5F5F5"/>
<path d="M77.5004 71.8721H62.146V75.3796H77.5004V71.8721Z" fill="#F5F5F5"/>
<path d="M56.9998 94.1286C81.2004 94.1286 100.819 92.9832 100.819 91.5703C100.819 90.1574 81.2004 89.012 56.9998 89.012C32.7992 89.012 13.1807 90.1574 13.1807 91.5703C13.1807 92.9832 32.7992 94.1286 56.9998 94.1286Z" fill="#F5F5F5"/>
<path d="M32.0788 91.5703H31.1748" stroke="#A985FF" stroke-width="0.226" stroke-linecap="round" stroke-linejoin="round"/>
<path d="M29.4663 91.5703H6.38037" stroke="#A985FF" stroke-width="0.226" stroke-linecap="round" stroke-linejoin="round" stroke-dasharray="1.71 1.71"/>
<path d="M5.52607 91.5703H4.62207" stroke="#A985FF" stroke-width="0.226" stroke-linecap="round" stroke-linejoin="round"/>
<path d="M85.8732 37.4729L59.7964 37.9053L60.1086 56.7307L86.1854 56.2983L85.8732 37.4729Z" fill="#A985FF"/>
<path opacity="0.3" d="M75.5364 37.6421L59.7705 37.9036L60.0827 56.729L75.8485 56.4676L75.5364 37.6421Z" fill="white"/>
<path opacity="0.3" d="M77.9119 38.9104L73.3716 39.0012L73.3969 40.2668L77.9372 40.176L77.9119 38.9104Z" fill="white"/>
<path opacity="0.3" d="M78.047 53.5495L73.5073 53.6248L73.5283 54.8902L78.068 54.8149L78.047 53.5495Z" fill="white"/>
<path d="M81.0737 49.5231C82.5453 49.5231 83.7383 48.1733 83.7383 46.5083C83.7383 44.8432 82.5453 43.4934 81.0737 43.4934C79.6021 43.4934 78.4092 44.8432 78.4092 46.5083C78.4092 48.1733 79.6021 49.5231 81.0737 49.5231Z" stroke="white" stroke-width="0.226" stroke-miterlimit="10"/>
<path d="M81.1846 43.9521V44.4584" stroke="white" stroke-width="0.226" stroke-linecap="round" stroke-linejoin="round"/>
<path d="M81.2998 48.5896V49.0958" stroke="white" stroke-width="0.226" stroke-linecap="round" stroke-linejoin="round"/>
<path d="M78.8271 46.4087H79.3356" stroke="white" stroke-width="0.226" stroke-linecap="round" stroke-linejoin="round"/>
<path d="M82.9087 46.4111H83.4172" stroke="white" stroke-width="0.226" stroke-linecap="round" stroke-linejoin="round"/>
<path d="M81.1821 46.4088L81.1844 44.8494" stroke="white" stroke-width="0.113" stroke-linecap="round" stroke-linejoin="round"/>
<path d="M81.2817 46.5105L82.3846 47.6134" stroke="white" stroke-width="0.113" stroke-linecap="round" stroke-linejoin="round"/>
<path d="M81.4287 46.4109C81.4287 46.4596 81.4143 46.5073 81.3872 46.5478C81.3601 46.5883 81.3217 46.6198 81.2766 46.6385C81.2316 46.6571 81.1821 46.662 81.1343 46.6525C81.0865 46.643 81.0426 46.6195 81.0082 46.5851C80.9737 46.5506 80.9503 46.5067 80.9408 46.459C80.9313 46.4112 80.9361 46.3616 80.9548 46.3166C80.9734 46.2716 81.005 46.2331 81.0455 46.2061C81.086 46.179 81.1337 46.1646 81.1824 46.1646C81.2148 46.1643 81.247 46.1704 81.277 46.1827C81.307 46.195 81.3343 46.2131 81.3572 46.236C81.3802 46.259 81.3983 46.2863 81.4106 46.3163C81.4228 46.3463 81.429 46.3785 81.4287 46.4109Z" fill="white"/>
<path opacity="0.3" d="M81.0738 50.3208C83.0221 50.3208 84.6016 48.6138 84.6016 46.5082C84.6016 44.4025 83.0221 42.6956 81.0738 42.6956C79.1254 42.6956 77.5459 44.4025 77.5459 46.5082C77.5459 48.6138 79.1254 50.3208 81.0738 50.3208Z" fill="white"/>
<path d="M51.7749 79.572C52.1681 79.8726 60.0623 79.0228 58.0215 65.0176C58.0215 65.0176 61.7664 65.969 62.1686 65.9058C62.1686 65.9058 67.6627 74.3288 63.6625 78.5007C59.6623 82.6727 53.7004 82.9281 53.7004 82.9281L51.7749 79.572Z" fill="#A985FF"/>
<path opacity="0.3" d="M51.7749 79.572C52.1681 79.8726 60.0623 79.0228 58.0215 65.0176C58.0215 65.0176 61.7664 65.969 62.1686 65.9058C62.1686 65.9058 67.6627 74.3288 63.6625 78.5007C59.6623 82.6727 53.7004 82.9281 53.7004 82.9281L51.7749 79.572Z" fill="black"/>
<path d="M60.5236 67.1849C60.5439 67.1849 58.3178 67.2278 57.572 66.3012C56.8262 65.3746 56.3223 63.718 57.6783 62.588C59.0343 61.458 66.9962 56.5765 70.7456 56.1923C74.4949 55.8081 78.5087 58.2263 78.5087 58.2263L73.6 61.8558L63.0299 64.4141L60.5236 67.1849Z" fill="#263238"/>
<path d="M53.3252 77.3662L53.5309 79.3911L55.9626 79.1855L55.5965 77.104L53.3252 77.3662Z" fill="#FFC3BD"/>
<path d="M52.8531 79.2443L56.3809 79.1946L56.6318 80.9755C56.6318 80.9755 53.3277 81.0207 51.9694 80.8399C50.6111 80.6591 50.8236 79.9517 50.8236 79.9517C50.8236 79.9517 52.4146 79.9901 52.8531 79.2443Z" fill="#263238"/>
<path d="M83.6403 84.3701C84.1671 79.1932 81.0417 74.6351 76.6595 74.1892C72.2774 73.7433 68.2979 77.5785 67.7712 82.7554C67.2444 87.9322 70.3698 92.4904 74.7519 92.9363C79.1341 93.3822 83.1135 89.547 83.6403 84.3701Z" fill="#263238"/>
<path d="M70.1625 54.7435C70.1625 54.7435 70.5286 63.1439 65.6425 63.3835C60.7563 63.6231 55.5064 63.0874 55.5064 63.0874L57.0454 78.182L52.4644 78.4645C52.4644 78.4645 49.1761 65.6593 48.6586 62.4411C48.141 59.2228 48.5908 56.947 51.9876 55.5187C55.3843 54.0904 70.1625 54.7435 70.1625 54.7435Z" fill="#A985FF"/>
<path d="M42.8185 81.3958L48.9047 63.7181L57.0407 54.7368C57.0407 54.7368 49.9398 54.7639 46.5272 56.7256C43.1146 58.6873 42.988 61.0445 42.362 63.8491C41.736 66.6538 39.2251 79.929 39.2251 79.929L42.8185 81.3958Z" fill="#A985FF"/>
<path opacity="0.7" d="M70.1622 54.7437C70.1622 54.7437 62.6003 54.4069 57.0542 54.7437C57.0542 54.7437 49.9533 54.7708 46.5407 56.7325C43.1281 58.6941 42.988 61.0445 42.362 63.8492C41.736 66.6539 39.2251 79.9291 39.2251 79.9291L42.8185 81.3958L48.9047 63.7181C49.9285 68.6178 52.4642 78.4556 52.4642 78.4556L57.0452 78.1821L55.5039 63.0966C55.5039 63.0966 60.7516 63.6322 65.64 63.3927C70.5284 63.1531 70.1622 54.7437 70.1622 54.7437Z" fill="black"/>
<path d="M57.6779 41.1182L54.8687 41.4594C54.8687 41.4594 54.3806 46.6235 53.9263 47.627C53.9263 47.627 45.2863 48.8135 41.7472 48.7118L39.9505 49.9322L39.8872 52.0543L41.6477 52.1063L42.215 50.7616C42.215 50.7616 43.4038 50.7096 43.6795 50.0406C43.6795 50.0406 52.8596 52.2577 56.2406 49.7265C56.2451 49.7288 58.2836 46.7343 57.6779 41.1182Z" fill="#FFC3BD"/>
<path d="M65.7283 27.2891C65.7283 27.2891 66.6074 28.4191 66.2729 29.3976C66.1806 29.6767 66.018 29.9273 65.8006 30.1252C65.5833 30.3232 65.3187 30.4617 65.0322 30.5276C65.0322 30.5276 64.8672 32.0938 63.9429 32.139C63.0185 32.1842 63.3281 28.688 63.3281 28.688L65.7283 27.2891Z" fill="#263238"/>
<path d="M58.6114 54.782L57.9945 44.6866L54.166 42.1418C54.166 42.1418 55.4181 37.728 57.8137 36.98C60.2093 36.2319 65.4344 34.5166 68.6029 35.3686C71.7714 36.2206 71.4076 39.9586 70.8629 42.7317L70.2527 42.8763C70.2527 42.8763 70.1578 53.8034 70.1533 54.7436L58.6114 54.782Z" fill="#263238"/>
<path d="M65.5002 35.9925C64.2459 37.2061 61.6876 37.9293 60.9802 37.3259C60.2728 36.7225 61.1655 36.1688 61.83 35.4862C62.1893 35.1111 62.178 34.4082 62.0944 33.8477C62.0504 33.5653 61.9854 33.2866 61.9 33.0138C59.5519 32.885 58.5778 31.7866 58.4807 29.8498C58.3835 27.913 59.2604 25.6643 59.2604 25.6643L60.9192 24.2495C60.9192 24.2495 63.1792 24.5885 64.9872 25.8315C66.063 26.5638 65.7443 28.0056 65.2991 29.0701C65.1105 29.5232 64.8836 29.9594 64.6211 30.3741C64.368 33.0251 65.5002 35.9925 65.5002 35.9925Z" fill="#FFC3BD"/>
<path d="M59.7866 30.383C59.7866 30.383 60.6906 30.426 61.0861 29.8655" stroke="#263238" stroke-width="0.226" stroke-linecap="round" stroke-linejoin="round"/>
<path d="M61.2263 28.096C61.2263 28.2677 61.1223 28.4033 61.0003 28.4011C60.8782 28.3988 60.7901 28.2564 60.7946 28.0847C60.7991 27.9129 60.8986 27.7773 61.0206 27.7796C61.1426 27.7818 61.233 27.9242 61.2263 28.096Z" fill="#263238"/>
<path d="M59.1652 28.1502C59.1652 28.3219 59.0613 28.4575 58.9392 28.4553C58.8172 28.453 58.729 28.3106 58.7336 28.1389C58.7381 27.9671 58.8375 27.8315 58.9596 27.8338C59.0816 27.836 59.172 27.9807 59.1652 28.1502Z" fill="#263238"/>
<path d="M59.8818 29.5536L59.7891 28.1682L59.127 29.4835C59.2303 29.5714 59.3582 29.6252 59.4933 29.6378C59.6284 29.6503 59.764 29.6209 59.8818 29.5536Z" fill="#ED847E"/>
<path d="M61.1177 27.0113C61.291 26.9636 61.4757 26.9791 61.6387 27.0548C61.8018 27.1305 61.9327 27.2617 62.0081 27.4248" stroke="#263238" stroke-width="0.226" stroke-linecap="round" stroke-linejoin="round"/>
<path d="M58.5278 27.2664C58.5278 27.2664 58.9437 26.8144 59.4318 26.9297" stroke="#263238" stroke-width="0.226" stroke-linecap="round" stroke-linejoin="round"/>
<path d="M65.3145 29.0702C62.7291 29.1628 62.4082 26.2316 62.4082 26.2316C61.129 26.9096 59.269 25.6666 59.269 25.6666L60.9279 24.2473C60.9279 24.2473 63.1879 24.5908 64.9959 25.8293C66.0784 26.5638 65.7598 28.0102 65.3145 29.0702Z" fill="#263238"/>
<path d="M58.4376 26.5253C58.4376 26.5253 57.0997 25.6349 57.6896 24.993C58.2794 24.3512 61.8932 25.5716 64.5939 27.0677C64.5939 27.0677 58.4083 22.9297 56.7268 24.2382C55.3369 25.3207 58.4196 26.8236 58.3269 26.8214L58.4376 26.5253Z" fill="#A985FF"/>
<path d="M65.9835 26.2224C65.9798 26.6911 65.8909 27.1551 65.7214 27.592L59.6465 24.654C59.8982 24.3634 60.1997 24.12 60.5369 23.9353C60.8965 23.7297 61.2874 23.5846 61.694 23.5059C62.1253 23.4235 62.5667 23.4082 63.0026 23.4607C65.2242 23.7161 65.9948 25.4247 65.9835 26.2224Z" fill="#A985FF"/>
<path d="M52.0283 53.2452C51.6328 53.6588 46.5184 52.5989 45.6257 53.0735C45.2483 53.2723 45.0833 53.9775 44.7037 54.7504C44.1861 55.8013 43.2663 56.9539 40.8617 57.0307C36.6852 57.1641 37.1892 52.9266 36.8592 51.5502C36.8592 51.5502 32.9042 50.8293 32.6963 50.1355C32.4884 49.4416 32.7437 49.3377 32.7437 49.3377C32.7437 49.3377 37.6231 50.2417 38.5678 49.0077C38.7508 48.829 38.9653 48.6857 39.2006 48.5851C39.7428 48.3467 40.3261 48.2155 40.9182 48.1987C42.638 48.1083 44.7353 48.5919 45.3229 49.6812C46.5162 51.9028 51.6328 51.4033 52.1029 51.9864C52.573 52.5695 52.4238 52.8317 52.0283 53.2452Z" fill="#A985FF"/>
<path d="M39.0805 56.1404C39.0805 56.1404 32.2191 65.6324 37.8691 80.2433" stroke="#263238" stroke-width="0.226" stroke-linecap="round" stroke-linejoin="round"/>
<path d="M48.1362 61.0717C48.1362 61.0717 48.1362 61.0897 48.1362 61.1259C48.1362 61.162 48.1362 61.1824 48.1362 61.2231V61.2457C48.0546 62.1598 47.9035 63.0665 47.6842 63.9577C47.3723 65.2752 46.9587 66.5295 46.6175 67.5375C45.1711 71.8202 45.3383 76.4351 45.3383 76.4351C44.8592 75.8385 43.9823 75.4136 42.8862 75.1153C38.8951 74.0192 32.1196 74.6068 32.1196 74.6068C30.7907 69.9444 31.2653 62.6469 32.5874 58.5608C33.9095 54.4747 37.5752 55.3968 37.5752 55.3968C37.5752 55.3968 41.4444 55.5098 41.9303 55.4578C42.8196 55.3499 43.7196 55.3682 44.6038 55.512C47.5915 56.059 48.3102 58.4207 48.1362 61.0717Z" fill="#A985FF"/>
<path d="M77.9252 78.86C71.1452 84.9801 58.0576 85.622 48.3192 84.944L42.8636 75.1288L40.6533 71.1534L47.7542 61.5823L48.1294 61.0784C48.1294 61.0784 48.1294 61.0964 48.1294 61.1326C48.1294 61.1688 48.1294 61.1891 48.1294 61.2298V61.2524C48.0322 62.9587 47.4039 76.652 52.4234 80.0104L52.4641 80.0398C53.1433 80.4787 53.9314 80.7197 54.7399 80.7358C63.9494 81.0025 63.6918 68.9838 61.3504 66.4097L77.3309 63.1983C77.3309 63.1983 80.4858 71.1421 77.9252 78.86Z" fill="#A985FF"/>
<path d="M60.1505 63.8039C60.1505 63.8039 58.6522 65.0469 59.4251 66.7148C60.198 68.3827 67.6492 65.1441 70.5827 64.5542C73.5162 63.9644 76.9107 63.3881 78.3707 63.0875C79.8306 62.7869 79.7041 58.5991 78.5108 58.2285C77.3175 57.8578 65.6288 59.9235 63.6897 61.058C62.4093 61.8356 61.2219 62.7569 60.1505 63.8039Z" fill="#263238"/>
<path d="M63.902 30.1051C63.7594 29.9516 63.673 29.7543 63.657 29.5454C63.641 29.3364 63.6963 29.1283 63.8138 28.9548C64.1754 28.4124 64.9054 27.5513 65.606 28.1954C66.5868 29.0994 64.9122 30.7425 64.2184 30.3447C64.1021 30.2801 63.9956 30.1995 63.902 30.1051Z" fill="#FFC3BD"/>
<path opacity="0.2" d="M58.4377 26.5253C58.4377 26.5253 57.0998 25.6349 57.6896 24.993C57.9518 24.7083 58.736 24.767 59.7959 25.0699C60.4775 25.2534 61.1452 25.4852 61.7938 25.7637C62.7249 26.1682 63.7148 26.6858 64.5939 27.0677C64.5939 27.0677 58.4083 22.9297 56.7269 24.2382C55.337 25.3207 58.2275 26.7242 58.3292 26.8191L58.3789 26.6361L58.4377 26.5253Z" fill="black"/>
<path d="M59.0723 26.1389C59.0723 26.1389 57.7163 26.3649 58.652 27.8249L59.0723 26.1389Z" fill="#263238"/>
<path d="M60.3722 25.2484C60.3722 25.2484 58.3269 24.5297 57.7573 24.9365C57.1878 25.3433 57.7845 26.1185 58.4353 26.5185L58.9574 26.5863L59.2648 25.6597L60.0603 25.5625L60.3722 25.2484Z" fill="#263238"/>
<path opacity="0.3" d="M63.1587 24.1432L62.6683 24.8687L60.5371 23.9421C60.8966 23.7364 61.2876 23.5914 61.6942 23.5127L63.1587 24.1432Z" fill="white"/>
<path opacity="0.1" d="M62.6839 32.8149C62.5429 33.19 62.3405 33.5391 62.085 33.8478C62.0409 33.5654 61.976 33.2866 61.8906 33.0138C62.1647 32.9947 62.4332 32.9273 62.6839 32.8149Z" fill="black"/>
<path d="M42.423 52.6892C42.3326 54.2554 41.6546 55.5368 40.8229 55.8532C40.679 55.9087 40.5249 55.9326 40.3709 55.9233C39.3449 55.8645 38.5991 54.3255 38.703 52.4881C38.807 50.6507 39.7246 49.2088 40.7506 49.2676C41.1687 49.2902 41.5371 49.5591 41.8241 49.9908C42.2467 50.61 42.484 51.5999 42.423 52.6892Z" fill="#F5F5F5"/>
<path d="M42.423 52.6894C42.3326 54.2556 41.6546 55.537 40.8229 55.8534C39.8737 55.7991 39.1844 54.3776 39.2816 52.6894C39.3788 51.0012 40.224 49.661 41.1732 49.7152C41.4178 49.7335 41.6493 49.8329 41.8309 49.9977C42.2467 50.6102 42.484 51.6001 42.423 52.6894Z" fill="white"/>
<path d="M79.0509 74.8893C77.304 73.6621 70.5443 72.4575 70.5443 72.4575C66.4379 72.4575 62.8332 76.1526 62.336 81.0591C61.9292 85.0502 63.692 88.673 66.5328 90.3251C66.5328 90.3251 66.7701 90.4245 67.1679 90.5805C68.673 91.1748 72.4924 92.6145 74.7502 92.9309" fill="#263238"/>
<path opacity="0.3" d="M83.6403 84.3701C84.1671 79.1932 81.0417 74.6351 76.6595 74.1892C72.2774 73.7433 68.2979 77.5785 67.7712 82.7554C67.2444 87.9322 70.3698 92.4904 74.7519 92.9363C79.1341 93.3822 83.1135 89.547 83.6403 84.3701Z" fill="black"/>
<path d="M48.5065 84.0688C49.0333 78.892 45.9079 74.3338 41.5257 73.8879C37.1436 73.442 33.1641 77.2772 32.6374 82.4541C32.1106 87.631 35.236 92.1891 39.6182 92.635C44.0003 93.0809 47.9798 89.2457 48.5065 84.0688Z" fill="#263238"/>
<path d="M45.4469 75.6148L41.406 92.5806C40.8165 92.6761 40.217 92.6936 39.6229 92.6326H39.5777C38.8025 92.4337 39.1483 92.6484 38.3708 92.3908C36.3933 91.7376 33.5209 90.5828 33.5209 90.5828C30.4767 89.1025 28.7568 85.5023 29.1749 81.3891C29.6811 76.4058 33.2565 72.6836 37.4646 72.9887C37.4646 72.9887 39.4624 73.3571 41.519 73.8927C42.423 74.1187 43.327 74.3876 44.0706 74.6679C44.5628 74.9318 45.0244 75.2494 45.4469 75.6148Z" fill="#263238"/>
<path opacity="0.3" d="M48.5071 84.0581C48.0551 88.5216 45.0335 91.9861 41.4017 92.5715C40.8122 92.667 40.2126 92.6845 39.6185 92.6235H39.5733C38.7459 92.5341 37.9417 92.2944 37.2003 91.9161C34.1471 90.368 32.2148 86.6073 32.6374 82.4489C33.164 77.2758 37.1348 73.4451 41.5147 73.8835H41.526C42.4153 73.9733 43.2783 74.2367 44.0662 74.6587C44.5586 74.9234 45.0202 75.2417 45.4426 75.6079C47.6054 77.4882 48.8642 80.6432 48.5071 84.0581Z" fill="black"/>
<path d="M47.4064 78.1143C47.274 77.903 47.1227 77.704 46.9544 77.5199C45.9442 76.1413 43.6345 75.6261 42.1226 75.7481C40.9635 75.8612 39.8507 76.2604 38.884 76.9097C37.7811 77.6239 36.9924 78.7177 35.8985 79.4681C33.8238 80.9009 30.6757 80.8602 28.5919 79.3844C28.4744 79.3009 28.3627 79.2095 28.2575 79.111C28.0451 78.8899 27.9035 78.6106 27.8507 78.3087C27.7709 77.9317 27.7999 77.5398 27.9343 77.1787C28.3863 75.9085 29.8937 74.7921 30.8452 74.1118C32.7741 72.7509 35.043 71.9521 37.3992 71.8044C44.1181 71.3411 46.9838 77.0792 47.4064 78.1143Z" fill="#A985FF"/>
<path opacity="0.3" d="M46.9411 78.295C45.497 76.2113 43.6438 75.626 42.1318 75.748C40.9728 75.8611 39.86 76.2603 38.8933 76.9096C37.7904 77.6238 37.0016 78.7176 35.9078 79.468C33.8331 80.9008 30.6849 80.8601 28.6012 79.3843C28.4837 79.3008 28.372 79.2094 28.2667 79.1109C28.0544 78.8898 27.9127 78.6105 27.8599 78.3086C27.7802 77.9316 27.8092 77.5397 27.9436 77.1786C28.6419 77.9854 30.6759 79.929 33.4308 78.9866C36.866 77.8001 37.7045 74.2745 41.377 74.3061C44.2946 74.34 46.0914 76.6 46.9411 78.295Z" fill="black"/>
<g opacity="0.3">
<path d="M31.8281 73.4905C32.8081 72.794 33.9107 72.2887 35.078 72.0011C36.2465 71.7037 37.4565 71.6044 38.6578 71.7073C39.8572 71.8228 41.0318 72.1215 42.1405 72.5932L42.5518 72.774L42.9541 72.9752C43.2253 73.1017 43.4807 73.2599 43.7428 73.4046C44.005 73.5492 44.2468 73.7278 44.4977 73.8882C44.7485 74.0487 44.9836 74.2362 45.2231 74.4148C44.2375 73.7544 43.1854 73.1992 42.084 72.7582C40.9848 72.3172 39.8265 72.0408 38.6465 71.9378C37.4691 71.8253 36.2811 71.9015 35.1277 72.1638C34.5487 72.2922 33.981 72.4675 33.4305 72.6882C32.8717 72.9033 32.3351 73.1719 31.8281 73.4905Z" fill="black"/>
</g>
<g opacity="0.3">
<path d="M39.1461 71.8745C38.8643 70.932 38.6952 69.9595 38.6422 68.9772C38.5676 67.9986 38.5518 67.0155 38.5721 66.0392C38.5924 65.0629 38.6602 64.0775 38.7506 63.1012L38.9156 61.6412C38.9879 61.1553 39.0512 60.6694 39.1416 60.1858L38.936 63.1238L38.8546 64.5883C38.841 65.0764 38.8117 65.5646 38.8094 66.0527C38.771 67.0291 38.7891 68.0054 38.8252 68.9907C38.841 69.4789 38.8795 69.9648 38.9292 70.4507C38.9689 70.9297 39.0414 71.4054 39.1461 71.8745Z" fill="black"/>
</g>
<path opacity="0.3" d="M52.4125 79.9901C47.6936 76.955 47.5061 69.1241 47.6665 63.9577C47.6959 63.0695 47.7321 62.2627 47.7592 61.5689C47.8087 60.8744 47.8087 60.1774 47.7592 59.4829C47.2823 55.9347 44.5703 55.5076 44.5703 55.5076H44.5816C47.5852 56.059 48.3038 58.4207 48.1298 61.0717C48.1298 61.0717 48.1298 61.0898 48.1298 61.1259C48.1298 61.1621 48.1298 61.1824 48.1298 61.2231V61.2457C48.0281 62.952 47.3998 76.6453 52.4125 79.9901Z" fill="black"/>
<path opacity="0.2" d="M52.0281 53.2452C51.6326 53.6588 46.5182 52.5989 45.6255 53.0735C45.2481 53.2724 45.0831 53.9775 44.7034 54.7504C43.6367 56.4454 42.1361 56.7121 42.0434 56.7256C43.8333 55.3696 44.3328 52.1062 43.4446 50.0428C42.5564 47.9794 39.3766 48.5151 39.1958 48.5761C39.7381 48.3377 40.3213 48.2065 40.9134 48.1896C42.6333 48.0992 44.7305 48.5829 45.3181 49.6722C46.5114 51.8938 51.6281 51.3943 52.0981 51.9774C52.5682 52.5605 52.4236 52.8317 52.0281 53.2452Z" fill="black"/>
<path d="M48.0236 51.2722C47.7127 51.846 47.5886 52.5026 47.6687 53.1503L52.0012 53.6384C52.2226 53.3821 52.3863 53.0811 52.4811 52.7558C52.5759 52.4306 52.5995 52.0888 52.5503 51.7536C52.5503 51.7536 48.2586 51.3219 48.0236 51.2722Z" fill="#263238"/>
<path d="M34.8678 51.1119C34.8678 51.1119 34.4361 50.1944 34.9537 49.6135C33.7966 49.5096 33.0801 49.3875 32.3343 49.2791C32.2236 49.6158 32.1694 49.939 32.5603 50.452C32.9513 50.965 34.8678 51.1119 34.8678 51.1119Z" fill="#263238"/>
<path d="M32.4609 56.8545C31.7105 58.0772 31.0687 60.0343 31.0122 63.1599" stroke="#A985FF" stroke-width="0.226" stroke-linecap="round" stroke-linejoin="round"/>
<path d="M34.9312 54.8386C34.3854 54.9652 33.8835 55.2361 33.478 55.6228" stroke="#A985FF" stroke-width="0.226" stroke-linecap="round" stroke-linejoin="round"/>
<path d="M68.6345 43.0571L65.7824 43.4052C65.7824 43.4052 65.2852 48.6461 64.8241 49.6654C64.8241 49.6654 56.0531 50.8722 52.4574 50.766L50.6336 52.0045L50.5703 54.1605L52.358 54.2125L52.9343 52.8565C52.9343 52.8565 54.1411 52.8045 54.4191 52.1242C54.4191 52.1242 63.7393 54.3842 67.1723 51.8078C67.17 51.7988 69.2424 48.7591 68.6345 43.0571Z" fill="#FFC3BD"/>
<path opacity="0.2" d="M45.411 83.3801C45.3296 86.2232 43.4674 88.4741 41.2503 88.4108C40.9524 88.4019 40.6572 88.3509 40.3735 88.2594C38.5971 87.6944 37.3179 85.5994 37.388 83.1473C37.4581 80.7743 38.7666 78.8126 40.4865 78.268C40.8301 78.1574 41.1901 78.1062 41.5509 78.1165C43.768 78.1821 45.4946 80.546 45.411 83.3801Z" fill="#FAFAFA"/>
<path d="M43.3702 83.38C43.3002 85.8072 42.0142 87.8028 40.3735 88.2661C38.5971 87.7011 37.3179 85.6061 37.388 83.154C37.4581 80.781 38.7666 78.8193 40.4865 78.2747C42.195 78.738 43.4403 80.8669 43.3702 83.38Z" fill="#263238"/>
<path opacity="0.2" d="M80.233 83.6061C80.1493 86.4492 78.2871 88.7025 76.0723 88.6369C75.7742 88.6292 75.4788 88.5782 75.1954 88.4855C73.4168 87.9205 72.1376 85.8277 72.21 83.3734C72.2778 81.0026 73.5863 79.0387 75.3062 78.494C75.6498 78.3835 76.0098 78.3323 76.3706 78.3426C78.5877 78.4081 80.3143 80.7676 80.233 83.6061Z" fill="#FAFAFA"/>
<path d="M78.1922 83.6061C78.1199 86.0311 76.8362 88.0267 75.1954 88.49C73.4168 87.925 72.1376 85.8322 72.21 83.3779C72.2778 81.0071 73.5863 79.0432 75.3062 78.4985C77.017 78.9618 78.2645 81.0908 78.1922 83.6061Z" fill="#263238"/>
<path d="M83.7271 76.1165C83.7655 78.9121 79.5099 80.7631 72.3886 81.9292C70.4691 82.2668 68.5074 82.2897 66.5805 81.9971C63.4165 81.475 61.8706 80.1371 61.8706 80.1371C61.8706 80.1371 62.6752 70.4756 70.6371 69.2507C76.0611 68.419 80.1427 70.6067 82.2129 72.9638C83.1869 74.0712 83.7158 75.2216 83.7271 76.1165Z" fill="#A985FF"/>
<path opacity="0.3" d="M83.7267 76.1165C83.7651 78.9122 79.5095 80.7631 72.3883 81.9293C70.4687 82.2668 68.507 82.2897 66.5801 81.9971C66.9213 79.3732 68.4536 72.4915 75.1138 71.7774C78.1355 71.4519 80.4678 72.0621 82.2125 72.9639C83.1866 74.0713 83.7154 75.2216 83.7267 76.1165Z" fill="black"/>
<g opacity="0.3">
<path d="M62.3315 80.18C62.4781 78.8649 62.7917 77.5738 63.2649 76.338C63.7302 75.0895 64.3726 73.9143 65.1724 72.8486C65.5765 72.3188 66.0306 71.8292 66.5284 71.3863C67.0217 70.9363 67.5654 70.545 68.1488 70.2202C69.3096 69.5656 70.5959 69.1643 71.923 69.0427C71.2727 69.1517 70.633 69.3165 70.011 69.5354C69.6969 69.6303 69.4008 69.7772 69.107 69.9015C68.8122 70.0427 68.5248 70.1988 68.246 70.3693C67.9612 70.5321 67.699 70.7287 67.4301 70.9117C67.1612 71.0948 66.9126 71.3118 66.6753 71.54C66.1927 71.9786 65.753 72.4621 65.3622 72.9842C64.5683 74.0294 63.9212 75.1783 63.4389 76.399C63.1885 77.0071 62.9728 77.6288 62.7926 78.2613C62.6008 78.8911 62.4469 79.5318 62.3315 80.18Z" fill="black"/>
</g>
<path d="M51.646 76.9888L52.1161 78.5843L57.0451 78.173L57.1107 75.9424L51.646 76.9888Z" fill="#A985FF"/>
<path d="M80.9922 66.1067L91.8379 65.666" stroke="#A985FF" stroke-width="0.226" stroke-linecap="round" stroke-linejoin="round"/>
<path d="M95.4224 63.6908L97.0337 63.6252" stroke="#A985FF" stroke-width="0.226" stroke-linecap="round" stroke-linejoin="round"/>
<path d="M86.1899 64.0659L94.1858 63.7405" stroke="#A985FF" stroke-width="0.226" stroke-linecap="round" stroke-linejoin="round"/>
<path d="M91.7861 69.6799L98.487 69.4087" stroke="#A985FF" stroke-width="0.226" stroke-linecap="round" stroke-linejoin="round"/>
<path d="M87.6436 69.8493L90.5635 69.7295" stroke="#A985FF" stroke-width="0.226" stroke-linecap="round" stroke-linejoin="round"/>
</g>
<defs>
<clipPath id="clip0_831_56699">
<rect width="113" height="113" fill="white" transform="translate(0.5 -2.5)"/>
</clipPath>
</defs>
</svg>
