<?xml version="1.0" encoding="UTF-8"?>
<svg xmlns="http://www.w3.org/2000/svg" xmlns:xlink="http://www.w3.org/1999/xlink" width="13px" height="15px" viewBox="0 0 13 15" version="1.1">
<g id="surface1">
<path style=" stroke:none;fill-rule:nonzero;fill:rgb(30.980393%,30.980393%,30.980393%);fill-opacity:1;" d="M 7.863281 3.308594 C 7.996094 3.441406 8.171875 3.515625 8.355469 3.515625 C 8.542969 3.515625 8.71875 3.441406 8.847656 3.308594 L 9.519531 2.632812 L 9.519531 12.1875 C 9.519531 12.375 9.589844 12.554688 9.722656 12.683594 C 9.851562 12.816406 10.03125 12.890625 10.214844 12.890625 C 10.398438 12.890625 10.578125 12.816406 10.707031 12.683594 C 10.835938 12.554688 10.910156 12.375 10.910156 12.1875 L 10.910156 2.632812 L 11.578125 3.308594 C 11.644531 3.378906 11.71875 3.433594 11.804688 3.472656 C 11.890625 3.511719 11.984375 3.53125 12.078125 3.53125 C 12.171875 3.535156 12.261719 3.515625 12.351562 3.480469 C 12.4375 3.445312 12.515625 3.394531 12.582031 3.328125 C 12.648438 3.261719 12.699219 3.179688 12.734375 3.09375 C 12.769531 3.007812 12.785156 2.910156 12.785156 2.816406 C 12.785156 2.722656 12.761719 2.628906 12.726562 2.542969 C 12.6875 2.457031 12.632812 2.378906 12.5625 2.316406 L 10.707031 0.441406 C 10.574219 0.308594 10.398438 0.234375 10.214844 0.234375 C 10.03125 0.234375 9.851562 0.308594 9.722656 0.441406 L 7.863281 2.316406 C 7.734375 2.449219 7.660156 2.625 7.660156 2.8125 C 7.660156 3 7.734375 3.175781 7.863281 3.308594 Z M 3.480469 12.367188 L 4.152344 11.691406 C 4.214844 11.621094 4.292969 11.566406 4.375 11.527344 C 4.460938 11.488281 4.554688 11.46875 4.648438 11.46875 C 4.742188 11.464844 4.835938 11.484375 4.921875 11.519531 C 5.007812 11.554688 5.085938 11.605469 5.152344 11.671875 C 5.21875 11.738281 5.269531 11.820312 5.304688 11.90625 C 5.339844 11.996094 5.359375 12.089844 5.355469 12.183594 C 5.355469 12.277344 5.335938 12.371094 5.296875 12.457031 C 5.257812 12.542969 5.203125 12.621094 5.136719 12.683594 L 3.277344 14.558594 C 3.148438 14.691406 2.96875 14.765625 2.785156 14.765625 C 2.601562 14.765625 2.425781 14.691406 2.292969 14.558594 L 0.4375 12.683594 C 0.367188 12.621094 0.3125 12.542969 0.273438 12.457031 C 0.238281 12.371094 0.214844 12.277344 0.214844 12.183594 C 0.214844 12.089844 0.230469 11.996094 0.265625 11.90625 C 0.300781 11.820312 0.351562 11.738281 0.417969 11.671875 C 0.484375 11.605469 0.5625 11.554688 0.652344 11.519531 C 0.738281 11.484375 0.832031 11.464844 0.921875 11.46875 C 1.015625 11.46875 1.109375 11.488281 1.195312 11.527344 C 1.28125 11.566406 1.355469 11.621094 1.421875 11.691406 L 2.089844 12.367188 L 2.089844 2.8125 C 2.089844 2.625 2.164062 2.445312 2.292969 2.316406 C 2.425781 2.183594 2.601562 2.109375 2.785156 2.109375 C 2.96875 2.109375 3.148438 2.183594 3.277344 2.316406 C 3.410156 2.445312 3.480469 2.625 3.480469 2.8125 Z M 3.480469 12.367188 "/>
</g>
</svg>
