<svg width="18" height="18" viewBox="0 0 18 18" fill="none" xmlns="http://www.w3.org/2000/svg">
<g clip-path="url(#clip0_1156_25527)">
<path d="M11.8231 3C12.2408 3.00001 12.6504 3.11635 13.0058 3.33598C13.3612 3.5556 13.6484 3.86984 13.8353 4.2435L14.8726 6.31725C15.0556 6.24225 15.2378 6.1665 15.4148 6.07875C15.5928 5.98984 15.7989 5.97528 15.9876 6.0383C16.1764 6.10131 16.3324 6.23672 16.4213 6.41475C16.5102 6.59278 16.5248 6.79883 16.4618 6.98759C16.3987 7.17634 16.2633 7.33234 16.0853 7.42125C15.7148 7.60575 15.5453 7.66275 15.5453 7.66275L16.2623 9.0975C16.4191 9.41025 16.5001 9.7545 16.5001 10.104V12C16.5005 12.3166 16.4339 12.6298 16.3047 12.9188C16.1754 13.2079 15.9864 13.4663 15.7501 13.677V14.625C15.7501 14.9234 15.6315 15.2095 15.4205 15.4205C15.2096 15.6315 14.9234 15.75 14.6251 15.75C14.3267 15.75 14.0405 15.6315 13.8296 15.4205C13.6186 15.2095 13.5001 14.9234 13.5001 14.625V14.25H4.50005V14.625C4.50005 14.9234 4.38153 15.2095 4.17055 15.4205C3.95957 15.6315 3.67342 15.75 3.37505 15.75C3.07669 15.75 2.79054 15.6315 2.57956 15.4205C2.36858 15.2095 2.25005 14.9234 2.25005 14.625V13.677C1.78955 13.2645 1.50005 12.666 1.50005 12V10.104C1.50019 9.75484 1.58159 9.41051 1.7378 9.09825L2.4548 7.66275C2.27315 7.58742 2.09358 7.50714 1.9163 7.422C1.8279 7.37814 1.74902 7.31727 1.68419 7.24286C1.61936 7.16846 1.56985 7.082 1.53849 6.98843C1.50714 6.89485 1.49456 6.79601 1.50148 6.69757C1.5084 6.59913 1.53467 6.50302 1.5788 6.41475C1.66968 6.23765 1.82656 6.10339 2.01557 6.04094C2.20458 5.9785 2.41056 5.99289 2.58905 6.081C2.7653 6.1665 2.94605 6.24375 3.12755 6.31725L4.1648 4.2435C4.3517 3.86984 4.63893 3.5556 4.99433 3.33598C5.34973 3.11635 5.75927 3.00001 6.17705 3H11.8231ZM14.1256 8.178C12.8506 8.58075 11.0363 9 9.00006 9C6.96381 9 5.14955 8.58 3.87455 8.178L3.07955 9.768C3.02728 9.87229 3.00006 9.98734 3.00005 10.104V12C3.00005 12.1989 3.07907 12.3897 3.21972 12.5303C3.36038 12.671 3.55114 12.75 3.75005 12.75H14.2501C14.449 12.75 14.6397 12.671 14.7804 12.5303C14.921 12.3897 15.0001 12.1989 15.0001 12V10.104C14.9999 9.9876 14.9727 9.87282 14.9206 9.76875L14.1256 8.178ZM5.62505 9.75C5.92342 9.75 6.20957 9.86853 6.42055 10.0795C6.63153 10.2905 6.75005 10.5766 6.75005 10.875C6.75005 11.1734 6.63153 11.4595 6.42055 11.6705C6.20957 11.8815 5.92342 12 5.62505 12C5.32669 12 5.04054 11.8815 4.82956 11.6705C4.61858 11.4595 4.50005 11.1734 4.50005 10.875C4.50005 10.5766 4.61858 10.2905 4.82956 10.0795C5.04054 9.86853 5.32669 9.75 5.62505 9.75ZM12.3751 9.75C12.6734 9.75 12.9596 9.86853 13.1705 10.0795C13.3815 10.2905 13.5001 10.5766 13.5001 10.875C13.5001 11.1734 13.3815 11.4595 13.1705 11.6705C12.9596 11.8815 12.6734 12 12.3751 12C12.0767 12 11.7905 11.8815 11.5796 11.6705C11.3686 11.4595 11.2501 11.1734 11.2501 10.875C11.2501 10.5766 11.3686 10.2905 11.5796 10.0795C11.7905 9.86853 12.0767 9.75 12.3751 9.75ZM11.8231 4.5H6.17705C6.03781 4.50007 5.90133 4.53891 5.78291 4.61216C5.66449 4.68542 5.5688 4.79019 5.50655 4.91475L4.55405 6.8175C5.71505 7.16625 7.27956 7.5 9.00006 7.5C10.7206 7.5 12.2851 7.16625 13.4453 6.8175L12.4936 4.91475C12.4313 4.79019 12.3356 4.68542 12.2172 4.61216C12.0988 4.53891 11.9623 4.50007 11.8231 4.5Z" fill="#4F4F4F"/>
</g>
<defs>
<clipPath id="clip0_1156_25527">
<rect width="18" height="18" fill="white"/>
</clipPath>
</defs>
</svg>
