<svg width="20" height="21" viewBox="0 0 20 21" fill="none" xmlns="http://www.w3.org/2000/svg">
<path d="M10.3084 2.29121L17.8084 5.29119C18.1 5.40786 18.3334 5.75785 18.3334 6.06618V8.83286C18.3334 9.29119 17.9584 9.66619 17.5 9.66619H2.50002C2.04169 9.66619 1.66669 9.29119 1.66669 8.83286V6.06618C1.66669 5.75785 1.90002 5.40786 2.19169 5.29119L9.69169 2.29121C9.85836 2.22454 10.1417 2.22454 10.3084 2.29121Z" stroke="#292D32" stroke-width="1.2" stroke-miterlimit="10" stroke-linecap="round" stroke-linejoin="round"/>
<path d="M18.3334 18.8333H1.66669V16.3333C1.66669 15.875 2.04169 15.5 2.50002 15.5H17.5C17.9584 15.5 18.3334 15.875 18.3334 16.3333V18.8333Z" stroke="#292D32" stroke-width="1.2" stroke-miterlimit="10" stroke-linecap="round" stroke-linejoin="round"/>
<path d="M3.33331 15.5003V9.66699" stroke="#292D32" stroke-width="1.2" stroke-miterlimit="10" stroke-linecap="round" stroke-linejoin="round"/>
<path d="M6.66669 15.5003V9.66699" stroke="#292D32" stroke-width="1.2" stroke-miterlimit="10" stroke-linecap="round" stroke-linejoin="round"/>
<path d="M10 15.5003V9.66699" stroke="#292D32" stroke-width="1.2" stroke-miterlimit="10" stroke-linecap="round" stroke-linejoin="round"/>
<path d="M13.3333 15.5003V9.66699" stroke="#292D32" stroke-width="1.2" stroke-miterlimit="10" stroke-linecap="round" stroke-linejoin="round"/>
<path d="M16.6667 15.5003V9.66699" stroke="#292D32" stroke-width="1.2" stroke-miterlimit="10" stroke-linecap="round" stroke-linejoin="round"/>
<path d="M0.833313 18.833H19.1666" stroke="#292D32" stroke-width="1.2" stroke-miterlimit="10" stroke-linecap="round" stroke-linejoin="round"/>
<path d="M10 7.58301C10.6904 7.58301 11.25 7.02336 11.25 6.33301C11.25 5.64265 10.6904 5.08301 10 5.08301C9.30964 5.08301 8.75 5.64265 8.75 6.33301C8.75 7.02336 9.30964 7.58301 10 7.58301Z" stroke="#292D32" stroke-width="1.2" stroke-miterlimit="10" stroke-linecap="round" stroke-linejoin="round"/>
</svg>
