<svg width="24" height="24" viewBox="0 0 24 24" fill="none" xmlns="http://www.w3.org/2000/svg">
<path d="M12 15.6C12.9548 15.6 13.8705 15.2207 14.5456 14.5456C15.2207 13.8705 15.6 12.9548 15.6 12C15.6 11.0452 15.2207 10.1296 14.5456 9.45444C13.8705 8.77931 12.9548 8.40002 12 8.40002C11.0452 8.40002 10.1296 8.77931 9.45444 9.45444C8.77931 10.1296 8.40002 11.0452 8.40002 12C8.40002 12.9548 8.77931 13.8705 9.45444 14.5456C10.1296 15.2207 11.0452 15.6 12 15.6ZM12.6 3.00002C12.6 2.84089 12.5368 2.68828 12.4243 2.57576C12.3118 2.46324 12.1592 2.40002 12 2.40002C11.8409 2.40002 11.6883 2.46324 11.5758 2.57576C11.4632 2.68828 11.4 2.84089 11.4 3.00002V4.82402C9.70345 4.96591 8.11201 5.70431 6.90816 6.90816C5.70431 8.11201 4.96591 9.70345 4.82402 11.4H3.00002C2.84089 11.4 2.68828 11.4632 2.57576 11.5758C2.46324 11.6883 2.40002 11.8409 2.40002 12C2.40002 12.1592 2.46324 12.3118 2.57576 12.4243C2.68828 12.5368 2.84089 12.6 3.00002 12.6H4.82402C4.96591 14.2966 5.70431 15.888 6.90816 17.0919C8.11201 18.2957 9.70345 19.0341 11.4 19.176V21C11.4 21.1592 11.4632 21.3118 11.5758 21.4243C11.6883 21.5368 11.8409 21.6 12 21.6C12.1592 21.6 12.3118 21.5368 12.4243 21.4243C12.5368 21.3118 12.6 21.1592 12.6 21V19.176C14.2965 19.0339 15.8878 18.2954 17.0916 17.0916C18.2954 15.8878 19.0339 14.2965 19.176 12.6H21C21.1592 12.6 21.3118 12.5368 21.4243 12.4243C21.5368 12.3118 21.6 12.1592 21.6 12C21.6 11.8409 21.5368 11.6883 21.4243 11.5758C21.3118 11.4632 21.1592 11.4 21 11.4H19.176C19.0341 9.70345 18.2957 8.11201 17.0919 6.90816C15.888 5.70431 14.2966 4.96591 12.6 4.82402V3.00002ZM12 18C10.4087 18 8.8826 17.3679 7.75738 16.2427C6.63217 15.1174 6.00002 13.5913 6.00002 12C6.00002 10.4087 6.63217 8.8826 7.75738 7.75738C8.8826 6.63217 10.4087 6.00002 12 6.00002C13.5913 6.00002 15.1174 6.63217 16.2427 7.75738C17.3679 8.8826 18 10.4087 18 12C18 13.5913 17.3679 15.1174 16.2427 16.2427C15.1174 17.3679 13.5913 18 12 18Z" fill="#6A1AD3"/>
</svg>
