<svg width="16" height="16" viewBox="0 0 16 16" fill="none" xmlns="http://www.w3.org/2000/svg">
<path d="M5.07769 5.808L7.21436 4.256C7.45421 4.08047 7.74596 3.99034 8.04302 4C8.40536 4.00904 8.75588 4.13074 9.04586 4.34819C9.33583 4.56564 9.55085 4.86803 9.66102 5.21333C9.78502 5.602 9.89836 5.86467 10.001 6.00067C10.3112 6.41466 10.7135 6.75066 11.1762 6.98199C11.6389 7.21332 12.1491 7.33362 12.6664 7.33333V8.66667C11.978 8.66732 11.2981 8.51537 10.6755 8.22177C10.0529 7.92816 9.50308 7.5002 9.06569 6.96867L8.60036 9.606L9.97436 10.7587L11.4564 14.8307L10.203 15.2867L8.84369 11.5507L6.58369 9.654C6.3981 9.50431 6.25605 9.30759 6.17233 9.08434C6.08861 8.86109 6.06629 8.61948 6.10769 8.38467L6.44702 6.46133L5.99569 6.78933L4.57769 8.74133L3.49902 7.95733L5.06636 5.8L5.07769 5.808ZM8.99969 3.66667C8.64607 3.66667 8.30693 3.52619 8.05688 3.27614C7.80683 3.02609 7.66636 2.68696 7.66636 2.33333C7.66636 1.97971 7.80683 1.64057 8.05688 1.39052C8.30693 1.14048 8.64607 1 8.99969 1C9.35331 1 9.69245 1.14048 9.9425 1.39052C10.1925 1.64057 10.333 1.97971 10.333 2.33333C10.333 2.68696 10.1925 3.02609 9.9425 3.27614C9.69245 3.52619 9.35331 3.66667 8.99969 3.66667ZM7.01969 12.454L4.87702 15.0073L3.85569 14.1507L5.83902 11.7867L6.33636 10.3333L7.53036 11.3333L7.01969 12.454Z" fill="#414141"/>
</svg>
