<svg width="18" height="18" viewBox="0 0 18 18" fill="none" xmlns="http://www.w3.org/2000/svg">
<path d="M8.80998 9.12927C8.55165 8.87093 8.30033 8.61208 8.06924 8.34912L8.06301 8.34203L8.05699 8.33476L7.83949 8.07226L7.83938 8.07213L7.44188 7.59213L7.42854 7.57602L7.41626 7.55908L7.19876 7.25908L7.19356 7.25191L7.18855 7.24459C7.14876 7.18643 7.10712 7.1291 7.05973 7.06384L7.04995 7.05037C7.00077 6.98264 6.94482 6.90533 6.89167 6.82561L6.88559 6.81649L6.87983 6.80718L6.68483 6.49218L6.68433 6.49137L6.46683 6.13887L6.46108 6.12955L6.45564 6.12004C6.41551 6.0498 6.35918 5.93984 6.32265 5.86851C6.30769 5.83931 6.29605 5.81659 6.29019 5.80571C6.2844 5.79495 6.27588 5.77978 6.26548 5.76126C6.22577 5.69053 6.15862 5.57094 6.11097 5.46149C6.06452 5.3594 6.02359 5.25489 5.98836 5.14842C5.98478 5.13959 5.9799 5.1277 5.97412 5.11361C5.94576 5.04453 5.89566 4.9225 5.87086 4.8481L6.4875 4.64255L5.87086 4.8481C5.83895 4.75237 5.81646 4.65319 5.80422 4.5992C5.80112 4.58555 5.79868 4.57479 5.79691 4.5677L6.4275 4.41005L5.79691 4.5677C5.77065 4.46265 5.75311 4.37497 5.73832 4.30099L5.73763 4.29753L5.7287 4.25289L5.72608 4.20744C5.72193 4.13541 5.72111 4.06324 5.72361 3.99115C5.71667 3.89986 5.7187 3.80805 5.7297 3.71705L5.73834 3.64555L5.76242 3.57768L5.84492 3.34518L5.89404 3.20678L5.99788 3.10293C6.14745 2.95336 6.32672 2.88626 6.46425 2.85449C6.60696 2.82153 6.75425 2.81494 6.89342 2.82167C7.17197 2.83514 7.49372 2.90592 7.83995 3.02448C8.5374 3.2633 9.41759 3.7247 10.3983 4.47004L11.2677 5.1308L10.2724 5.58001C10.0714 5.67074 9.86307 5.74338 9.65 5.79729V6.00396C10.0938 5.90312 10.5197 5.73027 10.9104 5.49085L11.3378 5.22889L11.6997 5.57576L12.0597 5.92076L12.0697 5.93033L12.0696 5.93043C12.3991 6.25988 12.7028 6.59497 12.9877 6.92609L13.1495 7.11409L13.1657 7.01173L14.0876 8.40971C14.3341 8.78343 14.5527 9.1748 14.7417 9.58061L14.7465 9.59082L14.7509 9.60119C14.9782 10.137 15.0983 10.5881 15.1348 10.9494C15.153 11.1291 15.1523 11.3046 15.1236 11.4658C15.0983 11.6078 15.0355 11.8286 14.8538 12.0001L14.6659 12.1775H14.4858C14.3553 12.2184 14.2254 12.233 14.112 12.236C13.9353 12.2408 13.7474 12.2189 13.5574 12.1795C13.1769 12.1007 12.7306 11.9401 12.2433 11.7C11.2655 11.2181 10.0647 10.3878 8.80998 9.12927ZM8.80998 9.12927C8.80988 9.12917 8.80978 9.12906 8.80967 9.12896L9.26977 8.67028L8.81038 9.12967C8.81025 9.12954 8.81012 9.1294 8.80998 9.12927ZM13.3793 7.08027L13.8494 6.78068C14.6778 6.25266 15.6259 5.95044 16.6 5.89853V6.09929C15.7203 6.15084 14.8615 6.40872 14.0949 6.85616L13.4795 7.21527L13.8934 7.79517C14.5876 8.76771 15.07 9.71406 15.2615 10.5089C15.4507 11.2941 15.3334 11.8041 15.0348 12.118L14.8995 12.234L14.8539 12.2731L14.8162 12.3199C14.8063 12.3323 14.7935 12.3421 14.7791 12.3485L4.5054 15.7556L4.50539 15.7556L4.50119 15.757C4.32568 15.8165 4.14188 15.8479 3.95657 15.8501C3.67002 15.8498 3.38761 15.7816 3.13257 15.6509C2.87667 15.5197 2.65569 15.3295 2.48795 15.0959C2.3202 14.8624 2.21051 14.5922 2.16797 14.3079C2.12542 14.0235 2.15125 13.733 2.2433 13.4606L2.24353 13.4599L5.55047 3.63658L5.55103 3.63493L5.68547 3.23908L5.72 3.13742V3.12024C5.75475 3.06628 5.79482 3.01582 5.83967 2.96963C6.18664 2.62506 6.79327 2.50975 7.75402 2.81197C8.69734 3.10871 9.8048 3.76316 10.8954 4.63929L11.3499 5.00439L11.762 4.59233C11.762 4.59235 11.7655 4.58941 11.8011 4.55971C11.8308 4.53495 11.8841 4.49024 11.9399 4.4293C12.344 4.02026 12.7034 3.41694 12.4182 2.74581L12.4027 2.70939L12.383 2.67511C12.1917 2.34382 11.9156 2.06954 11.583 1.88057C11.4454 1.80236 11.3001 1.73994 11.15 1.69401V1.47197C11.3668 1.52814 11.5754 1.61622 11.7684 1.73431C12.136 1.9591 12.4323 2.28322 12.6232 2.66901C12.7367 2.9899 12.752 3.33757 12.6669 3.66757C12.5794 4.00685 12.39 4.31112 12.1241 4.53935L12.0195 4.62903L11.4671 5.10251L11.9996 5.59828L12.2085 5.79277C12.4832 6.06806 12.7473 6.36046 13.0116 6.66142L13.3793 7.08027ZM4.47924 15.5646L4.48055 15.5642L7.49555 14.5592L8.89941 14.0912L7.60505 13.374C6.34507 12.6758 5.31713 11.6239 4.64816 10.3482L3.9374 8.99278L3.45556 10.4454L2.43556 13.5204L2.43542 13.5208C2.34122 13.8054 2.32797 14.1106 2.39716 14.4023L3.02962 14.2523L2.39717 14.4023C2.46636 14.6941 2.61526 14.9608 2.82726 15.1728C3.03925 15.3848 3.30599 15.5337 3.5977 15.6029C3.88942 15.6721 4.19462 15.6588 4.47924 15.5646ZM9.3586 13.8284L9.54872 13.8787L9.73487 13.8152L11.9774 13.0502L11.8399 12.2214L12.0273 11.857C11.787 11.7335 11.5345 11.5866 11.2732 11.427L11.0474 11.2814L11.0465 11.2808C10.8961 11.1841 10.7526 11.0808 10.5907 10.9644C10.5478 10.9335 10.5036 10.9017 10.4577 10.8689L10.1954 10.6704L9.62455 10.2093L9.41674 10.033C9.29078 9.8939 9.17018 9.7758 9.0549 9.66495C9.03157 9.64252 9.00861 9.62052 8.98584 9.59871C8.88431 9.50145 8.78664 9.40789 8.67805 9.29644C8.39859 9.00962 8.1398 8.73629 7.89775 8.45898L7.68552 8.20284L7.68556 8.2028L7.67981 8.19605C7.53128 8.02168 7.32544 7.75939 7.22558 7.63214C7.21651 7.62058 7.20831 7.61013 7.20111 7.60097C7.17093 7.56255 7.15673 7.54246 7.13247 7.50724C7.12889 7.50204 7.12513 7.49657 7.12116 7.49079C7.09361 7.45071 7.05552 7.39528 6.9925 7.30775L6.465 7.68755L6.9925 7.30775C6.86015 7.12393 6.69251 6.88325 6.62334 6.7795L6.0825 7.14005L6.62333 6.77949C6.59946 6.74369 6.58639 6.72105 6.56338 6.67996C6.56116 6.676 6.55888 6.67191 6.55652 6.66769C6.53114 6.6223 6.49703 6.5613 6.44273 6.47209C6.33443 6.29417 6.24451 6.14563 6.17638 6.00936L6.15828 5.97316L6.13583 5.93949L6.09083 5.87199L5.35363 4.7662L4.93336 6.027L4.18336 8.277L4.12177 8.46177L4.17193 8.64995C4.50341 9.89363 5.15771 11.0276 6.06855 11.937C6.97938 12.8464 8.11439 13.4989 9.3586 13.8284ZM12.903 8.66559C12.8813 8.80237 12.8682 8.94016 12.8637 9.07817L12.6506 9.11972C12.675 8.61414 12.8142 8.11764 13.0613 7.66915L12.903 8.66559Z" fill="#262626" stroke="#3D3D3D" stroke-width="1.3"/>
</svg>
