<svg xmlns="http://www.w3.org/2000/svg" viewBox="0 0 500 500"><g id="freepik--background-simple--inject-8"><path d="M211.6,468.82A108.48,108.48,0,0,0,262,476C366.39,466,469,378.86,457.73,263.5c-5.21-53.32-30.2-117.69-81.54-142.92-41.64-20.46-90.11-16.76-133-11.7-27,3.18-54.12,9.29-81.59,9.12-35.63-.21-80.39,3.48-94.48,41.76-19.19,52.16-1.9,112.73,18,164.66C106.74,380.76,143,435.61,198,462.83Q204.69,466.13,211.6,468.82Z" style="fill:#D3B9F5"></path><path d="M211.6,468.82A108.48,108.48,0,0,0,262,476C366.39,466,469,378.86,457.73,263.5c-5.21-53.32-30.2-117.69-81.54-142.92-41.64-20.46-90.11-16.76-133-11.7-27,3.18-54.12,9.29-81.59,9.12-35.63-.21-80.39,3.48-94.48,41.76-19.19,52.16-1.9,112.73,18,164.66C106.74,380.76,143,435.61,198,462.83Q204.69,466.13,211.6,468.82Z" style="fill:#fff;opacity:0.7000000000000001"></path></g><g id="freepik--Sun--inject-8"><path d="M348.11,26.89a.5.5,0,0,1-.5-.5V18a.5.5,0,0,1,.5-.5.51.51,0,0,1,.5.5v8.36A.51.51,0,0,1,348.11,26.89Z" style="fill:#263238"></path><path d="M348.11,136.64a.5.5,0,0,1-.5-.5v-6.92a.5.5,0,0,1,.5-.5.51.51,0,0,1,.5.5v6.92A.5.5,0,0,1,348.11,136.64Z" style="fill:#263238"></path><path d="M407.15,78.3h-7.63a.5.5,0,0,1-.5-.5.51.51,0,0,1,.5-.5h7.63a.5.5,0,0,1,.5.5A.5.5,0,0,1,407.15,78.3Z" style="fill:#263238"></path><path d="M296.69,78.3h-7.63a.5.5,0,0,1-.5-.5.5.5,0,0,1,.5-.5h7.63a.51.51,0,0,1,.5.5A.5.5,0,0,1,296.69,78.3Z" style="fill:#263238"></path><path d="M384.46,42a.5.5,0,0,1-.35-.15.51.51,0,0,1,0-.71l5.75-5.75a.5.5,0,1,1,.71.71l-5.75,5.75A.51.51,0,0,1,384.46,42Z" style="fill:#263238"></path><path d="M306.71,119.71a.49.49,0,0,1-.35-.15.5.5,0,0,1,0-.71l5-5a.5.5,0,0,1,.71,0,.48.48,0,0,1,0,.7l-5,5A.51.51,0,0,1,306.71,119.71Z" style="fill:#263238"></path><path d="M311.75,42a.51.51,0,0,1-.36-.15l-5.75-5.75a.5.5,0,0,1,.71-.71l5.75,5.75a.5.5,0,0,1,0,.71A.49.49,0,0,1,311.75,42Z" style="fill:#263238"></path><path d="M389.5,119.71a.47.47,0,0,1-.35-.15l-5-5a.5.5,0,0,1,0-.7.5.5,0,0,1,.71,0l5,5a.5.5,0,0,1,0,.71A.47.47,0,0,1,389.5,119.71Z" style="fill:#263238"></path><circle cx="348.11" cy="77.09" r="20.72" style="fill:#D3B9F5"></circle><path d="M348.11,98.31a21.22,21.22,0,1,1,21.22-21.22A21.24,21.24,0,0,1,348.11,98.31Zm0-41.44a20.22,20.22,0,1,0,20.22,20.22A20.24,20.24,0,0,0,348.11,56.87Z" style="fill:#263238"></path><path d="M348.11,52.11a.5.5,0,0,1-.5-.5V36.37a.5.5,0,0,1,.5-.5.5.5,0,0,1,.5.5V51.61A.51.51,0,0,1,348.11,52.11Z" style="fill:#263238"></path><path d="M348.11,119.75a.5.5,0,0,1-.5-.5V104a.5.5,0,0,1,.5-.5.51.51,0,0,1,.5.5v15.25A.51.51,0,0,1,348.11,119.75Z" style="fill:#263238"></path><path d="M389.55,78.31H374.3a.51.51,0,0,1-.5-.5.5.5,0,0,1,.5-.5h15.25a.5.5,0,0,1,.5.5A.51.51,0,0,1,389.55,78.31Z" style="fill:#263238"></path><path d="M321.91,78.31H306.67a.5.5,0,0,1-.5-.5.5.5,0,0,1,.5-.5h15.24a.5.5,0,0,1,.5.5A.51.51,0,0,1,321.91,78.31Z" style="fill:#263238"></path><path d="M366.63,59.78a.5.5,0,0,1-.35-.85l10.78-10.78a.48.48,0,0,1,.7,0,.5.5,0,0,1,0,.71L367,59.63A.47.47,0,0,1,366.63,59.78Z" style="fill:#263238"></path><path d="M318.8,107.61a.5.5,0,0,1-.35-.15.51.51,0,0,1,0-.71L329.23,96a.5.5,0,0,1,.71,0,.5.5,0,0,1,0,.7l-10.78,10.78A.51.51,0,0,1,318.8,107.61Z" style="fill:#263238"></path><path d="M329.58,59.78a.49.49,0,0,1-.35-.15L318.45,48.86a.51.51,0,0,1,0-.71.5.5,0,0,1,.71,0l10.78,10.78a.5.5,0,0,1,0,.7A.51.51,0,0,1,329.58,59.78Z" style="fill:#263238"></path><path d="M377.41,107.61a.47.47,0,0,1-.35-.15L366.28,96.68a.49.49,0,0,1,.7-.7l10.78,10.77a.5.5,0,0,1,0,.71A.47.47,0,0,1,377.41,107.61Z" style="fill:#263238"></path></g><g id="freepik--smoke-clouds--inject-8"><path d="M273,117.76a16.38,16.38,0,0,0-12-8.51c-8.51-1.16-12,7.35-14.7,12s-8.51-1.16-15.09-.77-7.35,4.25-9.67,7-8.9-.39-12.38,1.55-3.87,4.64-3.87,4.64h97.49s3.1-10.83-5-12-10.44,3.09-13.15,2.32-1.55-5.8-5.42-7A6.84,6.84,0,0,0,273,117.76Z" style="opacity:0.19"></path><path d="M176.84,142.28a16.38,16.38,0,0,0-12-8.51c-8.51-1.16-12,7.35-14.7,12s-8.51-1.16-15.09-.77-7.35,4.25-9.67,7-8.9-.39-12.38,1.55-3.87,4.64-3.87,4.64h97.5s3.09-10.83-5-12-10.45,3.09-13.16,2.32-1.54-5.8-5.41-7A6.84,6.84,0,0,0,176.84,142.28Z" style="opacity:0.19"></path><path d="M358.86,142.28a16.38,16.38,0,0,0-12-8.51c-8.51-1.16-12,7.35-14.7,12s-8.51-1.16-15.09-.77-7.35,4.25-9.67,7-8.9-.39-12.38,1.55-3.87,4.64-3.87,4.64h97.49s3.1-10.83-5-12-10.44,3.09-13.15,2.32-1.55-5.8-5.42-7A6.84,6.84,0,0,0,358.86,142.28Z" style="opacity:0.19"></path><path d="M406,218.14a8.82,8.82,0,0,0-6.45-4.58c-4.57-.62-6.44,3.95-7.9,6.45s-4.57-.63-8.1-.42-3.95,2.29-5.2,3.74-4.78-.2-6.65.84a3.79,3.79,0,0,0-2.08,2.49H422s1.67-5.82-2.7-6.44-5.61,1.66-7.07,1.24-.83-3.12-2.91-3.74A3.66,3.66,0,0,0,406,218.14Z" style="opacity:0.19"></path><path d="M120.69,218.14a8.82,8.82,0,0,0-6.44-4.58c-4.57-.62-6.44,3.95-7.9,6.45s-4.57-.63-8.11-.42-3.95,2.29-5.19,3.74-4.79-.2-6.66.84a3.79,3.79,0,0,0-2.08,2.49H136.7s1.66-5.82-2.7-6.44-5.62,1.66-7.07,1.24-.83-3.12-2.91-3.74A3.68,3.68,0,0,0,120.69,218.14Z" style="opacity:0.19"></path></g><g id="freepik--Shadow--inject-8"><ellipse cx="260.67" cy="454.59" rx="61.38" ry="5.56" style="fill:#263238"></ellipse></g><g id="freepik--Earth--inject-8"><circle cx="258.12" cy="298.27" r="125.54" transform="translate(-135.31 269.88) rotate(-45)" style="fill:#D3B9F5"></circle><polygon points="237.47 243.76 250.42 245.56 255.07 249.79 260.8 250.28 262.96 255.55 261.88 259.28 258.13 261.31 248.54 260.39 248.21 259.24 252.48 255.82 249.01 250.31 240.46 249.71 235.69 246.14 237.47 243.76" style="fill:#fff"></polygon><path d="M348.17,354.8l-10.24-1L325.61,353l-8.87,2.59-8.79.71L299.38,361l-5.06,1.8-3.15.92-5,5.18-5.05,4-9.14-2.6-.34-8.59-5.45-.58-5.72,1.67-1.61-2.32-.93-5.32-2.84-2.27-3.84,1.74-.3,3.2-4.78,1.7-5.8-3.89-3.72-6.36L238.6,340l8.46-1.86,2.87,1.34,3.43-1,3.54-3.83,4.05.06,7.74,7.36,1.92-.87-2.49-6.41-2.72-2.93-1-5.6,9.24-7.67-1.66-11,3.49-5.05,1.79-7.67,2.69-1.41,5.33-6.21-.39-2.37-4.49,1.62-1.53-2-3.14.92-4.53,2.56,1.2-4.38,9.17-5.79,1.54-3.24,5.84,5.12,3.33,1.82,3.67-2.32-2.8-3.21-7.26-2.54-9.13-5.71-8.57-2.77-7.19.86-4.44-2.43-4.91.2-.24,1.31,1.86,8.46,2,2.52.1,9.91-7.06-2.91-.31-4.25-6.84-1.1-3.5-2.4L237,267.5l6.54-8.43-1.43-7-3.07,1.2-2.75-2-2.11-4-2.09.29.2,4.91-3,1.5-4.36-9.59-2.71-.77-4.5-.54-3.91,3.63,7.31,3.76,2.57,4.52-12.56-4.71-9.4-5.63L198.88,237l-8.11-.12-4.63,5.39a46.18,46.18,0,0,1-3.62,3.55c-1.26,1-6.53,3.15-6.53,3.15l.28,5.19-6.49,2.21,1.49,3L182.35,258l7.19,4.42,2.93,10-.56,9.78,3.33,9.27-3.9,16.36,4.38,21.37,6.09,11.26,6.39,8.06,4.46-.68-2.77-4.15-3.29-2.77-3.27-5.87,2.41-1.33,7,9.13,5.54,8.31,2.17,7.44,7.36,5,11.81,4.3,16-.34,5.83,2.95,4.77,3.57,6.07,1.64,6.79-.12,6.21-2.13s.55,2.95,1,4.38-2.17,7.46-2.17,7.46L282.67,392l4.13,5.62,7,.73,11.54,6.56,4.51.55,1.25,4.29,1.09,1.85A125.18,125.18,0,0,0,364,365.78l-.46-2.11,3.62-16.27-4.47-1.49Z" style="fill:#fff"></path><path d="M344.88,233.15l-4.74-4.52-5.84-5.12-3.65-8.24,5.4-.65-.55-2.94-3.81.8,2.73-2.35,2.85-3-.84-2.86-4.77-3.57-2.53-5.94a125.62,125.62,0,0,0-151.43,7.09l8,2.74-2.5,6.32-5.1,2.73,1.69,7.89-2,1.53-1.94,4,1.8,5.07,5-.85-.58,5.44,4.87-1.42,5.19-13-.48-4.82,7.84-2.91,1-4,8-3.28-.56-5.12,5.92-2s3.62-3.54,4.48-3.79a36.43,36.43,0,0,1,5.28,0l5.29,2.17,6-1.75,4.23-4.65,6.74-1.35a7.35,7.35,0,0,0,3.48.22c1.43-.42,5.13-3.67,5.13-3.67l9.8,2.72,4.19,1.57,1.25,4.29,4.46-.69.68-3,4.21.63.39,2.37-7.91,4.8,6.7,4.87,12,2.71,6,4.46,6.46-1.27.59-3.27,2.12-1.24-9.11-3.55-4.74.77,3.38-2.23L290,197.35l4.78-1.71,7.29,1.59,3.44,6.45,4.23,2.8,5,7.54,7.63,2.73,2.76,9.44,7.83,2.36.63,3.23.23,4,3.23,4.65,1.32,2.4,5.11-.56.87-5.53Z" style="fill:#fff"></path><path d="M340.17,203.25l.48,1.64-.09,5,2,3.75,3.48.22,1.59,5.44-3.85-.43,3.65,15.69-1.59,7.3,4.63,7.34,4.72,2.34L359.74,267,367,277.91l6.68,8,7.08-.21.61-6.39.72-1A127.76,127.76,0,0,0,378.61,263,125,125,0,0,0,340.17,203.25Z" style="fill:#fff"></path><polygon points="265.74 347.86 264.93 349.34 274.26 349.4 278.87 352.4 284.47 351.39 285.55 347.66 278.64 348.44 265.74 347.86" style="fill:#fff"></polygon><polygon points="292.78 345.85 287.28 349.32 288.8 351.36 296.24 349.19 297 346.48 294.51 347.52 292.78 345.85" style="fill:#fff"></polygon><path d="M351.52,372.09A125.54,125.54,0,0,1,212.19,181.44a125.53,125.53,0,1,0,150,187C358.74,369.79,355.17,371,351.52,372.09Z" style="opacity:0.19"></path><path d="M258.08,417.62a118.17,118.17,0,0,1-17.53-1.3.5.5,0,0,1,.14-1,117.31,117.31,0,0,0,20.51,1.25.51.51,0,0,1,.51.49.5.5,0,0,1-.49.51C260.18,417.61,259.13,417.62,258.08,417.62Z" style="fill:#263238"></path><path d="M235.55,415.45h-.1c-3.56-.7-7.13-1.56-10.62-2.58a.5.5,0,0,1-.34-.62.51.51,0,0,1,.62-.34c3.46,1,7,1.87,10.53,2.55a.51.51,0,0,1,.4.59A.5.5,0,0,1,235.55,415.45Z" style="fill:#263238"></path><path d="M220.57,411.51a.44.44,0,0,1-.16,0,119.41,119.41,0,0,1-79-138.24.51.51,0,0,1,.6-.38.49.49,0,0,1,.38.59,118.4,118.4,0,0,0,78.33,137.08.5.5,0,0,1-.16,1Z" style="fill:#263238"></path><path d="M146,259.46a.47.47,0,0,1-.17,0,.51.51,0,0,1-.31-.64,120.31,120.31,0,0,1,9.67-20.86.5.5,0,0,1,.68-.18.51.51,0,0,1,.18.69,119,119,0,0,0-9.58,20.68A.52.52,0,0,1,146,259.46Z" style="fill:#263238"></path><path d="M258.17,424.32a126.08,126.08,0,1,1,35.32-5.08A126.24,126.24,0,0,1,258.17,424.32Zm.12-251.14a125.07,125.07,0,1,0,119.84,90,125.23,125.23,0,0,0-119.84-90Z" style="fill:#263238"></path><path d="M239.2,334.28c.08,6-3.38,11-7.73,11s-7.94-4.8-8-10.84,3.39-11,7.74-11S239.13,328.23,239.2,334.28Z" style="fill:#263238"></path><path d="M236,329.25c.31,2.33-.57,4.38-2,4.57s-2.79-1.55-3.11-3.89.57-4.38,2-4.57S235.72,326.91,236,329.25Z" style="fill:#fff"></path><path d="M293.27,333.06c.08,6.05-3.38,11-7.73,11.05s-7.94-4.8-8-10.84,3.38-11,7.73-11S293.19,327,293.27,333.06Z" style="fill:#263238"></path><path d="M289.8,327.42c.31,2.34-.57,4.38-2,4.57s-2.79-1.55-3.11-3.88.57-4.38,2-4.57S289.48,325.09,289.8,327.42Z" style="fill:#fff"></path><path d="M289.74,385.81a1.5,1.5,0,0,1-1.47-1.23c-2.56-13.79-14.33-23.93-28-24.1h-.37A29,29,0,0,0,232,382.35a1.5,1.5,0,0,1-2.9-.77,32,32,0,0,1,30.77-24.11h.41c15.08.19,28.08,11.36,30.9,26.55a1.5,1.5,0,0,1-1.2,1.75Z" style="fill:#263238"></path><path d="M212.43,325.14a4,4,0,0,1-.53-8h0c.22,0,21.52-3,34.29-12.65a4,4,0,1,1,4.83,6.38c-14.47,10.95-37.1,14.07-38.06,14.2Z" style="fill:#263238"></path><path d="M303.8,330a3.82,3.82,0,0,1-1.15-.17c-19.09-5.73-37.37-19.06-38.14-19.62a4,4,0,0,1,4.74-6.45c.17.13,18,13.09,35.7,18.41A4,4,0,0,1,303.8,330Z" style="fill:#263238"></path></g><g id="freepik--Drops--inject-8"><path d="M344.6,297.17a9,9,0,1,1-18.07,0c0-5.2,9-20.78,9-20.78S344.6,292,344.6,297.17Z" style="fill:#fff"></path><path d="M335.56,307.1a9.75,9.75,0,0,1-9.53-9.93c0-5.28,8.73-20.39,9.1-21l.43-.75.44.75c.37.64,9.1,15.75,9.1,21A9.76,9.76,0,0,1,335.56,307.1Zm0-29.7c-1.79,3.17-8.53,15.41-8.53,19.77a8.54,8.54,0,1,0,17.07,0C344.1,292.81,337.36,280.57,335.56,277.4Z" style="fill:#263238"></path><path d="M358.48,317a6.14,6.14,0,1,1-12.27,0c0-3.53,6.13-14.11,6.13-14.11S358.48,313.45,358.48,317Z" style="fill:#fff"></path><path d="M352.34,323.88a6.78,6.78,0,0,1-6.63-6.9c0-3.63,6-13.93,6.2-14.36l.43-.75.44.75c.25.43,6.2,10.73,6.2,14.36A6.79,6.79,0,0,1,352.34,323.88Zm0-20c-1.38,2.47-5.63,10.27-5.63,13.1A5.64,5.64,0,1,0,358,317C358,314.15,353.73,306.35,352.34,303.88Z" style="fill:#263238"></path><path d="M196.34,358.93a6.14,6.14,0,1,1-12.27,0c0-3.53,6.13-14.11,6.13-14.11S196.34,355.4,196.34,358.93Z" style="fill:#fff"></path><path d="M190.2,365.83a6.77,6.77,0,0,1-6.63-6.9c0-3.62,6-13.92,6.2-14.36l.43-.74.43.74c.26.44,6.21,10.74,6.21,14.36A6.78,6.78,0,0,1,190.2,365.83Zm0-20c-1.39,2.48-5.63,10.28-5.63,13.1a5.64,5.64,0,1,0,11.27,0C195.84,356.11,191.59,348.31,190.2,345.83Z" style="fill:#263238"></path><path d="M293.42,246.55a6.14,6.14,0,1,1-12.27,0c0-3.54,6.13-14.11,6.13-14.11S293.42,243,293.42,246.55Z" style="fill:#fff"></path><path d="M287.28,253.45a6.78,6.78,0,0,1-6.63-6.9c0-3.63,6-13.93,6.2-14.37l.43-.74.44.74c.25.44,6.2,10.74,6.2,14.37A6.79,6.79,0,0,1,287.28,253.45Zm0-20c-1.38,2.47-5.63,10.27-5.63,13.1a5.64,5.64,0,1,0,11.27,0C292.92,243.72,288.67,235.92,287.28,233.45Z" style="fill:#263238"></path><path d="M223.62,233.43a6.14,6.14,0,1,1-12.27,0c0-3.54,6.14-14.11,6.14-14.11S223.62,229.89,223.62,233.43Z" style="fill:#fff"></path><path d="M217.49,240.33a6.79,6.79,0,0,1-6.64-6.9c0-3.63,6-13.93,6.2-14.37l.44-.74.43.74c.25.44,6.2,10.74,6.2,14.37A6.78,6.78,0,0,1,217.49,240.33Zm0-20c-1.39,2.47-5.64,10.27-5.64,13.1a5.64,5.64,0,1,0,11.27,0C223.12,230.6,218.87,222.8,217.49,220.33Z" style="fill:#263238"></path><path d="M270.06,435.93a6.14,6.14,0,1,1-12.27,0c0-3.53,6.14-14.11,6.14-14.11S270.06,432.4,270.06,435.93Z" style="fill:#fff"></path><path d="M263.93,442.83a6.78,6.78,0,0,1-6.64-6.9c0-3.62,5.95-13.92,6.2-14.36l.44-.74.43.74c.25.44,6.2,10.74,6.2,14.36A6.78,6.78,0,0,1,263.93,442.83Zm0-20c-1.39,2.48-5.64,10.28-5.64,13.1a5.64,5.64,0,1,0,11.27,0C269.56,433.11,265.31,425.31,263.93,422.83Z" style="fill:#263238"></path><path d="M198.87,293.49a6.14,6.14,0,1,1-12.27,0c0-3.54,6.13-14.12,6.13-14.12S198.87,290,198.87,293.49Z" style="fill:#fff"></path><path d="M192.73,300.38a6.77,6.77,0,0,1-6.63-6.89c0-3.63,6-13.93,6.2-14.37l.43-.74.43.74c.26.44,6.21,10.74,6.21,14.37A6.78,6.78,0,0,1,192.73,300.38Zm0-20c-1.39,2.47-5.63,10.27-5.63,13.1a5.64,5.64,0,1,0,11.27,0C198.37,290.66,194.12,282.86,192.73,280.39Z" style="fill:#263238"></path></g></svg>