<svg width="311" height="76" viewBox="0 0 311 76" fill="none" xmlns="http://www.w3.org/2000/svg">
<rect x="0.5" y="0.5" width="310" height="75" rx="7.5" fill="white"/>
<rect x="0.5" y="0.5" width="310" height="75" rx="7.5" stroke="#6A1AD3"/>
<mask id="mask0_2315_9220" style="mask-type:luminance" maskUnits="userSpaceOnUse" x="280" y="13" width="14" height="14">
<path d="M287 26.6663C287.875 26.6675 288.743 26.4956 289.552 26.1605C290.361 25.8253 291.095 25.3337 291.714 24.7137C292.334 24.0953 292.825 23.3605 293.16 22.5515C293.496 21.7426 293.667 20.8753 293.666 19.9997C293.667 19.124 293.496 18.2568 293.16 17.4478C292.825 16.6388 292.334 15.904 291.714 15.2857C291.095 14.6657 290.361 14.174 289.552 13.8389C288.743 13.5038 287.875 13.3319 287 13.333C286.124 13.3319 285.257 13.5038 284.448 13.8389C283.639 14.174 282.904 14.6657 282.286 15.2857C281.666 15.904 281.174 16.6388 280.839 17.4478C280.504 18.2568 280.332 19.124 280.333 19.9997C280.332 20.8753 280.504 21.7426 280.839 22.5515C281.174 23.3605 281.666 24.0953 282.286 24.7137C282.904 25.3337 283.639 25.8253 284.448 26.1604C285.257 26.4955 286.124 26.6675 287 26.6663Z" fill="white" stroke="white" stroke-width="0.666667" stroke-linejoin="round"/>
<path d="M284.333 20L286.333 22L290.333 18" stroke="black" stroke-width="1.33333" stroke-linecap="round" stroke-linejoin="round"/>
</mask>
<g mask="url(#mask0_2315_9220)">
<path d="M279 12H295V28H279V12Z" fill="#6A1AD3"/>
</g>
<path d="M17.162 44V34.13H21.278C22.342 34.13 23.1587 34.354 23.728 34.802C24.3067 35.25 24.596 35.88 24.596 36.692C24.596 37.2987 24.414 37.8073 24.05 38.218C23.686 38.6287 23.1867 38.904 22.552 39.044V38.834C23.28 38.9273 23.8447 39.184 24.246 39.604C24.6473 40.024 24.848 40.5793 24.848 41.27C24.848 42.1473 24.5493 42.824 23.952 43.3C23.364 43.7667 22.5333 44 21.46 44H17.162ZM18.576 42.866H21.306C21.9687 42.866 22.4867 42.74 22.86 42.488C23.2427 42.236 23.434 41.8113 23.434 41.214C23.434 40.6167 23.2427 40.192 22.86 39.94C22.4867 39.688 21.9687 39.562 21.306 39.562H18.576V42.866ZM18.576 38.442H21.054C21.7633 38.442 22.2953 38.3067 22.65 38.036C23.0047 37.7653 23.182 37.3687 23.182 36.846C23.182 36.3233 23.0047 35.9267 22.65 35.656C22.2953 35.3853 21.7633 35.25 21.054 35.25H18.576V38.442ZM29.322 44.126C28.6967 44.126 28.1507 43.9813 27.684 43.692C27.2173 43.4027 26.8533 42.9827 26.592 42.432C26.34 41.8813 26.214 41.228 26.214 40.472C26.214 39.7067 26.34 39.0533 26.592 38.512C26.8533 37.9707 27.2173 37.5553 27.684 37.266C28.1507 36.9673 28.6967 36.818 29.322 36.818C29.938 36.818 30.4747 36.972 30.932 37.28C31.3893 37.588 31.6927 38.008 31.842 38.54H31.688L31.828 36.944H33.2C33.172 37.2333 33.144 37.5227 33.116 37.812C33.0973 38.092 33.088 38.3673 33.088 38.638V44H31.674V42.432H31.828C31.6787 42.9547 31.3707 43.37 30.904 43.678C30.4467 43.9767 29.9193 44.126 29.322 44.126ZM29.672 43.02C30.2787 43.02 30.764 42.8053 31.128 42.376C31.5013 41.9467 31.688 41.312 31.688 40.472C31.688 39.632 31.5013 39.002 31.128 38.582C30.764 38.1527 30.2787 37.938 29.672 37.938C29.056 37.938 28.5613 38.1527 28.188 38.582C27.824 39.002 27.642 39.632 27.642 40.472C27.642 41.312 27.824 41.9467 28.188 42.376C28.552 42.8053 29.0467 43.02 29.672 43.02ZM37.5732 44.126C36.9852 44.126 36.4439 44.0513 35.9492 43.902C35.4546 43.7527 35.0439 43.5427 34.7172 43.272L35.1512 42.306C35.4966 42.5673 35.8792 42.7633 36.2992 42.894C36.7192 43.0247 37.1486 43.09 37.5872 43.09C38.1006 43.09 38.4879 43.0013 38.7492 42.824C39.0106 42.6373 39.1412 42.3853 39.1412 42.068C39.1412 41.8253 39.0572 41.6293 38.8892 41.48C38.7306 41.3307 38.4646 41.2187 38.0912 41.144L36.7472 40.878C36.1499 40.7473 35.6972 40.5233 35.3892 40.206C35.0812 39.8887 34.9272 39.4827 34.9272 38.988C34.9272 38.568 35.0392 38.1947 35.2632 37.868C35.4966 37.5413 35.8232 37.2847 36.2432 37.098C36.6726 36.9113 37.1719 36.818 37.7412 36.818C38.2639 36.818 38.7492 36.8927 39.1972 37.042C39.6452 37.1913 40.0186 37.406 40.3172 37.686L39.8692 38.624C39.5799 38.3813 39.2532 38.1947 38.8892 38.064C38.5252 37.924 38.1566 37.854 37.7832 37.854C37.2606 37.854 36.8732 37.952 36.6212 38.148C36.3692 38.344 36.2432 38.6007 36.2432 38.918C36.2432 39.1607 36.3179 39.3613 36.4672 39.52C36.6259 39.6693 36.8732 39.786 37.2092 39.87L38.5532 40.136C39.1879 40.2667 39.6639 40.4813 39.9812 40.78C40.2986 41.0787 40.4572 41.48 40.4572 41.984C40.4572 42.4227 40.3359 42.8053 40.0932 43.132C39.8506 43.4587 39.5146 43.706 39.0852 43.874C38.6559 44.042 38.1519 44.126 37.5732 44.126ZM42.1239 44V36.944H43.5379V44H42.1239ZM42.0119 35.474V34.004H43.6499V35.474H42.0119ZM48.7042 44.126C47.9949 44.126 47.3742 43.9813 46.8422 43.692C46.3196 43.3933 45.9136 42.9687 45.6242 42.418C45.3442 41.858 45.2042 41.1953 45.2042 40.43C45.2042 39.674 45.3489 39.0253 45.6382 38.484C45.9276 37.9427 46.3336 37.532 46.8562 37.252C47.3789 36.9627 47.9949 36.818 48.7042 36.818C49.1616 36.818 49.6049 36.8973 50.0342 37.056C50.4636 37.2053 50.8182 37.42 51.0982 37.7L50.6362 38.694C50.3749 38.442 50.0809 38.2553 49.7542 38.134C49.4276 38.0033 49.1102 37.938 48.8022 37.938C48.1302 37.938 47.6029 38.1527 47.2202 38.582C46.8376 39.0113 46.6462 39.632 46.6462 40.444C46.6462 41.2653 46.8376 41.8953 47.2202 42.334C47.6029 42.7727 48.1302 42.992 48.8022 42.992C49.1009 42.992 49.4136 42.936 49.7402 42.824C50.0669 42.7027 50.3656 42.5113 50.6362 42.25L51.0982 43.244C50.8089 43.524 50.4449 43.7433 50.0062 43.902C49.5769 44.0513 49.1429 44.126 48.7042 44.126Z" fill="#4F4F4F"/>
<path d="M170.926 51V46.59H169.324V45.456H170.926V43.818H169.324V42.684H170.926V38.31H172.438L176.722 48.39H176.326V38.31H177.874V42.684H179.494V43.818H177.874V45.456H179.494V46.59H177.874V51H176.38L172.096 40.92H172.492V51H170.926ZM181.593 51V49.434H184.545V39.894H185.481L181.881 42.09V40.29L185.067 38.31H186.417V49.434H189.189V51H181.593ZM191.846 53.214L191.054 52.602C191.402 52.23 191.636 51.888 191.756 51.576C191.888 51.264 191.954 50.94 191.954 50.604L192.35 51H190.928V48.858H193.07V50.316C193.07 50.856 192.98 51.354 192.8 51.81C192.62 52.278 192.302 52.746 191.846 53.214ZM195.271 51V49.614L199.627 45.06C200.191 44.472 200.611 43.92 200.887 43.404C201.163 42.888 201.301 42.354 201.301 41.802C201.301 41.118 201.085 40.602 200.653 40.254C200.233 39.906 199.621 39.732 198.817 39.732C198.181 39.732 197.581 39.846 197.017 40.074C196.465 40.302 195.931 40.65 195.415 41.118L194.767 39.696C195.271 39.228 195.895 38.856 196.639 38.58C197.395 38.292 198.193 38.148 199.033 38.148C200.353 38.148 201.367 38.448 202.075 39.048C202.795 39.648 203.155 40.506 203.155 41.622C203.155 42.414 202.963 43.176 202.579 43.908C202.195 44.628 201.619 45.372 200.851 46.14L197.089 49.938V49.434H203.677V51H195.271ZM209.61 51.162C208.146 51.162 207.018 50.604 206.226 49.488C205.446 48.36 205.056 46.746 205.056 44.646C205.056 42.51 205.446 40.896 206.226 39.804C207.018 38.7 208.146 38.148 209.61 38.148C211.086 38.148 212.214 38.7 212.994 39.804C213.774 40.896 214.164 42.504 214.164 44.628C214.164 46.74 213.768 48.36 212.976 49.488C212.196 50.604 211.074 51.162 209.61 51.162ZM209.61 49.596C210.534 49.596 211.218 49.194 211.662 48.39C212.118 47.586 212.346 46.332 212.346 44.628C212.346 42.912 212.118 41.664 211.662 40.884C211.218 40.092 210.534 39.696 209.61 39.696C208.698 39.696 208.014 40.092 207.558 40.884C207.102 41.664 206.874 42.906 206.874 44.61C206.874 46.326 207.102 47.586 207.558 48.39C208.026 49.194 208.71 49.596 209.61 49.596ZM220.043 51.162C218.579 51.162 217.451 50.604 216.659 49.488C215.879 48.36 215.489 46.746 215.489 44.646C215.489 42.51 215.879 40.896 216.659 39.804C217.451 38.7 218.579 38.148 220.043 38.148C221.519 38.148 222.647 38.7 223.427 39.804C224.207 40.896 224.597 42.504 224.597 44.628C224.597 46.74 224.201 48.36 223.409 49.488C222.629 50.604 221.507 51.162 220.043 51.162ZM220.043 49.596C220.967 49.596 221.651 49.194 222.095 48.39C222.551 47.586 222.779 46.332 222.779 44.628C222.779 42.912 222.551 41.664 222.095 40.884C221.651 40.092 220.967 39.696 220.043 39.696C219.131 39.696 218.447 40.092 217.991 40.884C217.535 41.664 217.307 42.906 217.307 44.61C217.307 46.326 217.535 47.586 217.991 48.39C218.459 49.194 219.143 49.596 220.043 49.596Z" fill="#414141"/>
<path d="M229.064 56.024V47.624C229.064 47.3533 229.055 47.078 229.036 46.798C229.017 46.518 228.989 46.238 228.952 45.958H230.184L230.338 47.582H230.184C230.324 47.0407 230.623 46.616 231.08 46.308C231.537 45.9907 232.083 45.832 232.718 45.832C233.343 45.832 233.889 45.9767 234.356 46.266C234.823 46.5553 235.182 46.9753 235.434 47.526C235.695 48.0673 235.826 48.716 235.826 49.472C235.826 50.228 235.695 50.8813 235.434 51.432C235.182 51.9827 234.823 52.4027 234.356 52.692C233.889 52.9813 233.343 53.126 232.718 53.126C232.093 53.126 231.551 52.972 231.094 52.664C230.646 52.3467 230.343 51.922 230.184 51.39H230.338V56.024H229.064ZM232.424 52.118C233.068 52.118 233.581 51.894 233.964 51.446C234.347 50.998 234.538 50.34 234.538 49.472C234.538 48.604 234.347 47.9507 233.964 47.512C233.581 47.0733 233.068 46.854 232.424 46.854C231.78 46.854 231.267 47.0733 230.884 47.512C230.511 47.9507 230.324 48.604 230.324 49.472C230.324 50.34 230.511 50.998 230.884 51.446C231.267 51.894 231.78 52.118 232.424 52.118ZM240.747 53.126C239.627 53.126 238.74 52.804 238.087 52.16C237.443 51.516 237.121 50.6293 237.121 49.5C237.121 48.7533 237.261 48.1093 237.541 47.568C237.83 47.0173 238.227 46.5927 238.731 46.294C239.235 45.986 239.823 45.832 240.495 45.832C241.139 45.832 241.685 45.972 242.133 46.252C242.581 46.5227 242.921 46.91 243.155 47.414C243.388 47.918 243.505 48.5153 243.505 49.206V49.626H238.115V48.87H242.637L242.399 49.052C242.399 48.324 242.235 47.7593 241.909 47.358C241.591 46.9567 241.12 46.756 240.495 46.756C239.813 46.756 239.286 46.994 238.913 47.47C238.539 47.9367 238.353 48.576 238.353 49.388V49.514C238.353 50.3727 238.563 51.0213 238.983 51.46C239.412 51.8987 240.005 52.118 240.761 52.118C241.181 52.118 241.573 52.0573 241.937 51.936C242.301 51.8147 242.651 51.614 242.987 51.334L243.407 52.216C243.089 52.5053 242.693 52.7293 242.217 52.888C241.75 53.0467 241.26 53.126 240.747 53.126ZM245.155 53V47.68C245.155 47.4 245.146 47.1153 245.127 46.826C245.118 46.5273 245.095 46.238 245.057 45.958H246.289L246.443 47.722L246.233 47.736C246.327 47.3067 246.485 46.952 246.709 46.672C246.943 46.3827 247.218 46.1727 247.535 46.042C247.862 45.902 248.198 45.832 248.543 45.832C248.693 45.832 248.819 45.8367 248.921 45.846C249.024 45.8553 249.127 45.8787 249.229 45.916L249.201 47.05C249.061 46.994 248.931 46.9613 248.809 46.952C248.697 46.9333 248.557 46.924 248.389 46.924C247.979 46.924 247.624 47.0173 247.325 47.204C247.036 47.3907 246.812 47.638 246.653 47.946C246.504 48.254 246.429 48.5853 246.429 48.94V53H245.155ZM254.043 53V47.624C254.043 47.3533 254.033 47.078 254.015 46.798C253.996 46.518 253.968 46.238 253.931 45.958H255.163L255.303 47.47H255.135C255.321 46.9473 255.62 46.546 256.031 46.266C256.441 45.9767 256.931 45.832 257.501 45.832C258.079 45.832 258.555 45.972 258.929 46.252C259.302 46.5227 259.554 46.952 259.685 47.54H259.475C259.652 47.0173 259.965 46.602 260.413 46.294C260.861 45.986 261.383 45.832 261.981 45.832C262.755 45.832 263.339 46.0607 263.731 46.518C264.123 46.966 264.319 47.666 264.319 48.618V53H263.045V48.688C263.045 48.044 262.933 47.582 262.709 47.302C262.485 47.0127 262.13 46.868 261.645 46.868C261.075 46.868 260.627 47.064 260.301 47.456C259.974 47.8387 259.811 48.3613 259.811 49.024V53H258.537V48.688C258.537 48.044 258.425 47.582 258.201 47.302C257.986 47.0127 257.631 46.868 257.137 46.868C256.567 46.868 256.119 47.064 255.793 47.456C255.475 47.8387 255.317 48.3613 255.317 49.024V53H254.043ZM269.37 53.126C268.679 53.126 268.082 52.9813 267.578 52.692C267.074 52.3933 266.682 51.9733 266.402 51.432C266.122 50.8813 265.982 50.228 265.982 49.472C265.982 48.7253 266.122 48.0813 266.402 47.54C266.682 46.9893 267.074 46.5693 267.578 46.28C268.082 45.9813 268.679 45.832 269.37 45.832C270.061 45.832 270.658 45.9813 271.162 46.28C271.675 46.5693 272.067 46.9893 272.338 47.54C272.618 48.0813 272.758 48.7253 272.758 49.472C272.758 50.228 272.618 50.8813 272.338 51.432C272.067 51.9733 271.675 52.3933 271.162 52.692C270.658 52.9813 270.061 53.126 269.37 53.126ZM269.37 52.118C270.005 52.118 270.513 51.894 270.896 51.446C271.279 50.998 271.47 50.34 271.47 49.472C271.47 48.604 271.279 47.9507 270.896 47.512C270.513 47.0733 270.005 46.854 269.37 46.854C268.726 46.854 268.213 47.0733 267.83 47.512C267.457 47.9507 267.27 48.604 267.27 49.472C267.27 50.34 267.457 50.998 267.83 51.446C268.213 51.894 268.726 52.118 269.37 52.118ZM274.468 53V47.624C274.468 47.3533 274.459 47.078 274.44 46.798C274.422 46.518 274.394 46.238 274.356 45.958H275.588L275.728 47.47H275.56C275.775 46.938 276.106 46.532 276.554 46.252C277.002 45.972 277.525 45.832 278.122 45.832C278.953 45.832 279.578 46.0607 279.998 46.518C280.418 46.966 280.628 47.666 280.628 48.618V53H279.354V48.688C279.354 48.044 279.228 47.582 278.976 47.302C278.724 47.0127 278.332 46.868 277.8 46.868C277.166 46.868 276.662 47.0593 276.288 47.442C275.924 47.8247 275.742 48.3427 275.742 48.996V53H274.468ZM285.344 53.126C284.607 53.126 284.047 52.9253 283.664 52.524C283.291 52.1133 283.104 51.4973 283.104 50.676V46.938H281.732V45.958H283.104V44.068L284.378 43.718V45.958H286.366V46.938H284.378V50.564C284.378 51.1053 284.472 51.4927 284.658 51.726C284.854 51.95 285.134 52.062 285.498 52.062C285.685 52.062 285.844 52.048 285.974 52.02C286.114 51.9827 286.24 51.9407 286.352 51.894V52.944C286.212 53 286.049 53.042 285.862 53.07C285.685 53.1073 285.512 53.126 285.344 53.126ZM287.703 53V42.696H288.977V47.484H288.795C289 46.9427 289.331 46.532 289.789 46.252C290.246 45.972 290.773 45.832 291.371 45.832C292.22 45.832 292.845 46.0607 293.247 46.518C293.657 46.9753 293.863 47.666 293.863 48.59V53H292.589V48.66C292.589 48.0347 292.467 47.582 292.225 47.302C291.982 47.0127 291.585 46.868 291.035 46.868C290.419 46.868 289.919 47.0593 289.537 47.442C289.163 47.8247 288.977 48.3333 288.977 48.968V53H287.703Z" fill="#6D6D6D"/>
</svg>
