<svg width="18" height="18" viewBox="0 0 18 18" fill="none" xmlns="http://www.w3.org/2000/svg">
<path d="M9 4.83008V7.32758" stroke="#3D3D3D" stroke-width="0.975" stroke-miterlimit="10" stroke-linecap="round"/>
<path d="M9.01505 1.5C6.25505 1.5 4.02005 3.735 4.02005 6.495V8.07C4.02005 8.58 3.81005 9.345 3.54755 9.78L2.59505 11.37C2.01005 12.3525 2.41505 13.4475 3.49505 13.8075C7.08005 15 10.9575 15 14.5425 13.8075C15.555 13.47 15.99 12.285 15.4425 11.37L14.49 9.78C14.2275 9.345 14.0175 8.5725 14.0175 8.07V6.495C14.01 3.75 11.76 1.5 9.01505 1.5Z" stroke="#3D3D3D" stroke-width="0.975" stroke-miterlimit="10" stroke-linecap="round"/>
<path d="M11.4976 14.115C11.4976 15.4875 10.3726 16.6125 9.00006 16.6125C8.31756 16.6125 7.68756 16.3275 7.23756 15.8775C6.78756 15.4275 6.50256 14.7975 6.50256 14.115" stroke="#3D3D3D" stroke-width="0.975" stroke-miterlimit="10"/>
</svg>
