<svg width="16" height="16" viewBox="0 0 16 16" fill="none" xmlns="http://www.w3.org/2000/svg">
<g clip-path="url(#clip0_3493_3304)">
<path d="M10.5094 2.66663C10.8807 2.66664 11.2448 2.77005 11.5607 2.96527C11.8766 3.1605 12.1319 3.43982 12.298 3.77196L13.22 5.61529C13.3827 5.54863 13.5447 5.48129 13.702 5.40329C13.8603 5.32426 14.0435 5.31132 14.2112 5.36733C14.379 5.42335 14.5177 5.54371 14.5967 5.70196C14.6757 5.86021 14.6887 6.04337 14.6327 6.21115C14.5767 6.37893 14.4563 6.51759 14.298 6.59663C13.9687 6.76063 13.818 6.81129 13.818 6.81129L14.4554 8.08663C14.5947 8.36463 14.6667 8.67063 14.6667 8.98129V10.6666C14.6671 10.9481 14.6079 11.2264 14.493 11.4834C14.3781 11.7403 14.2101 11.97 14 12.1573V13C14 13.2652 13.8947 13.5195 13.7072 13.7071C13.5196 13.8946 13.2653 14 13 14C12.7348 14 12.4805 13.8946 12.2929 13.7071C12.1054 13.5195 12 13.2652 12 13V12.6666H4.00005V13C4.00005 13.2652 3.89469 13.5195 3.70716 13.7071C3.51962 13.8946 3.26526 14 3.00005 14C2.73483 14 2.48048 13.8946 2.29294 13.7071C2.10541 13.5195 2.00005 13.2652 2.00005 13V12.1573C1.59072 11.7906 1.33338 11.2586 1.33338 10.6666V8.98129C1.33351 8.67093 1.40586 8.36486 1.54472 8.08729L2.18205 6.81129C2.02058 6.74433 1.86096 6.67297 1.70338 6.59729C1.6248 6.55831 1.55469 6.50419 1.49706 6.43806C1.43943 6.37193 1.39542 6.29507 1.36755 6.21189C1.33968 6.12872 1.3285 6.04086 1.33465 5.95336C1.3408 5.86585 1.36415 5.78042 1.40338 5.70196C1.48416 5.54454 1.62361 5.42519 1.79162 5.36969C1.95962 5.31418 2.14272 5.32697 2.30138 5.40529C2.45805 5.48129 2.61872 5.54996 2.78005 5.61529L3.70205 3.77196C3.86817 3.43982 4.12349 3.1605 4.43941 2.96527C4.75532 2.77005 5.11935 2.66664 5.49072 2.66663H10.5094ZM12.556 7.26929C11.4227 7.62729 9.81005 7.99996 8.00005 7.99996C6.19005 7.99996 4.57738 7.62663 3.44405 7.26929L2.73738 8.68263C2.69092 8.77533 2.66672 8.8776 2.66672 8.98129V10.6666C2.66672 10.8434 2.73695 11.013 2.86198 11.138C2.987 11.2631 3.15657 11.3333 3.33338 11.3333H12.6667C12.8435 11.3333 13.0131 11.2631 13.1381 11.138C13.2631 11.013 13.3334 10.8434 13.3334 10.6666V8.98129C13.3333 8.87782 13.3091 8.7758 13.2627 8.68329L12.556 7.26929ZM5.00005 8.66663C5.26526 8.66663 5.51962 8.77198 5.70716 8.95952C5.89469 9.14706 6.00005 9.40141 6.00005 9.66663C6.00005 9.93184 5.89469 10.1862 5.70716 10.3737C5.51962 10.5613 5.26526 10.6666 5.00005 10.6666C4.73483 10.6666 4.48048 10.5613 4.29294 10.3737C4.10541 10.1862 4.00005 9.93184 4.00005 9.66663C4.00005 9.40141 4.10541 9.14706 4.29294 8.95952C4.48048 8.77198 4.73483 8.66663 5.00005 8.66663ZM11 8.66663C11.2653 8.66663 11.5196 8.77198 11.7072 8.95952C11.8947 9.14706 12 9.40141 12 9.66663C12 9.93184 11.8947 10.1862 11.7072 10.3737C11.5196 10.5613 11.2653 10.6666 11 10.6666C10.7348 10.6666 10.4805 10.5613 10.2929 10.3737C10.1054 10.1862 10 9.93184 10 9.66663C10 9.40141 10.1054 9.14706 10.2929 8.95952C10.4805 8.77198 10.7348 8.66663 11 8.66663ZM10.5094 3.99996H5.49072C5.36694 4.00003 5.24563 4.03455 5.14036 4.09966C5.0351 4.16477 4.95004 4.25791 4.89472 4.36863L4.04805 6.05996C5.08005 6.36996 6.47072 6.66663 8.00005 6.66663C9.52938 6.66663 10.92 6.36996 11.9514 6.05996L11.1054 4.36863C11.0501 4.25791 10.965 4.16477 10.8597 4.09966C10.7545 4.03455 10.6332 4.00003 10.5094 3.99996Z" fill="#414141"/>
</g>
<defs>
<clipPath id="clip0_3493_3304">
<rect width="16" height="16" fill="white"/>
</clipPath>
</defs>
</svg>
