<svg width="16" height="16" viewBox="0 0 16 16" fill="none" xmlns="http://www.w3.org/2000/svg">
<mask id="mask0_2586_9866" style="mask-type:luminance" maskUnits="userSpaceOnUse" x="1" y="1" width="14" height="14">
<path d="M7.99968 14.6668C8.87532 14.668 9.74256 14.496 10.5515 14.1609C11.3605 13.8258 12.0953 13.3342 12.7137 12.7142C13.3337 12.0958 13.8253 11.361 14.1605 10.552C14.4956 9.74305 14.6675 8.87581 14.6663 8.00017C14.6675 7.12453 14.4955 6.2573 14.1604 5.44831C13.8253 4.63933 13.3337 3.90454 12.7137 3.28617C12.0953 2.66618 11.3605 2.1745 10.5515 1.8394C9.74256 1.50429 8.87532 1.33237 7.99968 1.3335C7.12404 1.33239 6.25681 1.50432 5.44782 1.83942C4.63884 2.17453 3.90405 2.66619 3.28568 3.28617C2.6657 3.90454 2.17404 4.63933 1.83893 5.44831C1.50383 6.2573 1.3319 7.12453 1.33301 8.00017C1.33188 8.87581 1.5038 9.74305 1.83891 10.552C2.17401 11.361 2.66569 12.0958 3.28568 12.7142C3.90405 13.3341 4.63884 13.8258 5.44782 14.1609C6.25681 14.496 7.12404 14.6679 7.99968 14.6668Z" fill="white" stroke="white" stroke-width="0.666667" stroke-linejoin="round"/>
<path d="M5.33301 8L7.33301 10L11.333 6" stroke="black" stroke-width="1.33333" stroke-linecap="round" stroke-linejoin="round"/>
</mask>
<g mask="url(#mask0_2586_9866)">
<path d="M0 0H16V16H0V0Z" fill="#60A93E"/>
</g>
</svg>
