<svg width="20" height="20" viewBox="0 0 20 20" fill="none" xmlns="http://www.w3.org/2000/svg">
<path d="M2.06982 4.50794C2.70871 1.74475 6.86948 1.74475 7.50038 4.50794C7.87573 6.12912 6.84552 7.50274 5.95107 8.35725C5.29621 8.98017 4.266 8.97218 3.61114 8.35725C2.72468 7.50274 1.69448 6.12912 2.06982 4.50794Z" stroke="#6D6D6D" stroke-width="1.4375"/>
<path d="M12.4517 14.091C13.0906 11.3278 17.2753 11.3278 17.9142 14.091C18.2896 15.7121 17.2594 17.0857 16.3569 17.9403C15.7021 18.5632 14.6639 18.5552 14.009 17.9403C13.1066 17.0857 12.0764 15.7121 12.4517 14.091Z" stroke="#6D6D6D" stroke-width="1.4375"/>
<path d="M9.99998 4.82715H12.1403C13.6177 4.82715 14.3045 6.65597 13.1944 7.63027L6.81352 13.2126C5.70345 14.1789 6.39026 16.0077 7.8597 16.0077H9.99998" stroke="#6D6D6D" stroke-width="1.4375" stroke-linecap="round" stroke-linejoin="round"/>
<path d="M4.79805 5.22645H4.80728" stroke="#6D6D6D" stroke-width="1.91667" stroke-linecap="round" stroke-linejoin="round"/>
<path d="M15.18 14.8095H15.1892" stroke="#6D6D6D" stroke-width="1.91667" stroke-linecap="round" stroke-linejoin="round"/>
</svg>
