<svg width="24" height="24" viewBox="0 0 24 24" fill="none" xmlns="http://www.w3.org/2000/svg">
<path d="M13.4702 7.53007C13.6108 7.67052 13.8014 7.74941 14.0002 7.74941C14.1989 7.74941 14.3895 7.67052 14.5302 7.53007L15.2502 6.81007V17.0001C15.2502 17.199 15.3292 17.3898 15.4698 17.5304C15.6105 17.6711 15.8012 17.7501 16.0002 17.7501C16.1991 17.7501 16.3898 17.6711 16.5305 17.5304C16.6711 17.3898 16.7502 17.199 16.7502 17.0001V6.81007L17.4702 7.53007C17.5388 7.60376 17.6216 7.66286 17.7136 7.70385C17.8056 7.74485 17.9049 7.76689 18.0056 7.76866C18.1063 7.77044 18.2064 7.75192 18.2998 7.7142C18.3931 7.67647 18.478 7.62033 18.5492 7.54911C18.6204 7.47789 18.6766 7.39306 18.7143 7.29967C18.752 7.20628 18.7705 7.10625 18.7687 7.00555C18.767 6.90485 18.7449 6.80553 18.7039 6.71353C18.6629 6.62154 18.6038 6.53873 18.5302 6.47007L16.5302 4.47007C16.3895 4.32962 16.1989 4.25073 16.0002 4.25073C15.8014 4.25073 15.6108 4.32962 15.4702 4.47007L13.4702 6.47007C13.3297 6.6107 13.2508 6.80132 13.2508 7.00007C13.2508 7.19882 13.3297 7.38945 13.4702 7.53007ZM8.75015 17.1901L9.47015 16.4701C9.53882 16.3964 9.62162 16.3373 9.71362 16.2963C9.80561 16.2553 9.90493 16.2333 10.0056 16.2315C10.1063 16.2297 10.2064 16.2482 10.2998 16.2859C10.3931 16.3237 10.478 16.3798 10.5492 16.451C10.6204 16.5223 10.6766 16.6071 10.7143 16.7005C10.752 16.7939 10.7705 16.8939 10.7687 16.9946C10.767 17.0953 10.7449 17.1946 10.7039 17.2866C10.6629 17.3786 10.6038 17.4614 10.5302 17.5301L8.53015 19.5301C8.38953 19.6705 8.1989 19.7494 8.00015 19.7494C7.8014 19.7494 7.61078 19.6705 7.47015 19.5301L5.47015 17.5301C5.39647 17.4614 5.33736 17.3786 5.29637 17.2866C5.25538 17.1946 5.23334 17.0953 5.23156 16.9946C5.22979 16.8939 5.24831 16.7939 5.28603 16.7005C5.32375 16.6071 5.3799 16.5223 5.45112 16.451C5.52233 16.3798 5.60717 16.3237 5.70056 16.2859C5.79394 16.2482 5.89397 16.2297 5.99468 16.2315C6.09538 16.2333 6.19469 16.2553 6.28669 16.2963C6.37869 16.3373 6.46149 16.3964 6.53015 16.4701L7.25015 17.1901V7.00007C7.25015 6.80116 7.32917 6.61039 7.46982 6.46974C7.61048 6.32909 7.80124 6.25007 8.00015 6.25007C8.19907 6.25007 8.38983 6.32909 8.53048 6.46974C8.67114 6.61039 8.75015 6.80116 8.75015 7.00007V17.1901Z" fill="#4F4F4F"/>
</svg>
