<svg width="18" height="18" viewBox="0 0 18 18" fill="none" xmlns="http://www.w3.org/2000/svg">
<path fill-rule="evenodd" clip-rule="evenodd" d="M8.01732 5.88747C8.39487 5.32006 8.29997 4.56173 7.79425 4.10484C7.28852 3.64796 6.52448 3.6303 5.99819 4.06334C5.4719 4.49638 5.34208 5.24952 5.69302 5.83377C6.04396 6.41801 6.76981 6.65718 7.39932 6.39597C7.65089 6.29101 7.86587 6.11412 8.01732 5.88747Z" stroke="#3D3D3D" stroke-width="1.125" stroke-linecap="round" stroke-linejoin="round"/>
<path fill-rule="evenodd" clip-rule="evenodd" d="M8.01732 13.6238C8.39487 13.0564 8.29997 12.2981 7.79425 11.8412C7.28852 11.3843 6.52448 11.3666 5.99819 11.7997C5.4719 12.2327 5.34208 12.9858 5.69302 13.5701C6.04396 14.1543 6.76981 14.3935 7.39932 14.1323C7.65089 14.0273 7.86587 13.8504 8.01732 13.6238V13.6238Z" stroke="#3D3D3D" stroke-width="1.125" stroke-linecap="round" stroke-linejoin="round"/>
<path fill-rule="evenodd" clip-rule="evenodd" d="M9.98221 9.75515C9.60466 9.18773 9.69956 8.4294 10.2053 7.97252C10.711 7.51563 11.475 7.49798 12.0013 7.93102C12.5276 8.36405 12.6574 9.11719 12.3065 9.70144C11.9556 10.2857 11.2297 10.5249 10.6002 10.2636C10.3486 10.1587 10.1337 9.98179 9.98221 9.75515V9.75515Z" stroke="#3D3D3D" stroke-width="1.125" stroke-linecap="round" stroke-linejoin="round"/>
<path d="M8.24976 4.55688C7.9391 4.55688 7.68726 4.80872 7.68726 5.11938C7.68726 5.43004 7.9391 5.68188 8.24976 5.68188V4.55688ZM14.2498 5.68188C14.5604 5.68188 14.8123 5.43004 14.8123 5.11938C14.8123 4.80872 14.5604 4.55688 14.2498 4.55688V5.68188ZM5.49501 5.68188C5.80567 5.68188 6.05751 5.43004 6.05751 5.11938C6.05751 4.80872 5.80567 4.55688 5.49501 4.55688V5.68188ZM3.74976 4.55688C3.4391 4.55688 3.18726 4.80872 3.18726 5.11938C3.18726 5.43004 3.4391 5.68188 3.74976 5.68188V4.55688ZM8.24976 12.2938C7.9391 12.2938 7.68726 12.5457 7.68726 12.8563C7.68726 13.167 7.9391 13.4188 8.24976 13.4188V12.2938ZM14.2498 13.4188C14.5604 13.4188 14.8123 13.167 14.8123 12.8563C14.8123 12.5457 14.5604 12.2938 14.2498 12.2938V13.4188ZM5.49501 13.4188C5.80567 13.4188 6.05751 13.167 6.05751 12.8563C6.05751 12.5457 5.80567 12.2938 5.49501 12.2938V13.4188ZM3.74976 12.2938C3.4391 12.2938 3.18726 12.5457 3.18726 12.8563C3.18726 13.167 3.4391 13.4188 3.74976 13.4188V12.2938ZM9.74976 9.55035C10.0604 9.55035 10.3123 9.29851 10.3123 8.98785C10.3123 8.67719 10.0604 8.42535 9.74976 8.42535V9.55035ZM3.74976 8.42535C3.4391 8.42535 3.18726 8.67719 3.18726 8.98785C3.18726 9.29851 3.4391 9.55035 3.74976 9.55035V8.42535ZM12.5045 8.42535C12.1938 8.42535 11.942 8.67719 11.942 8.98785C11.942 9.29851 12.1938 9.55035 12.5045 9.55035V8.42535ZM14.2497 9.55035C14.5604 9.55035 14.8122 9.29851 14.8122 8.98785C14.8122 8.67719 14.5604 8.42535 14.2497 8.42535V9.55035ZM8.24976 5.68188H14.2498V4.55688H8.24976V5.68188ZM5.49501 4.55688H3.74976V5.68188H5.49501V4.55688ZM8.24976 13.4188H14.2498V12.2938H8.24976V13.4188ZM5.49501 12.2938H3.74976V13.4188H5.49501V12.2938ZM9.74976 8.42535H3.74976V9.55035H9.74976V8.42535ZM12.5045 9.55035H14.2497V8.42535H12.5045V9.55035Z" fill="#3D3D3D"/>
</svg>
