<svg width="20" height="20" viewBox="0 0 20 20" fill="none" xmlns="http://www.w3.org/2000/svg">
<path d="M7.0049 10.2653H8.40911V13.5337C8.40911 14.0179 9.0063 14.2439 9.32911 13.8807L12.767 9.97473C13.0656 9.63578 12.8235 9.10315 12.3716 9.10315H10.9674V5.83473C10.9674 5.35052 10.3702 5.12455 10.0474 5.48771L6.60946 9.39368C6.31086 9.73263 6.55297 10.2653 7.0049 10.2653Z" stroke="#6A1AD3" stroke-width="1.21053" stroke-miterlimit="10" stroke-linecap="round" stroke-linejoin="round"/>
<path d="M9.65999 17.7544C14.117 17.7544 17.7302 14.1412 17.7302 9.68419C17.7302 5.22715 14.117 1.61401 9.65999 1.61401C5.20295 1.61401 1.58981 5.22715 1.58981 9.68419C1.58981 14.1412 5.20295 17.7544 9.65999 17.7544Z" stroke="#6A1AD3" stroke-width="1.21053" stroke-miterlimit="10" stroke-linecap="round" stroke-linejoin="round"/>
</svg>
