<svg width="19" height="18" viewBox="0 0 19 18" fill="none" xmlns="http://www.w3.org/2000/svg">
<path d="M3.5 5.99998L2.96975 5.46973L2.4395 5.99998L2.96975 6.53023L3.5 5.99998ZM14.75 7.49998C14.75 7.69889 14.829 7.88965 14.9697 8.03031C15.1103 8.17096 15.3011 8.24998 15.5 8.24998C15.6989 8.24998 15.8897 8.17096 16.0303 8.03031C16.171 7.88965 16.25 7.69889 16.25 7.49998H14.75ZM5.96975 2.46973L2.96975 5.46973L4.03025 6.53023L7.03025 3.53023L5.96975 2.46973ZM2.96975 6.53023L5.96975 9.53023L7.03025 8.46973L4.03025 5.46973L2.96975 6.53023ZM3.5 6.74998H14V5.24998H3.5V6.74998ZM14 6.74998C14.1989 6.74998 14.3897 6.82899 14.5303 6.96965C14.671 7.1103 14.75 7.30106 14.75 7.49998H16.25C16.25 6.90324 16.0129 6.33094 15.591 5.90899C15.169 5.48703 14.5967 5.24998 14 5.24998V6.74998ZM15.5 12L16.0302 11.4697L16.5605 12L16.0302 12.5302L15.5 12ZM2 10.5C2 10.3011 2.07902 10.1103 2.21967 9.96965C2.36032 9.82899 2.55109 9.74998 2.75 9.74998C2.94891 9.74998 3.13968 9.82899 3.28033 9.96965C3.42098 10.1103 3.5 10.3011 3.5 10.5H2ZM13.0302 8.46973L16.0302 11.4697L14.9697 12.5302L11.9697 9.53023L13.0302 8.46973ZM16.0302 12.5302L13.0302 15.5302L11.9697 14.4697L14.9697 11.4697L16.0302 12.5302ZM15.5 12.75H4.25V11.25H15.5V12.75ZM4.25 12.75C3.65326 12.75 3.08097 12.5129 2.65901 12.091C2.23705 11.669 2 11.0967 2 10.5H3.5C3.5 10.6989 3.57902 10.8897 3.71967 11.0303C3.86032 11.171 4.05109 11.25 4.25 11.25V12.75Z" fill="#50169C"/>
</svg>
