<svg width="20" height="20" viewBox="0 0 20 20" fill="none" xmlns="http://www.w3.org/2000/svg">
<path d="M6.45615 1.61401V4.03507" stroke="#6A1AD3" stroke-width="1.21053" stroke-miterlimit="10" stroke-linecap="round" stroke-linejoin="round"/>
<path d="M12.9123 1.61401V4.03507" stroke="#6A1AD3" stroke-width="1.21053" stroke-miterlimit="10" stroke-linecap="round" stroke-linejoin="round"/>
<path d="M2.82455 7.33582H16.5439" stroke="#6A1AD3" stroke-width="1.21053" stroke-miterlimit="10" stroke-linecap="round" stroke-linejoin="round"/>
<path d="M14.5263 18.5614C16.3091 18.5614 17.7544 17.1161 17.7544 15.3333C17.7544 13.5505 16.3091 12.1052 14.5263 12.1052C12.7435 12.1052 11.2982 13.5505 11.2982 15.3333C11.2982 17.1161 12.7435 18.5614 14.5263 18.5614Z" stroke="#6A1AD3" stroke-width="1.21053" stroke-miterlimit="10" stroke-linecap="round" stroke-linejoin="round"/>
<path d="M15.7288 15.3737H13.3239" stroke="#6A1AD3" stroke-width="1.21053" stroke-miterlimit="10" stroke-linecap="round" stroke-linejoin="round"/>
<path d="M14.5263 14.1954V16.6084" stroke="#6A1AD3" stroke-width="1.21053" stroke-miterlimit="10" stroke-linecap="round" stroke-linejoin="round"/>
<path d="M16.9474 6.85967V13.2028C16.3582 12.533 15.4947 12.1053 14.5263 12.1053C12.7428 12.1053 11.2982 13.5498 11.2982 15.3334C11.2982 15.9386 11.4677 16.5116 11.7663 16.9958C11.9358 17.2863 12.1537 17.5446 12.4039 17.7544H6.45614C3.63158 17.7544 2.42105 16.1404 2.42105 13.7193V6.85967C2.42105 4.43862 3.63158 2.82458 6.45614 2.82458H12.9123C15.7368 2.82458 16.9474 4.43862 16.9474 6.85967Z" stroke="#6A1AD3" stroke-width="1.21053" stroke-miterlimit="10" stroke-linecap="round" stroke-linejoin="round"/>
<path d="M9.68057 11.0561H9.68782" stroke="#6A1AD3" stroke-width="1.61404" stroke-linecap="round" stroke-linejoin="round"/>
<path d="M6.69366 11.0561H6.70091" stroke="#6A1AD3" stroke-width="1.61404" stroke-linecap="round" stroke-linejoin="round"/>
<path d="M6.69366 13.4772H6.70091" stroke="#6A1AD3" stroke-width="1.61404" stroke-linecap="round" stroke-linejoin="round"/>
</svg>
