<svg width="18" height="18" viewBox="0 0 18 18" fill="none" xmlns="http://www.w3.org/2000/svg">
<path fill-rule="evenodd" clip-rule="evenodd" d="M10.5 3.75C10.5715 3.75004 10.6416 3.77053 10.7018 3.80907C10.7621 3.84761 10.8101 3.90258 10.8401 3.9675L13.3901 9.46875C13.9801 9.29902 14.6124 9.35817 15.1607 9.63437C15.709 9.91058 16.1328 10.3835 16.3475 10.9586C16.5623 11.5338 16.5521 12.1687 16.319 12.7367C16.0859 13.3046 15.6471 13.7637 15.0903 14.0222C14.5334 14.2806 13.8995 14.3195 13.3153 14.1309C12.7311 13.9423 12.2395 13.5402 11.9389 13.005C11.6382 12.4697 11.5506 11.8408 11.6935 11.2437C11.8365 10.6467 12.1994 10.1256 12.7099 9.7845L10.26 4.5H8.625V3.75H10.5ZM13.1933 10.8289C12.957 11.0377 12.8038 11.3245 12.7617 11.637C12.7196 11.9494 12.7913 12.2666 12.9638 12.5305C13.1363 12.7944 13.3981 12.9873 13.7012 13.0741C14.0042 13.1609 14.3285 13.1357 14.6145 13.0031C14.9005 12.8705 15.1293 12.6393 15.2589 12.3519C15.3885 12.0645 15.4103 11.7401 15.3204 11.4379C15.2305 11.1357 15.0348 10.876 14.7691 10.7063C14.5034 10.5366 14.1855 10.4681 13.8735 10.5135L14.4026 11.6546C14.4418 11.7444 14.4442 11.846 14.4095 11.9376C14.3747 12.0291 14.3055 12.1035 14.2166 12.1447C14.1277 12.1859 14.0263 12.1907 13.9339 12.158C13.8415 12.1254 13.7656 12.0579 13.7224 11.97L13.1933 10.8289ZM6.3465 12.1875C6.25065 12.793 5.93023 13.3401 5.44908 13.72C4.96793 14.0998 4.36134 14.2845 3.75015 14.2372C3.13895 14.1899 2.56799 13.9142 2.151 13.4648C1.73401 13.0155 1.50158 12.4255 1.5 11.8125C1.49915 11.198 1.73043 10.6059 2.14754 10.1546C2.56464 9.70336 3.1368 9.42631 3.74946 9.3789C4.36212 9.3315 4.97008 9.51724 5.45164 9.89896C5.9332 10.2807 6.25281 10.8302 6.3465 11.4375H7.5V10.875C7.5 10.6761 7.57902 10.4853 7.71967 10.3447C7.86032 10.204 8.05109 10.125 8.25 10.125H10.5V11.625C10.5 11.8239 10.421 12.0147 10.2803 12.1553C10.1397 12.296 9.94891 12.375 9.75 12.375H8.25C8.05725 12.375 7.88138 12.3022 7.74825 12.1826C7.72817 12.1859 7.70785 12.1875 7.6875 12.1875H6.3465ZM3.9375 13.125C3.6941 13.1249 3.45551 13.0572 3.2484 12.9293C3.04128 12.8015 2.8738 12.6186 2.76467 12.401C2.65553 12.1834 2.60904 11.9398 2.6304 11.6973C2.65176 11.4549 2.74011 11.2231 2.8856 11.028C3.03108 10.8329 3.22796 10.682 3.45424 10.5923C3.68052 10.5027 3.92727 10.4777 4.16694 10.5201C4.4066 10.5626 4.62973 10.6709 4.81139 10.8329C4.99305 10.9949 5.12608 11.2042 5.19563 11.4375H3.9375C3.83805 11.4375 3.74266 11.477 3.67234 11.5473C3.60201 11.6177 3.5625 11.713 3.5625 11.8125C3.5625 11.912 3.60201 12.0073 3.67234 12.0777C3.74266 12.148 3.83805 12.1875 3.9375 12.1875H5.19563C5.11475 12.4584 4.94863 12.6959 4.72196 12.8648C4.4953 13.0337 4.22018 13.125 3.9375 13.125Z" fill="black"/>
<path d="M10.5199 8.96025L10.8949 8.21025C10.9469 8.10615 10.974 7.99137 10.974 7.875C10.974 7.75863 10.9469 7.64385 10.8949 7.53975L10.5199 6.78975C10.4576 6.66508 10.3618 6.56023 10.2432 6.48697C10.1246 6.41371 9.988 6.37494 9.84863 6.375H8.61862C8.29177 6.37504 7.96711 6.42849 7.6575 6.53325L6.47812 6.93188C6.42268 6.95061 6.37239 6.98207 6.33128 7.02373C6.29016 7.06539 6.25937 7.11609 6.24137 7.17178C6.22337 7.22747 6.21865 7.2866 6.22759 7.34444C6.23653 7.40228 6.25889 7.45722 6.29288 7.50488L7.51275 9.2175C7.54744 9.26622 7.59328 9.30594 7.64645 9.33334C7.69962 9.36074 7.75856 9.37502 7.81838 9.375H9.849C9.98831 9.375 10.1249 9.33619 10.2434 9.26293C10.3619 9.18968 10.4576 9.08487 10.5199 8.96025ZM5.2065 7.26863C5.17138 7.22383 5.12652 7.18761 5.07532 7.16273C5.02412 7.13784 4.96793 7.12494 4.911 7.125H1.875C1.77554 7.125 1.68016 7.16451 1.60984 7.23483C1.53951 7.30516 1.5 7.40054 1.5 7.5V8.10188C1.49999 8.19419 1.53404 8.28327 1.59562 8.35205C1.6572 8.42082 1.74199 8.46447 1.83375 8.47463L6.11887 8.95087C6.15565 8.9551 6.19286 8.94835 6.22581 8.93147C6.25875 8.91459 6.28596 8.88833 6.30401 8.85601C6.32206 8.82368 6.33013 8.78674 6.32722 8.74983C6.3243 8.71293 6.31052 8.67771 6.28763 8.64862L5.2065 7.26863ZM14.1188 5.70488C14.1014 5.68018 14.0784 5.66002 14.0517 5.64611C14.0249 5.63221 13.9952 5.62497 13.965 5.625H12.4909C12.4589 5.625 12.4275 5.63318 12.3995 5.64876C12.3716 5.66433 12.3481 5.68679 12.3313 5.714C12.3145 5.7412 12.305 5.77225 12.3036 5.8042C12.3021 5.83614 12.3089 5.86791 12.3232 5.8965L13.0732 7.3965C13.0888 7.42761 13.1128 7.45376 13.1424 7.47204C13.172 7.49032 13.2061 7.5 13.2409 7.5H15.0146C15.049 7.50004 15.0826 7.49065 15.112 7.47287C15.1414 7.45508 15.1653 7.42957 15.1811 7.39913C15.197 7.36869 15.2042 7.33447 15.2019 7.30022C15.1997 7.26596 15.1881 7.23298 15.1684 7.20487L14.1188 5.70488Z" fill="black"/>
</svg>
