<svg width="18" height="18" viewBox="0 0 18 18" fill="none" xmlns="http://www.w3.org/2000/svg">
<g clip-path="url(#clip0_2121_8593)">
<path d="M9.00049 18C13.6949 18 17.5005 14.1944 17.5005 9.5C17.5005 4.80558 13.6949 1 9.00049 1C4.30607 1 0.500488 4.80558 0.500488 9.5C0.500488 14.1944 4.30607 18 9.00049 18Z" fill="#F4900C"/>
<path d="M9.00049 17C13.6949 17 17.5005 13.1944 17.5005 8.5C17.5005 3.80558 13.6949 0 9.00049 0C4.30607 0 0.500488 3.80558 0.500488 8.5C0.500488 13.1944 4.30607 17 9.00049 17Z" fill="#FFCC4D"/>
<path d="M9 16.001C12.866 16.001 16 12.867 16 9.00098C16 5.13498 12.866 2.00098 9 2.00098C5.13401 2.00098 2 5.13498 2 9.00098C2 12.867 5.13401 16.001 9 16.001Z" fill="#FFE8B6"/>
<path d="M9 15.501C12.866 15.501 16 12.367 16 8.50098C16 4.63498 12.866 1.50098 9 1.50098C5.13401 1.50098 2 4.63498 2 8.50098C2 12.367 5.13401 15.501 9 15.501Z" fill="#FFAC33"/>
<g filter="url(#filter0_d_2121_8593)">
<path fill-rule="evenodd" clip-rule="evenodd" d="M8.85239 4.82703C8.68331 4.86548 8.62595 4.88453 8.51252 4.93992C8.38409 5.00265 8.29732 5.06472 8.17953 5.17811C7.98151 5.36877 7.83484 5.62612 7.72105 5.98259C7.57685 6.43429 7.54594 6.52897 7.53206 6.56124C7.49416 6.64943 7.45514 6.74778 7.45514 6.7551C7.45514 6.76472 7.33521 7.01439 7.29216 7.09439C7.13926 7.37853 6.9073 7.65694 6.67494 7.83518C6.48154 7.98355 6.24046 8.1201 6.0054 8.21444C5.97542 8.22648 5.94523 8.24034 5.9383 8.24524C5.93138 8.25016 5.89739 8.26184 5.86278 8.27121C5.82816 8.28059 5.79417 8.29213 5.78725 8.29689C5.78033 8.30165 5.74917 8.31308 5.71802 8.32231C5.68686 8.33153 5.61605 8.3538 5.56067 8.37178C5.39524 8.4255 5.40034 8.424 5.2145 8.4733C5.12863 8.49608 4.92395 8.56295 4.88092 8.58227C4.5378 8.73637 4.2754 8.98283 4.12945 9.28808C4.02462 9.5073 4.0006 9.61138 4.00098 9.84464C4.00135 10.0693 4.02356 10.1797 4.10361 10.3545C4.28589 10.7526 4.60568 11.0315 5.0068 11.1421C5.22802 11.2032 5.40633 11.1949 5.66204 11.1116C5.85258 11.0496 6.02838 10.9322 6.20318 10.7501C6.34527 10.6021 6.42103 10.4891 6.49192 10.3193C6.50983 10.2764 6.52964 10.2295 6.53594 10.2152C6.54223 10.2009 6.5666 10.1307 6.59009 10.0592C6.61358 9.98768 6.6616 9.84139 6.6968 9.73411C6.77328 9.50096 6.8095 9.3965 6.83205 9.344C6.84127 9.32255 6.87216 9.2494 6.90069 9.18146C6.97944 8.99401 7.11486 8.75641 7.24483 8.57768C7.32601 8.46603 7.51978 8.25561 7.58731 8.20576C7.84723 8.01388 8.11072 7.86757 8.4024 7.75311C8.5461 7.69673 8.85982 7.595 9.09156 7.52964C9.24677 7.48587 9.42335 7.42104 9.55123 7.36086C9.64013 7.31903 9.82678 7.18523 9.9145 7.10046C10.1028 6.9185 10.2518 6.65993 10.3038 6.42471C10.3192 6.3551 10.3214 5.96343 10.3069 5.87501C10.3012 5.84087 10.2917 5.80981 10.2857 5.80597C10.2797 5.80214 10.2748 5.78766 10.2748 5.7738C10.2748 5.73271 10.1711 5.50157 10.1117 5.41043C9.91593 5.10989 9.63358 4.91475 9.28038 4.83589C9.19883 4.81768 8.91897 4.81189 8.85239 4.82703Z" fill="#FFCC4D"/>
<path fill-rule="evenodd" clip-rule="evenodd" d="M12.5277 4.82703C12.3586 4.86548 12.3012 4.88453 12.1878 4.93992C12.0594 5.00265 11.9726 5.06472 11.8548 5.17811C11.6568 5.36877 11.5101 5.62612 11.3963 5.98259C11.2521 6.43429 11.2212 6.52897 11.2074 6.56124C11.1695 6.64943 11.1304 6.74778 11.1304 6.7551C11.1304 6.76472 11.0105 7.01439 10.9675 7.09439C10.8146 7.37853 10.5826 7.65694 10.3502 7.83518C10.1568 7.98355 9.91575 8.1201 9.68069 8.21444C9.65072 8.22648 9.62052 8.24034 9.6136 8.24524C9.60667 8.25016 9.57269 8.26184 9.53807 8.27121C9.50345 8.28059 9.46946 8.29213 9.46254 8.29689C9.45562 8.30165 9.42446 8.31308 9.39331 8.32231C9.36215 8.33153 9.29135 8.3538 9.23596 8.37178C9.07053 8.4255 9.07563 8.424 8.88979 8.4733C8.80392 8.49608 8.59924 8.56295 8.55622 8.58227C8.2131 8.73637 7.95069 8.98283 7.80475 9.28808C7.69991 9.5073 7.6759 9.61138 7.67627 9.84464C7.67664 10.0693 7.69886 10.1797 7.7789 10.3545C7.96119 10.7526 8.28097 11.0315 8.68209 11.1421C8.90331 11.2032 9.08162 11.1949 9.33733 11.1116C9.52787 11.0496 9.70367 10.9322 9.87847 10.7501C10.0206 10.6021 10.0963 10.4891 10.1672 10.3193C10.1851 10.2764 10.2049 10.2295 10.2112 10.2152C10.2175 10.2009 10.2419 10.1307 10.2654 10.0592C10.2889 9.98768 10.3369 9.84139 10.3721 9.73411C10.4486 9.50096 10.4848 9.3965 10.5073 9.344C10.5166 9.32255 10.5475 9.2494 10.576 9.18146C10.6547 8.99401 10.7902 8.75641 10.9201 8.57768C11.0013 8.46603 11.1951 8.25561 11.2626 8.20576C11.5225 8.01388 11.786 7.86757 12.0777 7.75311C12.2214 7.69673 12.5351 7.595 12.7669 7.52964C12.9221 7.48587 13.0986 7.42104 13.2265 7.36086C13.3154 7.31903 13.5021 7.18523 13.5898 7.10046C13.7781 6.9185 13.9271 6.65993 13.9791 6.42471C13.9945 6.3551 13.9967 5.96343 13.9821 5.87501C13.9765 5.84087 13.967 5.80981 13.961 5.80597C13.955 5.80214 13.9501 5.78766 13.9501 5.7738C13.9501 5.73271 13.8464 5.50157 13.787 5.41043C13.5912 5.10989 13.3089 4.91475 12.9557 4.83589C12.8741 4.81768 12.5943 4.81189 12.5277 4.82703Z" fill="#FFCC4D"/>
<path fill-rule="evenodd" clip-rule="evenodd" d="M12.4338 8.36825C12.2438 8.3858 11.9616 8.50677 11.8017 8.63922C11.6539 8.76158 11.4957 8.94882 11.4468 9.05922C11.436 9.08346 11.4217 9.11208 11.4148 9.1228C11.3886 9.16407 11.3246 9.35151 11.3174 9.40808C11.3133 9.4407 11.3047 9.47808 11.2982 9.49113C11.2917 9.50419 11.2862 9.55229 11.2859 9.59802C11.2856 9.65261 11.2795 9.68634 11.268 9.69617C11.2651 9.73602 11.2724 9.71654 11.268 9.7555C11.2525 9.79558 11.2694 9.73812 11.2588 9.79446C11.2664 9.8529 11.2651 9.82693 11.2694 9.86401C11.2825 9.87523 11.2883 9.90506 11.2883 9.96118C11.2883 10.0057 11.2932 10.0591 11.2993 10.0799C11.3054 10.1006 11.3174 10.1498 11.3261 10.1891C11.3432 10.2671 11.4102 10.4204 11.4851 10.5532C11.5454 10.6602 11.7301 10.8522 11.8588 10.9418C11.9558 11.0094 12.1087 11.0883 12.2198 11.1283C12.3324 11.1687 12.4407 11.1824 12.6478 11.1821C12.9031 11.1817 13.0014 11.1643 13.1325 11.0964C13.1671 11.0785 13.218 11.0565 13.2457 11.0475C13.2734 11.0384 13.3418 11.0028 13.3977 10.9682C13.5306 10.886 13.7492 10.6561 13.807 10.5379C13.8288 10.4932 13.8592 10.4359 13.8746 10.4106C13.9127 10.3476 13.9659 10.1835 13.9851 10.0692C13.9966 10.0002 14.001 9.76802 14.001 9.21254C14.001 8.37959 14.0024 8.39598 13.928 8.36922C13.886 8.35409 12.5961 8.35324 12.4338 8.36825Z" fill="#FFCC4D"/>
</g>
</g>
<defs>
<filter id="filter0_d_2121_8593" x="3.85098" y="4.81836" width="10.15" height="6.71328" filterUnits="userSpaceOnUse" color-interpolation-filters="sRGB">
<feFlood flood-opacity="0" result="BackgroundImageFix"/>
<feColorMatrix in="SourceAlpha" type="matrix" values="0 0 0 0 0 0 0 0 0 0 0 0 0 0 0 0 0 0 127 0" result="hardAlpha"/>
<feOffset dx="-0.149999" dy="0.349998"/>
<feComposite in2="hardAlpha" operator="out"/>
<feColorMatrix type="matrix" values="0 0 0 0 0 0 0 0 0 0 0 0 0 0 0 0 0 0 0.25 0"/>
<feBlend mode="normal" in2="BackgroundImageFix" result="effect1_dropShadow_2121_8593"/>
<feBlend mode="normal" in="SourceGraphic" in2="effect1_dropShadow_2121_8593" result="shape"/>
</filter>
<clipPath id="clip0_2121_8593">
<rect width="18" height="18" fill="white"/>
</clipPath>
</defs>
</svg>
