<svg width="88" height="88" viewBox="0 0 88 88" fill="none" xmlns="http://www.w3.org/2000/svg">
<rect x="9.42822" y="27.2373" width="32.4762" height="10.4762" fill="#EDE8FF"/>
<rect x="47.1426" y="27.2373" width="32.4762" height="10.4762" fill="#EDE8FF"/>
<rect x="46.0947" y="42.9512" width="28.2857" height="31.4286" fill="#EDE8FF"/>
<rect x="13.6187" y="42.9512" width="28.2857" height="31.4286" fill="#EDE8FF"/>
<circle cx="32.9999" cy="18.3325" r="4.71429" fill="#EDE8FF"/>
<circle cx="54.9999" cy="18.3325" r="4.71429" fill="#EDE8FF"/>
<path d="M80.6665 43.9997V73.333C80.6665 75.2779 79.8939 77.1432 78.5186 78.5185C77.1433 79.8937 75.2781 80.6663 73.3332 80.6663H14.6665C12.7216 80.6663 10.8563 79.8937 9.48105 78.5185C8.10579 77.1432 7.33317 75.2779 7.33317 73.333V43.9997C6.36071 43.9997 5.42808 43.6134 4.74045 42.9257C4.05281 42.2381 3.6665 41.3055 3.6665 40.333V29.333C3.6665 27.3881 4.43912 25.5228 5.81439 24.1476C7.18965 22.7723 9.05492 21.9997 10.9998 21.9997H22.6232C22.2088 20.8217 21.998 19.5818 21.9998 18.333C21.9998 15.4156 23.1588 12.6177 25.2217 10.5548C27.2846 8.49193 30.0825 7.33301 32.9998 7.33301C36.6665 7.33301 39.8932 9.16634 41.9098 11.8797V11.843L43.9998 14.6663L46.0898 11.843V11.8797C48.1065 9.16634 51.3332 7.33301 54.9998 7.33301C57.9172 7.33301 60.7151 8.49193 62.778 10.5548C64.8409 12.6177 65.9998 15.4156 65.9998 18.333C66.0017 19.5818 65.7909 20.8217 65.3765 21.9997H76.9998C78.9448 21.9997 80.81 22.7723 82.1853 24.1476C83.5605 25.5228 84.3332 27.3881 84.3332 29.333V40.333C84.3332 41.3055 83.9469 42.2381 83.2592 42.9257C82.5716 43.6134 81.639 43.9997 80.6665 43.9997ZM14.6665 73.333H40.3332V43.9997H14.6665V73.333ZM73.3332 73.333V43.9997H47.6665V73.333H73.3332ZM32.9998 14.6663C32.0274 14.6663 31.0947 15.0527 30.4071 15.7403C29.7195 16.4279 29.3332 17.3605 29.3332 18.333C29.3332 19.3055 29.7195 20.2381 30.4071 20.9257C31.0947 21.6134 32.0274 21.9997 32.9998 21.9997C33.9723 21.9997 34.9049 21.6134 35.5926 20.9257C36.2802 20.2381 36.6665 19.3055 36.6665 18.333C36.6665 17.3605 36.2802 16.4279 35.5926 15.7403C34.9049 15.0527 33.9723 14.6663 32.9998 14.6663ZM54.9998 14.6663C54.0274 14.6663 53.0947 15.0527 52.4071 15.7403C51.7195 16.4279 51.3332 17.3605 51.3332 18.333C51.3332 19.3055 51.7195 20.2381 52.4071 20.9257C53.0947 21.6134 54.0274 21.9997 54.9998 21.9997C55.9723 21.9997 56.9049 21.6134 57.5926 20.9257C58.2802 20.2381 58.6665 19.3055 58.6665 18.333C58.6665 17.3605 58.2802 16.4279 57.5926 15.7403C56.9049 15.0527 55.9723 14.6663 54.9998 14.6663ZM10.9998 29.333V36.6663H40.3332V29.333H10.9998ZM47.6665 29.333V36.6663H76.9998V29.333H47.6665Z" fill="#6A1AD3"/>
</svg>
