<svg width="29" height="28" viewBox="0 0 29 28" fill="none" xmlns="http://www.w3.org/2000/svg">
<path d="M18.5832 8.74967L22.6665 4.66634M24.9998 2.33301L22.6665 4.66634L24.9998 2.33301ZM13.7882 13.5447C14.3906 14.1391 14.8694 14.8467 15.1972 15.6269C15.525 16.4071 15.6952 17.2445 15.698 18.0907C15.7009 18.937 15.5363 19.7755 15.2137 20.5579C14.8912 21.3402 14.4171 22.0511 13.8187 22.6495C13.2203 23.2479 12.5094 23.722 11.727 24.0446C10.9446 24.3671 10.1062 24.5317 9.2599 24.5289C8.41364 24.526 7.5763 24.3558 6.79609 24.0281C6.01588 23.7003 5.30821 23.2214 4.71383 22.619C3.54498 21.4088 2.89822 19.7879 2.91284 18.1055C2.92746 16.4231 3.60229 14.8137 4.792 13.624C5.9817 12.4343 7.59108 11.7595 9.27351 11.7448C10.9559 11.7302 12.5768 12.377 13.787 13.5458L13.7882 13.5447ZM13.7882 13.5447L18.5832 8.74967L13.7882 13.5447ZM18.5832 8.74967L22.0832 12.2497L26.1665 8.16634L22.6665 4.66634L18.5832 8.74967Z" stroke="#7F56D9" stroke-width="2.33333" stroke-linecap="round" stroke-linejoin="round"/>
</svg>
