<svg width="65" height="40" viewBox="0 0 65 40" fill="none" xmlns="http://www.w3.org/2000/svg">
<path fill-rule="evenodd" clip-rule="evenodd" d="M31.5338 0.0544748C30.4348 0.296171 30.062 0.415916 29.3247 0.764116C28.4899 1.15841 27.9259 1.54854 27.1603 2.26129C25.8732 3.45972 24.9198 5.07737 24.1802 7.31803C23.2429 10.1573 23.042 10.7525 22.9518 10.9553C22.7054 11.5097 22.4518 12.1278 22.4518 12.1739C22.4518 12.2343 21.6723 13.8037 21.3925 14.3065C20.3986 16.0926 18.8909 17.8426 17.3806 18.9629C16.1235 19.8956 14.5565 20.7539 13.0286 21.3469C12.8338 21.4226 12.6375 21.5097 12.5925 21.5405C12.5475 21.5714 12.3266 21.6448 12.1015 21.7037C11.8765 21.7627 11.6556 21.8352 11.6106 21.8652C11.5656 21.8951 11.3631 21.9669 11.1606 22.025C10.9581 22.0829 10.4979 22.2228 10.1379 22.3359C9.06258 22.6735 9.09572 22.6641 7.88781 22.974C7.32963 23.1172 5.99924 23.5375 5.71958 23.659C3.48933 24.6276 1.78371 26.1768 0.835084 28.0955C0.153686 29.4735 -0.00242627 30.1277 2.833e-05 31.5939C0.00240111 33.006 0.146812 33.6999 0.667106 34.7987C1.85194 37.3011 3.9305 39.054 6.53778 39.7496C7.97569 40.1333 9.13467 40.0811 10.7968 39.558C12.0353 39.1681 13.178 38.4298 14.3141 37.2855C15.2377 36.3553 15.7302 35.6447 16.1909 34.5773C16.3073 34.3076 16.4361 34.0133 16.477 33.9234C16.5179 33.8335 16.6763 33.3921 16.829 32.9426C16.9817 32.493 17.2938 31.5735 17.5226 30.8991C18.0198 29.4336 18.2551 28.777 18.4018 28.447C18.4617 28.3122 18.6624 27.8524 18.8479 27.4253C19.3598 26.2471 20.24 24.7536 21.0848 23.6301C21.6125 22.9283 22.8719 21.6056 23.3109 21.2924C25.0003 20.0862 26.713 19.1665 28.6089 18.4471C29.543 18.0927 31.5821 17.4533 33.0884 17.0424C34.0972 16.7673 35.245 16.3598 36.0762 15.9815C36.654 15.7185 37.8673 14.8776 38.4375 14.3447C39.6614 13.201 40.6297 11.5756 40.9679 10.0971C41.0681 9.65955 41.0821 7.19763 40.9877 6.64182C40.9512 6.42726 40.8894 6.23199 40.8504 6.20788C40.8114 6.18377 40.7795 6.09279 40.7795 6.00566C40.7795 5.74737 40.105 4.2945 39.7192 3.7216C38.4467 1.8325 36.6115 0.605873 34.3157 0.11022C33.7857 -0.00429354 31.9666 -0.0406671 31.5338 0.0544748Z" fill="white"/>
<path fill-rule="evenodd" clip-rule="evenodd" d="M55.4252 0.0544748C54.3262 0.296171 53.9534 0.415916 53.2161 0.764116C52.3813 1.15841 51.8173 1.54854 51.0517 2.26129C49.7646 3.45972 48.8112 5.07738 48.0716 7.31803C47.1343 10.1573 46.9334 10.7525 46.8432 10.9553C46.5968 11.5097 46.3432 12.1278 46.3432 12.1739C46.3432 12.2343 45.5637 13.8037 45.2839 14.3065C44.29 16.0926 42.7823 17.8426 41.272 18.9629C40.0149 19.8956 38.4479 20.7539 36.92 21.3469C36.7252 21.4226 36.5289 21.5097 36.4839 21.5405C36.4389 21.5714 36.218 21.6448 35.993 21.7037C35.768 21.7627 35.547 21.8353 35.502 21.8652C35.457 21.8951 35.2545 21.9669 35.052 22.025C34.8495 22.0829 34.3893 22.2228 34.0293 22.3359C32.954 22.6735 32.9871 22.6641 31.7792 22.974C31.2211 23.1172 29.8907 23.5375 29.611 23.659C27.3807 24.6276 25.6751 26.1768 24.7265 28.0955C24.0451 29.4735 23.889 30.1277 23.8914 31.5939C23.8938 33.006 24.0382 33.6999 24.5585 34.7987C25.7434 37.3011 27.8219 39.054 30.4292 39.7496C31.8671 40.1333 33.0261 40.0811 34.6882 39.558C35.9267 39.1681 37.0694 38.4298 38.2055 37.2855C39.1291 36.3553 39.6216 35.6447 40.0823 34.5773C40.1988 34.3076 40.3275 34.0133 40.3685 33.9234C40.4094 33.8335 40.5678 33.3921 40.7204 32.9426C40.8731 32.493 41.1853 31.5735 41.414 30.8991C41.9112 29.4336 42.1466 28.777 42.2932 28.447C42.3531 28.3122 42.5539 27.8524 42.7394 27.4253C43.2512 26.2471 44.1314 24.7536 44.9762 23.6301C45.5039 22.9283 46.7634 21.6056 47.2023 21.2924C48.8917 20.0862 50.6044 19.1665 52.5003 18.4471C53.4344 18.0927 55.4735 17.4533 56.9798 17.0424C57.9887 16.7673 59.1364 16.3598 59.9676 15.9815C60.5455 15.7185 61.7587 14.8776 62.3289 14.3447C63.5528 13.201 64.5211 11.5756 64.8593 10.0971C64.9595 9.65955 64.9736 7.19763 64.8791 6.64182C64.8426 6.42726 64.7809 6.23199 64.7418 6.20788C64.7028 6.18377 64.6709 6.09279 64.6709 6.00566C64.6709 5.74737 63.9965 4.2945 63.6106 3.7216C62.3381 1.8325 60.5029 0.605873 58.2071 0.11022C57.6771 -0.00429354 55.858 -0.0406671 55.4252 0.0544748Z" fill="white"/>
<path fill-rule="evenodd" clip-rule="evenodd" d="M54.8134 22.3005C53.5786 22.4108 51.7442 23.1712 50.7048 24.0037C49.7444 24.7728 48.716 25.9498 48.398 26.6437C48.3282 26.7961 48.2347 26.976 48.1904 27.0434C48.0196 27.3028 47.6036 28.481 47.5573 28.8366C47.5306 29.0416 47.4742 29.2766 47.4321 29.3586C47.3899 29.4407 47.3541 29.743 47.3525 30.0305C47.3504 30.3736 47.3104 30.5857 47.2359 30.6475C47.217 30.8979 47.2644 30.7755 47.2359 31.0204C47.1352 31.2723 47.245 30.9111 47.1761 31.2653C47.2258 31.6326 47.217 31.4693 47.245 31.7024C47.3301 31.773 47.3678 31.9605 47.3678 32.3133C47.3678 32.5933 47.4 32.929 47.4393 33.0593C47.4788 33.1896 47.5571 33.4986 47.6133 33.7459C47.725 34.2363 48.1601 35.1997 48.6471 36.0345C49.0393 36.7069 50.2397 37.914 51.0763 38.4774C51.7068 38.902 52.7005 39.3983 53.4224 39.6492C54.1546 39.9037 54.8585 39.9893 56.2043 39.9874C57.8637 39.9851 58.5032 39.8758 59.3551 39.4491C59.5797 39.3366 59.9108 39.1981 60.0908 39.1414C60.2708 39.0846 60.7155 38.8603 61.0789 38.6428C61.9425 38.1262 63.3635 36.6815 63.7391 35.9384C63.881 35.6574 64.0787 35.2974 64.1783 35.1384C64.4264 34.7424 64.7718 33.7105 64.8966 32.9924C64.9719 32.5585 65 31.099 65 27.6075C65 22.3717 65.0092 22.4748 64.526 22.3066C64.2529 22.2115 55.8686 22.2061 54.8134 22.3005Z" fill="white"/>
</svg>
