<svg width="52" height="32" viewBox="0 0 52 32" fill="none" xmlns="http://www.w3.org/2000/svg">
<path fill-rule="evenodd" clip-rule="evenodd" d="M25.1875 0.0435798C24.3096 0.236937 24.0118 0.332733 23.4229 0.611293C22.7561 0.926732 22.3056 1.23883 21.6941 1.80903C20.666 2.76777 19.9046 4.0619 19.3138 5.85442C18.5651 8.12586 18.4046 8.60196 18.3326 8.76426C18.1358 9.20773 17.9332 9.70228 17.9332 9.73909C17.9332 9.78748 17.3106 11.043 17.0871 11.4452C16.2933 12.8741 15.089 14.2741 13.8826 15.1703C12.8786 15.9164 11.6269 16.6031 10.4065 17.0775C10.2509 17.138 10.0941 17.2078 10.0582 17.2324C10.0222 17.2571 9.84576 17.3158 9.66604 17.363C9.48632 17.4101 9.30986 17.4682 9.27392 17.4921C9.23798 17.5161 9.07623 17.5735 8.91448 17.62C8.75273 17.6663 8.38511 17.7783 8.09756 17.8687C7.23869 18.1388 7.26516 18.1313 6.30034 18.3792C5.8545 18.4938 4.79186 18.83 4.56848 18.9272C2.78708 19.7021 1.42472 20.9414 0.667018 22.4764C0.122756 23.5788 -0.00193797 24.1022 2.26284e-05 25.2751C0.00191787 26.4048 0.117265 26.9599 0.532847 27.839C1.47923 29.8409 3.13947 31.2432 5.22201 31.7997C6.37053 32.1066 7.29626 32.0649 8.62385 31.6464C9.6131 31.3345 10.5258 30.7439 11.4333 29.8284C12.171 29.0842 12.5644 28.5158 12.9324 27.6618C13.0254 27.4461 13.1283 27.2107 13.1609 27.1387C13.1936 27.0668 13.3201 26.7137 13.4421 26.3541C13.564 25.9944 13.8134 25.2588 13.9961 24.7193C14.3932 23.5469 14.5812 23.0216 14.6983 22.7576C14.7461 22.6497 14.9065 22.2819 15.0547 21.9403C15.4635 20.9977 16.1666 19.8029 16.8414 18.9041C17.2628 18.3427 18.2688 17.2845 18.6194 17.0339C19.9689 16.069 21.3368 15.3332 22.8512 14.7577C23.5973 14.4741 25.226 13.9626 26.4292 13.634C27.235 13.4139 28.1518 13.0878 28.8157 12.7852C29.2772 12.5748 30.2463 11.902 30.7017 11.4758C31.6793 10.5608 32.4527 9.2605 32.7229 8.07767C32.8029 7.72764 32.8141 5.7581 32.7387 5.31346C32.7096 5.14181 32.6602 4.98559 32.629 4.96631C32.5979 4.94702 32.5724 4.87423 32.5724 4.80453C32.5724 4.5979 32.0337 3.4356 31.7255 2.97728C30.7091 1.466 29.2432 0.484698 27.4095 0.088176C26.9861 -0.00343483 25.5331 -0.0325336 25.1875 0.0435798Z" fill="#597ED7"/>
<path fill-rule="evenodd" clip-rule="evenodd" d="M44.2705 0.0435798C43.3926 0.236937 43.0948 0.332733 42.5059 0.611293C41.8391 0.926732 41.3886 1.23883 40.7771 1.80903C39.7491 2.76777 38.9876 4.0619 38.3968 5.85442C37.6481 8.12586 37.4876 8.60196 37.4156 8.76426C37.2188 9.20773 37.0162 9.70228 37.0162 9.73909C37.0162 9.78748 36.3936 11.043 36.1701 11.4452C35.3763 12.8741 34.172 14.2741 32.9656 15.1703C31.9616 15.9164 30.7099 16.6031 29.4895 17.0775C29.3339 17.138 29.1771 17.2078 29.1412 17.2324C29.1052 17.2571 28.9288 17.3158 28.749 17.363C28.5693 17.4101 28.3929 17.4682 28.3569 17.4921C28.321 17.5161 28.1592 17.5735 27.9975 17.62C27.8357 17.6663 27.4681 17.7783 27.1806 17.8687C26.3217 18.1388 26.3482 18.1313 25.3834 18.3792C24.9375 18.4938 23.8749 18.83 23.6515 18.9272C21.8701 19.7021 20.5077 20.9414 19.75 22.4764C19.2058 23.5788 19.0811 24.1022 19.083 25.2751C19.0849 26.4048 19.2003 26.9599 19.6159 27.839C20.5622 29.8409 22.2225 31.2432 24.305 31.7997C25.4535 32.1066 26.3793 32.0649 27.7069 31.6464C28.6961 31.3345 29.6088 30.7439 30.5163 29.8284C31.254 29.0842 31.6474 28.5158 32.0154 27.6618C32.1084 27.4461 32.2113 27.2107 32.2439 27.1387C32.2766 27.0668 32.4031 26.7137 32.5251 26.3541C32.647 25.9944 32.8964 25.2588 33.0791 24.7193C33.4762 23.5469 33.6642 23.0216 33.7813 22.7576C33.8292 22.6497 33.9895 22.2819 34.1377 21.9403C34.5465 20.9977 35.2496 19.8029 35.9244 18.9041C36.3459 18.3427 37.3518 17.2845 37.7025 17.0339C39.0519 16.069 40.4198 15.3332 41.9342 14.7577C42.6803 14.4741 44.309 13.9626 45.5122 13.634C46.318 13.4139 47.2348 13.0878 47.8987 12.7852C48.3602 12.5748 49.3293 11.902 49.7847 11.4758C50.7623 10.5608 51.5357 9.2605 51.8059 8.07767C51.8859 7.72764 51.8971 5.75811 51.8217 5.31346C51.7926 5.14181 51.7432 4.9856 51.7121 4.96631C51.6809 4.94702 51.6554 4.87423 51.6554 4.80453C51.6554 4.5979 51.1167 3.4356 50.8085 2.97728C49.7921 1.466 48.3262 0.484698 46.4925 0.088176C46.0691 -0.00343483 44.6161 -0.0325336 44.2705 0.0435798Z" fill="#6A1AD3"/>
<path fill-rule="evenodd" clip-rule="evenodd" d="M43.7814 17.8406C42.7952 17.9288 41.3299 18.5372 40.4997 19.2032C39.7326 19.8185 38.9111 20.76 38.6572 21.3152C38.6014 21.4371 38.5267 21.581 38.4913 21.6349C38.3549 21.8424 38.0227 22.785 37.9857 23.0694C37.9643 23.2335 37.9193 23.4214 37.8856 23.4871C37.852 23.5527 37.8233 23.7946 37.822 24.0246C37.8204 24.2991 37.7884 24.4687 37.7289 24.5182C37.7138 24.7185 37.7517 24.6206 37.7289 24.8165C37.6485 25.0181 37.7362 24.7291 37.6812 25.0124C37.7208 25.3063 37.7138 25.1757 37.7362 25.3621C37.8042 25.4186 37.8342 25.5686 37.8342 25.8508C37.8342 26.0748 37.86 26.3434 37.8914 26.4477C37.9229 26.5519 37.9855 26.7991 38.0304 26.9969C38.1196 27.3892 38.4671 28.16 38.8561 28.8278C39.1694 29.3657 40.1282 30.3314 40.7965 30.7821C41.3001 31.1218 42.0937 31.5188 42.6704 31.7196C43.2552 31.9231 43.8175 31.9916 44.8924 31.9901C46.2178 31.9883 46.7286 31.9008 47.4091 31.5594C47.5885 31.4695 47.8529 31.3587 47.9967 31.3133C48.1405 31.2679 48.4957 31.0884 48.786 30.9144C49.4758 30.5012 50.6108 29.3454 50.9107 28.7509C51.0241 28.5261 51.182 28.2381 51.2616 28.1109C51.4598 27.7941 51.7356 26.9686 51.8353 26.3941C51.8955 26.047 51.9179 24.8794 51.9179 22.0862C51.9179 17.8976 51.9253 17.98 51.5393 17.8455C51.3212 17.7694 44.6243 17.7651 43.7814 17.8406Z" fill="#78C056"/>
</svg>
