<svg width="156" height="97" viewBox="0 0 156 97" fill="none" xmlns="http://www.w3.org/2000/svg">
<path fill-rule="evenodd" clip-rule="evenodd" d="M77.0338 0.0544748C75.9348 0.296171 75.562 0.415916 74.8247 0.764116C73.9899 1.15841 73.4259 1.54854 72.6603 2.26129C71.3732 3.45972 70.4198 5.07737 69.6802 7.31803C68.7429 10.1573 68.542 10.7525 68.4518 10.9553C68.2054 11.5097 67.9518 12.1278 67.9518 12.1739C67.9518 12.2343 67.1723 13.8037 66.8925 14.3065C65.8986 16.0926 64.3909 17.8426 62.8806 18.9629C61.6235 19.8956 60.0565 20.7539 58.5286 21.3469C58.3338 21.4226 58.1375 21.5097 58.0925 21.5405C58.0475 21.5714 57.8266 21.6448 57.6015 21.7037C57.3765 21.7627 57.1556 21.8352 57.1106 21.8652C57.0656 21.8951 56.8631 21.9669 56.6606 22.025C56.4581 22.0829 55.9979 22.2228 55.6379 22.3359C54.5626 22.6735 54.5957 22.6641 53.3878 22.974C52.8296 23.1172 51.4992 23.5375 51.2196 23.659C48.9893 24.6276 47.2837 26.1768 46.3351 28.0955C45.6537 29.4735 45.4976 30.1277 45.5 31.5939C45.5024 33.006 45.6468 33.6999 46.1671 34.7987C47.3519 37.3011 49.4305 39.054 52.0378 39.7496C53.4757 40.1333 54.6347 40.0811 56.2968 39.558C57.5353 39.1681 58.678 38.4298 59.8141 37.2855C60.7377 36.3553 61.2302 35.6447 61.6909 34.5773C61.8073 34.3076 61.9361 34.0133 61.977 33.9234C62.0179 33.8335 62.1763 33.3921 62.329 32.9426C62.4817 32.493 62.7938 31.5735 63.0226 30.8991C63.5198 29.4336 63.7551 28.777 63.9018 28.447C63.9617 28.3122 64.1624 27.8524 64.3479 27.4253C64.8598 26.2471 65.74 24.7536 66.5848 23.6301C67.1125 22.9283 68.3719 21.6056 68.8109 21.2924C70.5003 20.0862 72.213 19.1665 74.1089 18.4471C75.043 18.0927 77.0821 17.4533 78.5884 17.0424C79.5972 16.7673 80.745 16.3598 81.5762 15.9815C82.154 15.7185 83.3673 14.8776 83.9375 14.3447C85.1614 13.201 86.1297 11.5756 86.4679 10.0971C86.5681 9.65955 86.5821 7.19763 86.4877 6.64182C86.4512 6.42726 86.3894 6.23199 86.3504 6.20788C86.3114 6.18377 86.2795 6.09279 86.2795 6.00566C86.2795 5.74737 85.605 4.2945 85.2192 3.7216C83.9467 1.8325 82.1115 0.605873 79.8157 0.11022C79.2857 -0.00429354 77.4666 -0.0406671 77.0338 0.0544748Z" fill="white"/>
<path fill-rule="evenodd" clip-rule="evenodd" d="M100.925 0.0544748C99.8263 0.296171 99.4534 0.415916 98.7162 0.764116C97.8813 1.15841 97.3174 1.54854 96.5518 2.26129C95.2647 3.45972 94.3113 5.07738 93.5716 7.31803C92.6344 10.1573 92.4334 10.7525 92.3433 10.9553C92.0969 11.5097 91.8433 12.1278 91.8433 12.1739C91.8433 12.2343 91.0638 13.8037 90.7839 14.3065C89.7901 16.0926 88.2824 17.8426 86.7721 18.9629C85.515 19.8956 83.948 20.7539 82.42 21.3469C82.2252 21.4226 82.0289 21.5097 81.9839 21.5405C81.9389 21.5714 81.718 21.6448 81.493 21.7037C81.268 21.7627 81.0471 21.8353 81.0021 21.8652C80.9571 21.8951 80.7546 21.9669 80.5521 22.025C80.3496 22.0829 79.8894 22.2228 79.5293 22.3359C78.4541 22.6735 78.4872 22.6641 77.2793 22.974C76.7211 23.1172 75.3907 23.5375 75.1111 23.659C72.8808 24.6276 71.1752 26.1768 70.2266 28.0955C69.5452 29.4735 69.3891 30.1277 69.3915 31.5939C69.3939 33.006 69.5383 33.6999 70.0586 34.7987C71.2434 37.3011 73.322 39.054 75.9293 39.7496C77.3672 40.1333 78.5261 40.0811 80.1882 39.558C81.4267 39.1681 82.5694 38.4298 83.7056 37.2855C84.6292 36.3553 85.1217 35.6447 85.5824 34.5773C85.6988 34.3076 85.8276 34.0133 85.8685 33.9234C85.9094 33.8335 86.0678 33.3921 86.2205 32.9426C86.3732 32.493 86.6853 31.5735 86.9141 30.8991C87.4112 29.4336 87.6466 28.777 87.7933 28.447C87.8531 28.3122 88.0539 27.8524 88.2394 27.4253C88.7513 26.2471 89.6315 24.7536 90.4763 23.6301C91.004 22.9283 92.2634 21.6056 92.7024 21.2924C94.3918 20.0862 96.1045 19.1665 98.0004 18.4471C98.9344 18.0927 100.974 17.4533 102.48 17.0424C103.489 16.7673 104.636 16.3598 105.468 15.9815C106.046 15.7185 107.259 14.8776 107.829 14.3447C109.053 13.201 110.021 11.5756 110.359 10.0971C110.46 9.65955 110.474 7.19763 110.379 6.64182C110.343 6.42726 110.281 6.23199 110.242 6.20788C110.203 6.18377 110.171 6.09279 110.171 6.00566C110.171 5.74737 109.497 4.2945 109.111 3.7216C107.838 1.8325 106.003 0.605873 103.707 0.11022C103.177 -0.00429354 101.358 -0.0406671 100.925 0.0544748Z" fill="white"/>
<path fill-rule="evenodd" clip-rule="evenodd" d="M100.313 22.3005C99.0787 22.4108 97.2443 23.1712 96.2048 24.0037C95.2444 24.7728 94.216 25.9498 93.8981 26.6437C93.8283 26.7961 93.7348 26.976 93.6904 27.0434C93.5197 27.3028 93.1037 28.481 93.0574 28.8366C93.0306 29.0416 92.9743 29.2766 92.9321 29.3586C92.89 29.4407 92.8542 29.743 92.8525 30.0305C92.8505 30.3736 92.8105 30.5857 92.7359 30.6475C92.717 30.8979 92.7645 30.7755 92.7359 31.0204C92.6353 31.2723 92.7451 30.9111 92.6761 31.2653C92.7258 31.6326 92.717 31.4693 92.7451 31.7024C92.8302 31.773 92.8678 31.9605 92.8678 32.3133C92.8678 32.5933 92.9001 32.929 92.9394 33.0593C92.9788 33.1896 93.0571 33.4986 93.1134 33.7459C93.225 34.2363 93.6602 35.1997 94.1472 36.0345C94.5394 36.7069 95.7398 37.914 96.5764 38.4774C97.2069 38.902 98.2005 39.3983 98.9225 39.6492C99.6546 39.9037 100.359 39.9893 101.704 39.9874C103.364 39.9851 104.003 39.8758 104.855 39.4491C105.08 39.3366 105.411 39.1981 105.591 39.1414C105.771 39.0846 106.216 38.8603 106.579 38.6428C107.443 38.1262 108.864 36.6815 109.239 35.9384C109.381 35.6574 109.579 35.2974 109.678 35.1384C109.926 34.7424 110.272 33.7105 110.397 32.9924C110.472 32.5585 110.5 31.099 110.5 27.6075C110.5 22.3717 110.509 22.4748 110.026 22.3066C109.753 22.2115 101.369 22.2061 100.313 22.3005Z" fill="white"/>
<path d="M2.482 89V65.03H7.14L15.47 83.73H14.382L22.712 65.03H27.336V89H22.508V72.714H23.868L16.422 89H13.362L5.882 72.714H7.31V89H2.482ZM39.0304 76.998C39.0304 74.5047 39.4951 72.34 40.4244 70.504C41.3764 68.6453 42.7364 67.206 44.5044 66.186C46.2724 65.166 48.3691 64.656 50.7944 64.656C53.2197 64.656 55.3164 65.166 57.0844 66.186C58.8524 67.206 60.2124 68.6453 61.1644 70.504C62.1391 72.34 62.6264 74.4933 62.6264 76.964C62.6264 79.48 62.1391 81.6673 61.1644 83.526C60.2124 85.362 58.8524 86.8013 57.0844 87.844C55.3164 88.864 53.2197 89.374 50.7944 89.374C48.3691 89.374 46.2724 88.864 44.5044 87.844C42.7591 86.8013 41.4104 85.3507 40.4584 83.492C39.5064 81.6333 39.0304 79.4687 39.0304 76.998ZM44.5724 76.998C44.5724 79.4687 45.0824 81.4067 46.1024 82.812C47.1451 84.1947 48.7091 84.886 50.7944 84.886C52.8344 84.886 54.3871 84.1947 55.4524 82.812C56.5177 81.4067 57.0504 79.4687 57.0504 76.998C57.0504 74.5047 56.5177 72.578 55.4524 71.218C54.4097 69.8353 52.8571 69.144 50.7944 69.144C48.7091 69.144 47.1451 69.8353 46.1024 71.218C45.0824 72.578 44.5724 74.5047 44.5724 76.998ZM81.4749 89L70.6969 65.03H76.4089L84.6029 84.206H82.9369L91.1309 65.03H96.6389L85.8609 89H81.4749ZM106.103 89V65.03H122.763V69.144H111.169V74.754H121.947V78.902H111.169V84.886H122.763V89H106.103ZM133.936 89V65.03H144.816C147.514 65.03 149.599 65.676 151.072 66.968C152.546 68.2373 153.282 70.0167 153.282 72.306C153.282 73.802 152.942 75.094 152.262 76.182C151.605 77.2473 150.653 78.0747 149.406 78.664C148.182 79.2307 146.709 79.514 144.986 79.514L145.394 78.766H146.788C147.763 78.766 148.624 79.0267 149.372 79.548C150.143 80.0693 150.778 80.8287 151.276 81.826L154.846 89H148.998L145.292 81.282C145.02 80.6247 144.59 80.194 144 79.99C143.434 79.7633 142.776 79.65 142.028 79.65H139.24V89H133.936ZM139.24 75.842H143.898C145.281 75.842 146.335 75.5587 147.06 74.992C147.786 74.4253 148.148 73.5867 148.148 72.476C148.148 71.3653 147.786 70.538 147.06 69.994C146.335 69.4273 145.281 69.144 143.898 69.144H139.24V75.842Z" fill="white"/>
</svg>
